<?xml version="1.0"?>
<svg width="8890" height="1778" xmlns="http://www.w3.org/2000/svg" xmlns:svg="http://www.w3.org/2000/svg" clip-rule="evenodd" fill-rule="evenodd" version="1.1" xml:space="preserve">
 <defs>
  <style type="text/css">
   <![CDATA[
    .fil0 {fill:#402A54}
    .fil1 {fill:#402A54;fill-rule:nonzero}
   ]]>
  </style>
 </defs>
 <g class="layer">
  <title>Layer 1</title>
  <g id="Слой_x0020_1">
   <metadata id="CorelCorpID_0Corel-Layer"/>
   <path class="fil0" d="m868.3,637.14c-174.38,0 -309.94,51.08 -401.55,146.02c29.17,-12.8 52.67,-20.29 74.58,-28.71c29.15,-11.2 55.48,-24.05 79.85,-35.46c24.37,-11.42 46.78,-21.4 63.55,-26.92c16.78,-5.52 27.93,-6.58 41.35,-5.2c13.44,1.38 29.16,5.2 44.44,7.96c15.3,2.76 30.17,4.46 44.39,4.83c14.23,0.38 27.82,-0.58 37.58,-0.74c9.78,-0.16 15.73,0.48 22.15,2.02c6.42,1.54 13.33,3.98 21.28,7.96c7.97,3.98 16.99,9.5 25.65,14.02c8.65,4.51 16.94,8.01 24.53,11.09c7.6,3.08 14.49,5.73 20.38,9.4c5.9,3.66 10.78,8.34 15.67,14.34c4.88,5.99 9.77,13.32 14.34,18.31c4.56,4.99 8.8,7.65 12.84,10.09c4.04,2.44 7.86,4.67 8.97,7.54c1.12,2.86 -0.47,6.37 -2.38,8.76c-1.92,2.39 -4.15,3.66 -6.22,4.35c-2.07,0.69 -3.98,0.79 -4.2,1.65c-0.21,0.84 1.28,2.44 4.94,5.94c3.66,3.51 9.51,8.92 15.08,14.87c5.58,5.94 10.89,12.43 17.31,20.08c6.42,7.64 13.96,16.44 21.28,24.52c7.33,8.06 14.45,15.39 20.82,21.34c6.38,5.94 12,10.51 15.51,14.81c3.5,4.3 4.88,8.33 4.93,11.15c0.06,2.81 -1.21,4.4 -2.23,5.47c-1,1.06 -1.75,1.59 0.48,4.08c2.23,2.49 7.43,6.96 11.15,10.3c3.72,3.35 5.95,5.58 7.06,8.55c1.12,2.98 1.12,6.69 -0.43,9.88c-1.53,3.18 -4.62,5.84 -7.85,7.38c-3.24,1.54 -6.63,1.96 -9.29,1.54c-2.65,-0.43 -4.57,-1.7 -5.89,-2.76c-1.33,-1.06 -2.08,-1.92 -2.44,-1.33c-0.38,0.59 -0.38,2.6 -1.34,5.15c-0.95,2.55 -2.85,5.63 -5.62,7.65c-2.76,2.01 -6.37,2.97 -12.48,2.12c-6.11,-0.85 -14.7,-3.51 -22.24,-6.53c-7.54,-3.03 -14.02,-6.43 -18.1,-8.76c-4.1,-2.34 -5.79,-3.61 -7.81,-2.97c-2.02,0.63 -4.36,3.18 -8.93,4.03c-4.56,0.85 -11.35,0 -21.23,-2.44c-9.87,-2.44 -22.83,-6.48 -36.95,-11.99c-14.12,-5.53 -29.41,-12.54 -43.11,-19.12c-13.69,-6.58 -25.8,-12.75 -36.11,-16.57c-10.29,-3.82 -18.79,-5.3 -31.21,-8.92c-12.42,-3.61 -28.77,-9.34 -44.28,-15.92c-15.5,-6.59 -30.15,-14.02 -42.68,-21.77c-12.53,-7.75 -22.93,-15.82 -31,-23.15c-8.08,-7.32 -13.81,-13.91 -19.33,-18.47c-5.52,-4.57 -10.84,-7.12 -17.52,-5.42c-6.69,1.7 -14.76,7.64 -25.48,15.71c-10.73,8.08 -24.11,18.27 -39.61,32.81c-15.51,14.55 -33.13,33.46 -48.95,47.58c-15.82,14.12 -29.83,23.46 -50.54,32.81c-20.7,9.34 -48.1,18.68 -79.47,31.35c-31.37,12.67 -66.71,28.66 -87.35,39.09c-10.15,5.13 -16.75,8.92 -21.52,11.7c-9.41,47.07 -14.2,97.94 -14.2,152.4c0,346.23 199.69,572.91 545.91,572.91c299.88,0 494.3,-165.6 540.97,-434.9c-8.85,12.98 -17.11,25.16 -26.17,36.91c-19.31,25.06 -42.23,48.18 -58.59,63.94c-16.35,15.75 -26.15,24.14 -38.52,38.07c-12.38,13.93 -27.32,33.4 -39.44,51.38c-12.11,17.98 -21.39,34.46 -36.17,45.68c-14.77,11.23 -35.05,17.2 -57.85,26.04c-22.8,8.84 -48.12,20.55 -75.4,31.62c-27.27,11.06 -56.49,21.49 -82.67,28.41c-26.17,6.93 -49.32,10.38 -75.05,15.13c-25.73,4.73 -54.06,10.78 -73.26,15.07c-19.21,4.3 -29.3,6.84 -35.54,6.15c-6.24,-0.69 -8.63,-4.63 -10.08,-8.13c-1.46,-3.49 -1.99,-6.56 -1.52,-9.14c0.46,-2.58 1.9,-4.67 3.61,-6.45c1.73,-1.78 3.72,-3.25 5.37,-4.11c1.65,-0.87 2.97,-1.13 3.56,-1.23c0.6,-0.11 0.48,-0.07 -0.35,-0.15c-0.83,-0.09 -2.37,-0.3 -5.28,-0.48c-2.92,-0.19 -7.2,-0.34 -11.44,-0.13c-4.24,0.2 -8.44,0.78 -13.63,1.4c-5.21,0.61 -11.42,1.25 -18.64,2.5c-7.22,1.24 -15.45,3.09 -21.39,3.99c-5.93,0.9 -9.55,0.86 -12.49,-0.13c-2.95,-1 -5.2,-2.97 -6.96,-5.44c-1.75,-2.47 -3.02,-5.44 -3.11,-8.11c-0.09,-2.65 0.99,-5.01 2.01,-6.86c1.04,-1.85 2.01,-3.2 2.33,-3.89c0.33,-0.7 -0.01,-0.73 -1.41,-0.73c-1.39,0 -3.85,0.02 -7.55,0.62c-3.68,0.61 -8.61,1.77 -12.83,2.83c-4.21,1.05 -7.7,1.97 -10.59,2.04c-2.89,0.07 -5.15,-0.72 -7.35,-2.12c-2.21,-1.4 -4.35,-3.4 -5.6,-5.91c-1.25,-2.5 -1.62,-5.5 -1.57,-8.48c0.06,-2.99 0.53,-5.95 1.27,-7.71c0.74,-1.77 1.75,-2.34 2.19,-2.85c0.45,-0.52 0.32,-0.98 -0.24,-2.38c-0.55,-1.39 -1.54,-3.73 -1.88,-5.8c-0.35,-2.08 -0.05,-3.89 0.86,-6.28c0.92,-2.4 2.45,-5.37 4.25,-7.83c1.82,-2.47 3.93,-4.43 7.94,-7.63c4.01,-3.19 9.94,-7.61 15.8,-10.87c5.87,-3.25 11.67,-5.34 16.3,-6.68c4.64,-1.35 8.11,-1.94 11.52,-3.16c3.42,-1.21 6.79,-3.05 11.91,-5.01c5.12,-1.96 11.98,-4.05 18.48,-5.68c6.51,-1.62 12.66,-2.78 16.65,-3.32c4,-0.54 5.84,-0.47 8.33,-1.69c2.5,-1.23 5.66,-3.76 6.81,-5.4c1.14,-1.64 0.27,-2.4 -1.59,-4.13c-1.86,-1.72 -4.71,-4.42 -6.75,-7.14c-2.05,-2.72 -3.27,-5.47 -3.59,-9.22c-0.31,-3.74 0.29,-8.49 1.3,-12.15c1.02,-3.67 2.46,-6.26 5.82,-9.13c3.37,-2.87 8.66,-6.01 16.13,-9.68c7.47,-3.69 17.12,-7.9 27.07,-10.98c9.95,-3.09 20.2,-5.06 28.93,-6.8c8.73,-1.73 15.92,-3.23 24.31,-5.89c8.4,-2.66 18.01,-6.48 26.59,-10.94c8.58,-4.46 16.15,-9.55 23.86,-13.92c7.7,-4.39 15.56,-8.05 25.42,-10.53c9.87,-2.49 21.73,-3.79 32.93,-5.97c11.2,-2.18 21.73,-5.24 34.21,-6.86c12.49,-1.64 26.92,-1.83 36.36,-1.51c9.43,0.32 13.87,1.16 18.63,3.5c4.76,2.33 9.85,6.14 13.94,9.04c4.08,2.91 7.18,4.9 12.04,5.7c4.86,0.8 11.49,0.42 17.39,-1.07c5.91,-1.49 11.09,-4.09 16.29,-7.19c5.21,-3.1 10.44,-6.69 18.74,-15.56c8.31,-8.88 19.7,-23.02 32.71,-43.25c13.02,-20.23 27.66,-46.55 57.42,-88.32c29.77,-41.77 74.65,-98.99 101.53,-137.25c26.89,-38.27 35.79,-57.58 45.83,-74.93c2.83,-4.88 5.73,-9.6 8.69,-14.08c-27.17,-168.2 -111.13,-282.42 -276.42,-364.1c-83.6,-41.31 -172.26,-51.15 -271.86,-51.15z" id="svg_1"/>
   <g id="svg_2">
    <path class="fil1" d="m2914.29,1282.59c13.32,-3.61 25.26,-3.48 26.66,0.29c1.4,3.77 -8.26,9.76 -21.58,13.37l-5.08,-13.66zm-91.61,53.58l-36.64,-1.04l0,0l4.83,-2.83l4.73,-2.72l4.68,-2.63l4.61,-2.52l4.57,-2.45l4.53,-2.34l4.43,-2.25l4.46,-2.19l4.39,-2.09l4.29,-2l4.28,-1.93l4.25,-1.86l4.2,-1.78l4.18,-1.73l4.25,-1.69l4.1,-1.58l4.02,-1.51l4.04,-1.46l3.99,-1.4l3.91,-1.34l3.89,-1.29l3.8,-1.21l3.64,-1.14l3.75,-1.15l3.63,-1.07l3.4,-1l3.43,-0.98l3.42,-0.96l3.32,-0.92l3.06,-0.83l3.08,-0.85l3.09,-0.84l5.08,13.66l-2.89,0.78l-2.9,0.79l-2.94,0.81l-2.7,0.74l-2.62,0.74l-2.65,0.76l-2.7,0.78l-2.53,0.75l-2.45,0.75l-2.62,0.82l-2.5,0.81l-2.51,0.83l-2.55,0.86l-2.55,0.9l-2.58,0.94l-2.7,1.01l-2.72,1.04l-2.67,1.07l-2.84,1.17l-2.96,1.26l-3.01,1.32l-3.12,1.41l-3.25,1.5l-3.29,1.57l-3.38,1.67l-3.55,1.79l-3.61,1.88l-3.73,1.99l-3.87,2.12l-3.98,2.23l-4.11,2.36l-4.21,2.47l0,0zm-158.88,138.77l-46.6,6.98l0,0l4.77,-6.11l4.87,-6.03l4.95,-5.93l5.02,-5.84l5.11,-5.75l5.16,-5.66l5.23,-5.55l5.29,-5.47l5.34,-5.37l5.37,-5.27l5.42,-5.18l5.46,-5.08l5.47,-4.97l5.49,-4.87l5.51,-4.77l5.53,-4.69l5.52,-4.55l5.5,-4.47l5.52,-4.36l5.49,-4.26l5.49,-4.15l5.45,-4.04l5.42,-3.94l5.37,-3.81l5.33,-3.72l5.31,-3.63l5.23,-3.49l5.17,-3.38l5.11,-3.28l5.05,-3.17l5,-3.07l4.89,-2.93l36.64,1.04l-4.35,2.61l-4.42,2.71l-4.53,2.85l-4.65,2.98l-4.73,3.1l-4.81,3.21l-4.87,3.31l-4.93,3.44l-5.01,3.57l-5.06,3.66l-5.09,3.78l-5.13,3.89l-5.17,4l-5.18,4.1l-5.22,4.23l-5.24,4.33l-5.23,4.43l-5.23,4.53l-5.23,4.65l-5.23,4.75l-5.2,4.84l-5.18,4.94l-5.15,5.05l-5.12,5.15l-5.07,5.25l-5.03,5.35l-4.98,5.44l-4.91,5.53l-4.84,5.64l-4.79,5.73l-4.69,5.81l-4.61,5.91l0,0zm-101.31,189.58l-48.04,9.42l0,0l1.81,-4.44l1.91,-4.62l1.98,-4.81l2.07,-4.97l2.17,-5.14l2.25,-5.3l2.34,-5.44l2.43,-5.58l2.52,-5.71l2.61,-5.83l2.7,-5.93l2.78,-6.03l2.88,-6.13l2.96,-6.22l3.07,-6.28l3.14,-6.35l3.25,-6.4l3.33,-6.45l3.43,-6.5l3.51,-6.52l3.61,-6.54l3.71,-6.55l3.79,-6.56l3.89,-6.55l3.99,-6.54l4.08,-6.51l4.18,-6.48l4.28,-6.44l4.37,-6.39l4.47,-6.35l4.57,-6.27l4.67,-6.19l46.6,-6.98l-4.53,6.01l-4.45,6.09l-4.35,6.17l-4.27,6.25l-4.18,6.3l-4.1,6.36l-4,6.39l-3.93,6.42l-3.83,6.45l-3.73,6.46l-3.65,6.47l-3.57,6.44l-3.47,6.44l-3.39,6.42l-3.29,6.39l-3.21,6.34l-3.12,6.29l-3.03,6.22l-2.94,6.16l-2.86,6.07l-2.76,5.99l-2.68,5.89l-2.59,5.79l-2.5,5.67l-2.41,5.54l-2.34,5.4l-2.23,5.28l-2.15,5.12l-2.07,4.95l-1.98,4.79l-1.89,4.6l-1.81,4.42l0,0zm-28.54,69.53l-47.7,8.7l-0.01,0.01l0.49,-0.95l0.48,-0.97l0.48,-1l0.49,-1.03l0.48,-1.04l0.5,-1.13l0.52,-1.15l0.51,-1.2l0.55,-1.28l0.56,-1.34l0.58,-1.41l0.61,-1.49l0.64,-1.58l0.67,-1.66l0.7,-1.74l0.74,-1.86l0.78,-1.97l0.82,-2.07l0.87,-2.2l0.92,-2.31l0.95,-2.43l1.03,-2.59l1.08,-2.72l1.14,-2.86l1.2,-3l1.26,-3.18l1.34,-3.34l1.41,-3.5l1.48,-3.68l1.57,-3.86l1.64,-4.05l1.72,-4.23l48.04,-9.42l-1.72,4.23l-1.64,4.05l-1.55,3.84l-1.48,3.68l-1.41,3.5l-1.34,3.32l-1.26,3.16l-1.2,3.02l-1.14,2.86l-1.08,2.7l-1.01,2.57l-0.97,2.45l-0.92,2.31l-0.87,2.2l-0.82,2.07l-0.78,1.97l-0.74,1.86l-0.7,1.78l-0.69,1.68l-0.64,1.58l-0.61,1.51l-0.6,1.45l-0.58,1.38l-0.55,1.3l-0.55,1.28l-0.54,1.21l-0.52,1.15l-0.52,1.14l-0.53,1.11l-0.52,1.06l-0.52,1.05l-0.53,1.05l-0.01,0.01zm-53.56,-47.11l48.48,-11.16l0,0l-0.61,6.9l-0.53,6.42l-0.45,5.94l-0.39,5.49l-0.31,5.05l-0.25,4.62l-0.18,4.21l-0.12,3.82l-0.06,3.44l-0.01,3.07l0.05,2.72l0.1,2.38l0.13,2.05l0.18,1.72l0.22,1.41l0.25,1.12l0.23,0.81l0.21,0.46l0.06,0.1l-0.58,-0.44l-3.97,-1.08l-19.8,2.26l-15.41,5.97l-3.25,2.2l-0.67,0.61l0.03,-0.04l0.26,-0.35l0.37,-0.57l0.45,-0.73l0.46,-0.78l0.47,-0.88l0.5,-0.93l47.7,-8.7l-0.54,1.03l-0.57,1.04l-0.6,1.04l-0.61,0.99l-0.67,1.01l-0.78,1.05l-0.99,1.16l-1.67,1.57l-4.23,2.9l-16.35,6.37l-20.68,2.34l-4.83,-1.36l-1.38,-1.12l-0.68,-0.98l-0.49,-1.08l-0.37,-1.21l-0.31,-1.4l-0.24,-1.65l-0.2,-1.9l-0.15,-2.19l-0.1,-2.48l-0.05,-2.82l0.01,-3.15l0.06,-3.5l0.12,-3.88l0.18,-4.27l0.25,-4.66l0.31,-5.09l0.39,-5.53l0.47,-5.98l0.53,-6.44l0.61,-6.92l0,0zm65.86,-387.29l48.34,-10.3l0,0l-3.53,13.99l-3.41,14.04l-3.32,14.08l-3.22,14.1l-3.12,14.1l-3.02,14.08l-2.92,14.05l-2.83,14.01l-2.74,13.92l-2.62,13.85l-2.54,13.74l-2.45,13.61l-2.35,13.48l-2.25,13.31l-2.17,13.13l-2.07,12.95l-1.98,12.73l-1.89,12.5l-1.79,12.25l-1.72,11.98l-1.62,11.7l-1.53,11.4l-1.45,11.08l-1.36,10.74l-1.27,10.39l-1.18,10.01l-1.1,9.62l-1.02,9.21l-0.94,8.78l-0.85,8.34l-0.77,7.86l-0.69,7.4l-48.48,11.16l0.69,-7.42l0.77,-7.9l0.85,-8.36l0.94,-8.8l1.02,-9.23l1.1,-9.64l1.2,-10.03l1.27,-10.41l1.36,-10.76l1.45,-11.1l1.53,-11.42l1.62,-11.72l1.72,-12l1.81,-12.27l1.89,-12.52l1.98,-12.75l2.07,-12.97l2.17,-13.17l2.27,-13.33l2.35,-13.5l2.45,-13.65l2.54,-13.76l2.64,-13.87l2.74,-13.96l2.83,-14.03l2.92,-14.09l3.04,-14.12l3.12,-14.14l3.24,-14.14l3.32,-14.12l3.43,-14.08l3.53,-14.03l0,0zm153.04,-383.2l47.36,-8.1l0,0l-5.47,9.09l-5.46,9.33l-5.43,9.56l-5.41,9.78l-5.37,10l-5.35,10.22l-5.32,10.41l-5.28,10.62l-5.24,10.82l-5.2,11.01l-5.15,11.2l-5.11,11.37l-5.06,11.56l-5.01,11.73l-4.94,11.88l-4.9,12.05l-4.83,12.2l-4.78,12.36l-4.7,12.5l-4.64,12.64l-4.57,12.77l-4.49,12.9l-4.42,13.04l-4.34,13.14l-4.26,13.25l-4.17,13.37l-4.1,13.47l-4,13.57l-3.9,13.67l-3.83,13.75l-3.71,13.83l-3.62,13.91l-48.34,10.3l3.64,-13.97l3.73,-13.87l3.83,-13.81l3.92,-13.71l4.02,-13.61l4.1,-13.53l4.19,-13.41l4.28,-13.31l4.36,-13.2l4.44,-13.08l4.51,-12.96l4.59,-12.83l4.66,-12.68l4.72,-12.56l4.8,-12.42l4.85,-12.26l4.92,-12.11l4.98,-11.96l5.03,-11.79l5.1,-11.62l5.13,-11.45l5.19,-11.26l5.24,-11.09l5.28,-10.9l5.32,-10.7l5.36,-10.51l5.39,-10.3l5.43,-10.1l5.47,-9.88l5.49,-9.66l5.52,-9.45l5.55,-9.21l0,0zm153.78,-182.6l44,-4.22l0,0l-2.99,2.71l-3.17,2.86l-3.31,3.02l-3.48,3.19l-3.62,3.35l-3.76,3.52l-3.91,3.7l-4.05,3.87l-4.16,4.04l-4.3,4.24l-4.41,4.42l-4.53,4.6l-4.63,4.79l-4.73,4.98l-4.82,5.19l-4.92,5.39l-5,5.58l-5.07,5.77l-5.14,5.99l-5.21,6.19l-5.26,6.41l-5.33,6.61l-5.35,6.82l-5.41,7.06l-5.42,7.26l-5.47,7.48l-5.48,7.71l-5.49,7.94l-5.51,8.16l-5.5,8.39l-5.49,8.62l-5.5,8.86l-47.36,8.1l5.56,-8.98l5.57,-8.76l5.6,-8.51l5.59,-8.3l5.59,-8.06l5.58,-7.85l5.55,-7.62l5.54,-7.4l5.51,-7.18l5.47,-6.98l5.43,-6.75l5.38,-6.55l5.33,-6.33l5.26,-6.13l5.21,-5.93l5.12,-5.72l5.04,-5.51l4.96,-5.33l4.87,-5.14l4.77,-4.93l4.65,-4.74l4.55,-4.54l4.42,-4.36l4.3,-4.18l4.17,-3.99l4.01,-3.8l3.88,-3.62l3.72,-3.45l3.56,-3.25l3.37,-3.08l3.21,-2.9l3.01,-2.73l0,0zm77.34,-24.63l-48.5,11.58l0,0l0,-1.02l-0.01,-0.93l-0.02,-0.86l-0.03,-0.75l-0.05,-0.63l-0.06,-0.5l-0.08,-0.37l-0.08,-0.23l0.02,0.02l0.26,0.28l1.07,0.62l3.42,0.78l9.33,-0.26l12.2,-2.59l8.06,-2.89l3.31,-1.59l1.15,-0.66l0.13,-0.08l-0.36,0.25l-0.65,0.49l-0.85,0.67l-1.11,0.91l-1.33,1.11l-1.45,1.24l-1.62,1.41l-1.82,1.59l-1.93,1.71l-2.12,1.9l-2.3,2.07l-2.47,2.21l-2.63,2.38l-2.82,2.55l-44,4.22l2.82,-2.55l2.67,-2.4l2.49,-2.25l2.32,-2.07l2.18,-1.96l2.07,-1.83l1.9,-1.67l1.78,-1.55l1.71,-1.46l1.55,-1.29l1.51,-1.25l1.55,-1.21l1.51,-1.13l1.6,-1.13l1.87,-1.22l2.69,-1.56l4.69,-2.27l9.26,-3.33l13.24,-2.81l10.21,-0.28l4.18,0.98l1.69,1l0.78,0.88l0.42,0.78l0.24,0.73l0.18,0.77l0.1,0.8l0.07,0.83l0.03,0.87l0.02,0.92l0.01,0.99l0,1.04l0,0zm0.17,211.34l-48.5,11.58l0,0l-0.02,-16.17l-0.01,-15.3l-0.01,-14.42l-0.02,-13.62l-0.01,-12.82l-0.01,-12.03l-0.01,-11.29l-0.01,-10.57l-0.01,-9.87l0,-9.2l-0.01,-8.54l-0.01,-7.95l0,-7.35l-0.01,-6.78l0,-6.25l-0.01,-5.73l0,-5.25l-0.01,-4.77l0,-4.37l0,-3.94l0,-3.56l0,-3.2l-0.01,-2.88l0,-2.59l0,-2.3l0,-2.06l0,-1.83l0,-1.63l0,-1.46l0,-1.31l0,-1.2l0,-1.1l48.5,-11.58l0,1.1l0,1.2l0,1.31l0,1.46l0,1.63l0,1.83l0,2.06l0,2.3l0,2.57l0.01,2.88l0,3.22l0,3.56l0,3.94l0,4.35l0.01,4.79l0,5.25l0.01,5.73l0,6.25l0.01,6.78l0,7.35l0.01,7.93l0.01,8.56l0,9.2l0.01,9.87l0.01,10.57l0.01,11.29l0.01,12.03l0.01,12.8l0.02,13.62l0.01,14.44l0.01,15.3l0.02,16.17l0,0zm0.75,841.09l-48.5,11.58l-0.03,-31.11l-0.03,-31.08l-0.02,-31.03l-0.03,-30.94l-0.03,-30.83l-0.03,-30.68l-0.03,-30.52l-0.02,-30.32l-0.03,-30.09l-0.03,-29.83l-0.03,-29.56l-0.02,-29.24l-0.03,-28.9l-0.02,-28.54l-0.03,-28.12l-0.03,-27.73l-0.02,-27.26l-0.02,-26.78l-0.03,-26.27l-0.02,-25.73l-0.02,-25.16l-0.02,-24.56l-0.03,-23.95l-0.02,-23.31l-0.02,-22.62l-0.01,-21.91l-0.02,-21.17l-0.02,-20.42l-0.02,-19.61l-0.01,-18.8l-0.02,-17.95l-0.01,-17.07l48.5,-11.58l0.01,17.07l0.02,17.95l0.01,18.8l0.02,19.61l0.02,20.42l0.02,21.17l0.01,21.91l0.02,22.62l0.02,23.29l0.03,23.95l0.02,24.58l0.02,25.16l0.02,25.73l0.03,26.27l0.02,26.78l0.02,27.26l0.03,27.71l0.03,28.14l0.02,28.54l0.03,28.9l0.02,29.24l0.03,29.56l0.03,29.83l0.03,30.09l0.02,30.32l0.03,30.52l0.03,30.68l0.03,30.83l0.03,30.94l0.02,31.03l0.03,31.08l0.03,31.11zm0,0c0,4.12 -10.85,10.07 -24.24,13.26c-13.39,3.19 -24.26,2.44 -24.26,-1.68l48.5,-11.58z" id="svg_3"/>
   </g>
   <g id="svg_4">
    <path class="fil1" d="m4086.47,839.53c-10.58,0 -12.51,-4.24 -4.31,-9.46c8.2,-5.22 23.45,-9.46 34.03,-9.46l-29.72,18.92zm373.44,441.22l-48.5,11.58l0,0l-0.44,-23.4l-1.29,-23.1l-2.11,-22.77l-2.93,-22.39l-3.72,-22.01l-4.49,-21.58l-5.24,-21.14l-5.96,-20.65l-6.67,-20.14l-7.35,-19.6l-8.02,-19.04l-8.66,-18.44l-9.28,-17.81l-9.88,-17.16l-10.44,-16.47l-11.02,-15.76l-11.53,-15.03l-12.05,-14.23l-12.53,-13.46l-12.99,-12.6l-13.42,-11.75l-13.84,-10.87l-14.21,-9.94l-14.57,-8.99l-14.87,-8.01l-15.14,-7l-15.38,-5.96l-15.51,-4.89l-15.6,-3.8l-15.54,-2.7l-15.34,-1.6l-14.92,-0.51l29.72,-18.92l19.48,0.67l18.62,1.94l17.92,3.1l17.34,4.22l16.83,5.31l16.36,6.34l15.92,7.36l15.49,8.33l15.05,9.29l14.63,10.22l14.16,11.13l13.7,11.99l13.23,12.84l12.73,13.66l12.21,14.45l11.69,15.21l11.14,15.94l10.56,16.65l9.98,17.34l9.36,17.97l8.74,18.6l8.08,19.2l7.41,19.76l6.73,20.3l6,20.81l5.28,21.28l4.51,21.74l3.76,22.17l2.95,22.55l2.13,22.93l1.29,23.26l0.44,23.58l0,0zm-366.64,471.64l27.76,-18.88l13.53,-0.78l12.28,-1.56l11.24,-2.19l10.75,-2.85l11.09,-3.75l11.75,-4.8l12.43,-6.02l12.91,-7.21l13.1,-8.36l13.13,-9.47l13,-10.48l12.77,-11.45l12.44,-12.34l12.07,-13.23l11.66,-14.05l11.18,-14.82l10.69,-15.57l10.17,-16.3l9.63,-16.97l9.04,-17.62l8.44,-18.25l7.83,-18.84l7.17,-19.39l6.51,-19.91l5.83,-20.43l5.11,-20.89l4.38,-21.34l3.64,-21.75l2.86,-22.13l2.06,-22.49l1.27,-22.82l0.42,-23.12l48.5,-11.58l-0.42,23.28l-1.27,23l-2.08,22.67l-2.9,22.33l-3.66,21.95l-4.42,21.54l-5.17,21.11l-5.89,20.65l-6.59,20.17l-7.27,19.65l-7.95,19.12l-8.58,18.55l-9.22,17.96l-9.83,17.35l-10.43,16.7l-11.01,16.05l-11.6,15.36l-12.16,14.65l-12.71,13.93l-13.3,13.2l-13.89,12.45l-14.52,11.7l-15.21,10.95l-16.02,10.22l-16.97,9.49l-18.15,8.76l-19.49,7.96l-20.79,6.99l-21.71,5.77l-21.76,4.25l-21.22,2.7l-20.45,1.18zm0,0c-10.98,0.25 -13.67,-3.76 -6.01,-8.97c7.66,-5.21 22.79,-9.66 33.77,-9.91l-27.76,18.88z" id="svg_5"/>
   </g>
   <g id="svg_6">
    <path class="fil1" d="m4101.3,721.9c10.58,0 12.51,4.24 4.31,9.46c-8.2,5.22 -23.45,9.46 -34.03,9.46l29.72,-18.92zm-400.83,509.5l-48.5,11.58l0,0l0.53,-26.12l1.6,-25.79l2.62,-25.42l3.61,-25.01l4.6,-24.58l5.56,-24.13l6.48,-23.63l7.4,-23.1l8.26,-22.55l9.12,-21.96l9.96,-21.35l10.76,-20.7l11.56,-20.04l12.31,-19.32l13.07,-18.6l13.8,-17.85l14.52,-17.06l15.22,-16.26l15.94,-15.45l16.66,-14.61l17.42,-13.76l18.2,-12.92l19.1,-12.05l20.1,-11.2l21.25,-10.34l22.55,-9.39l23.8,-8.32l24.75,-7.05l25.17,-5.54l25.01,-3.93l24.49,-2.29l23.91,-0.76l-29.72,18.92l-18.31,0.56l-17.17,1.61l-16.05,2.51l-15.23,3.36l-14.95,4.25l-15.14,5.3l-15.57,6.51l-16.01,7.78l-16.24,9.06l-16.28,10.29l-16.14,11.44l-15.88,12.56l-15.5,13.59l-15.06,14.59l-14.54,15.54l-13.98,16.42l-13.36,17.29l-12.73,18.12l-12.03,18.88l-11.32,19.64l-10.58,20.34l-9.8,21.01l-9,21.66l-8.16,22.27l-7.3,22.84l-6.42,23.37l-5.5,23.89l-4.56,24.36l-3.59,24.81l-2.6,25.2l-1.58,25.59l-0.53,25.94l0,0zm394.47,502.1l-31.3,18.9l-22.71,-1.19l-21.96,-2.51l-21.29,-3.76l-20.7,-4.97l-20.18,-6.12l-19.65,-7.26l-19.14,-8.35l-18.64,-9.4l-18.13,-10.45l-17.59,-11.45l-17.05,-12.41l-16.5,-13.36l-15.92,-14.27l-15.32,-15.16l-14.7,-16l-14.05,-16.82l-13.39,-17.61l-12.71,-18.38l-11.98,-19.1l-11.26,-19.81l-10.5,-20.48l-9.71,-21.1l-8.89,-21.72l-8.07,-22.3l-7.22,-22.84l-6.32,-23.35l-5.43,-23.85l-4.49,-24.29l-3.54,-24.72l-2.55,-25.11l-1.56,-25.48l-0.52,-25.8l48.5,-11.58l0.52,25.62l1.54,25.3l2.55,24.93l3.5,24.54l4.47,24.13l5.39,23.67l6.28,23.19l7.16,22.68l8.01,22.12l8.83,21.56l9.63,20.94l10.4,20.3l11.16,19.63l11.88,18.92l12.57,18.2l13.25,17.43l13.89,16.62l14.5,15.8l15.12,14.94l15.66,14.03l16.2,13.12l16.71,12.17l17.17,11.17l17.61,10.15l18.02,9.1l18.38,8.01l18.69,6.9l18.94,5.76l19.12,4.59l19.19,3.4l19.16,2.19l18.97,0.99zm0,0c10.23,0.22 11.52,4.64 2.88,9.85c-8.64,5.21 -23.95,9.27 -34.18,9.05l31.3,-18.9z" id="svg_7"/>
   </g>
   <g id="svg_8">
    <path class="fil1" d="m4976.95,1744.34c0.01,4.12 -10.84,10.07 -24.23,13.27c-13.39,3.2 -24.26,2.45 -24.27,-1.67l48.5,-11.6zm-50.05,-598.24l48.5,-11.6l0,0l0.03,12.67l0.03,13.27l0.04,13.86l0.03,14.44l0.04,14.98l0.04,15.51l0.04,16.03l0.04,16.51l0.04,16.99l0.04,17.44l0.05,17.87l0.04,18.28l0.05,18.67l0.05,19.05l0.05,19.4l0.05,19.73l0.05,20.05l0.05,20.35l0.05,20.62l0.06,20.87l0.05,21.11l0.06,21.32l0.05,21.53l0.06,21.69l0.05,21.86l0.06,21.99l0.06,22.11l0.06,22.21l0.05,22.29l0.06,22.35l0.06,22.38l0.06,22.41l-48.5,11.6l-0.06,-22.41l-0.06,-22.38l-0.06,-22.35l-0.05,-22.29l-0.06,-22.21l-0.06,-22.11l-0.06,-21.99l-0.05,-21.86l-0.06,-21.69l-0.05,-21.53l-0.06,-21.32l-0.05,-21.11l-0.06,-20.87l-0.05,-20.62l-0.05,-20.35l-0.05,-20.05l-0.05,-19.73l-0.05,-19.4l-0.05,-19.05l-0.05,-18.67l-0.04,-18.28l-0.05,-17.87l-0.04,-17.44l-0.04,-16.99l-0.04,-16.51l-0.04,-16.03l-0.04,-15.51l-0.04,-14.98l-0.03,-14.44l-0.04,-13.86l-0.03,-13.27l-0.03,-12.67l0,0zm-0.55,-200.43l48.5,-11.6l0,0l0.01,4.08l0.01,3.99l0.01,3.92l0.01,3.87l0.01,3.86l0.01,3.85l0.01,3.88l0.01,3.93l0.01,4l0.01,4.09l0.02,4.21l0.01,4.36l0.01,4.51l0.01,4.71l0.02,4.91l0.01,5.15l0.02,5.41l0.01,5.68l0.02,5.99l0.02,6.32l0.02,6.66l0.02,7.04l0.02,7.43l0.02,7.86l0.02,8.3l0.02,8.76l0.03,9.25l0.03,9.76l0.03,10.3l0.03,10.86l0.03,11.44l0.03,12.05l-48.5,11.6l-0.03,-12.05l-0.03,-11.44l-0.03,-10.86l-0.03,-10.3l-0.03,-9.76l-0.03,-9.25l-0.02,-8.76l-0.02,-8.3l-0.02,-7.86l-0.02,-7.43l-0.02,-7.04l-0.02,-6.66l-0.02,-6.32l-0.02,-5.99l-0.01,-5.68l-0.02,-5.41l-0.01,-5.15l-0.02,-4.91l-0.01,-4.71l-0.01,-4.51l-0.01,-4.36l-0.02,-4.21l-0.01,-4.09l-0.01,-4l-0.01,-3.93l-0.01,-3.88l-0.01,-3.85l-0.01,-3.86l-0.01,-3.87l-0.01,-3.92l-0.01,-3.99l-0.01,-4.08l0,0zm-0.44,-171.32l48.5,-11.6l0.02,5.96l0.01,5.96l0.02,5.96l0.01,5.94l0.02,5.93l0.01,5.91l0.02,5.88l0.02,5.87l0.01,5.83l0.02,5.81l0.01,5.76l0.01,5.73l0.02,5.68l0.01,5.64l0.02,5.59l0.01,5.53l0.02,5.48l0.01,5.42l0.01,5.35l0.02,5.28l0.01,5.21l0.01,5.14l0.02,5.06l0.01,4.98l0.01,4.89l0.01,4.8l0.01,4.71l0.02,4.61l0.01,4.51l0.01,4.41l0.01,4.3l0.01,4.19l-48.5,11.6l-0.01,-4.19l-0.01,-4.3l-0.01,-4.41l-0.01,-4.51l-0.02,-4.61l-0.01,-4.71l-0.01,-4.8l-0.01,-4.89l-0.01,-4.98l-0.02,-5.06l-0.01,-5.14l-0.01,-5.21l-0.02,-5.28l-0.01,-5.35l-0.01,-5.42l-0.02,-5.48l-0.01,-5.53l-0.02,-5.59l-0.01,-5.64l-0.02,-5.68l-0.01,-5.73l-0.01,-5.76l-0.02,-5.81l-0.01,-5.83l-0.02,-5.87l-0.02,-5.88l-0.01,-5.91l-0.02,-5.93l-0.01,-5.94l-0.02,-5.96l-0.01,-5.96l-0.02,-5.96zm0,0c-0.01,-4.12 10.84,-10.07 24.23,-13.27c13.39,-3.2 24.26,-2.45 24.27,1.67l-48.5,11.6z" id="svg_9"/>
   </g>
   <g id="svg_10">
    <path class="fil1" d="m5374.47,758.53c13.18,-3.88 25.8,-4.19 28.17,-0.7c2.37,3.49 -6.39,9.48 -19.57,13.36l-8.6,-12.66zm-86.75,55.48l-38.62,0.18l-0.01,0.01l4.69,-3l4.62,-2.88l4.55,-2.76l4.5,-2.68l4.44,-2.56l4.37,-2.47l4.3,-2.36l4.28,-2.29l4.25,-2.21l4.23,-2.14l4.17,-2.03l4.08,-1.94l4.14,-1.91l4.07,-1.82l4.07,-1.77l4.02,-1.67l3.93,-1.61l4.01,-1.58l3.94,-1.49l3.76,-1.39l3.78,-1.37l3.84,-1.33l3.65,-1.24l3.62,-1.2l3.52,-1.13l3.49,-1.11l3.44,-1.06l3.25,-0.99l3.14,-0.94l3.12,-0.94l3.15,-0.93l2.96,-0.87l8.6,12.66l-2.9,0.85l-2.73,0.81l-2.76,0.82l-2.78,0.84l-2.67,0.81l-2.52,0.78l-2.51,0.79l-2.5,0.81l-2.48,0.82l-2.49,0.84l-2.36,0.83l-2.48,0.89l-2.58,0.95l-2.48,0.95l-2.49,0.98l-2.65,1.07l-2.68,1.13l-2.71,1.17l-2.83,1.26l-2.88,1.33l-3.06,1.46l-3.09,1.51l-3.17,1.6l-3.27,1.69l-3.4,1.83l-3.54,1.94l-3.61,2.03l-3.72,2.16l-3.82,2.26l-3.95,2.42l-4.06,2.52l-4.17,2.66l-0.01,0.01zm-156.62,148.47l-46.92,7.42l0,0l4.67,-6.49l4.76,-6.4l4.84,-6.3l4.92,-6.21l4.99,-6.1l5.05,-6l5.12,-5.91l5.17,-5.81l5.22,-5.7l5.26,-5.59l5.29,-5.49l5.32,-5.39l5.36,-5.28l5.37,-5.18l5.39,-5.06l5.39,-4.96l5.4,-4.84l5.38,-4.74l5.38,-4.62l5.37,-4.52l5.35,-4.39l5.31,-4.28l5.3,-4.18l5.26,-4.06l5.2,-3.93l5.14,-3.81l5.12,-3.72l5.07,-3.59l4.97,-3.46l4.92,-3.35l4.85,-3.24l4.78,-3.11l38.62,-0.18l-4.28,2.79l-4.39,2.92l-4.5,3.07l-4.59,3.18l-4.65,3.31l-4.74,3.44l-4.82,3.57l-4.88,3.69l-4.94,3.8l-4.96,3.92l-5.03,4.06l-5.07,4.17l-5.09,4.28l-5.12,4.4l-5.14,4.52l-5.16,4.62l-5.15,4.74l-5.17,4.86l-5.15,4.96l-5.14,5.08l-5.12,5.17l-5.11,5.31l-5.08,5.39l-5.02,5.5l-5.01,5.61l-4.94,5.71l-4.89,5.82l-4.85,5.92l-4.76,6.01l-4.7,6.12l-4.64,6.22l-4.53,6.31l0,0zm-99.51,202.15l-48.12,9.6l0,0l1.78,-4.71l1.87,-4.93l1.94,-5.11l2.03,-5.31l2.13,-5.47l2.2,-5.64l2.3,-5.8l2.39,-5.93l2.46,-6.08l2.56,-6.21l2.65,-6.32l2.73,-6.42l2.82,-6.52l2.91,-6.62l3,-6.68l3.09,-6.76l3.18,-6.82l3.26,-6.87l3.36,-6.91l3.45,-6.93l3.53,-6.97l3.64,-6.97l3.72,-6.98l3.81,-6.96l3.9,-6.96l4.01,-6.93l4.09,-6.88l4.19,-6.86l4.28,-6.79l4.38,-6.74l4.48,-6.67l4.57,-6.58l46.92,-7.42l-4.45,6.42l-4.38,6.51l-4.28,6.58l-4.2,6.67l-4.11,6.72l-4.03,6.78l-3.93,6.81l-3.84,6.86l-3.77,6.88l-3.68,6.88l-3.58,6.89l-3.51,6.89l-3.41,6.87l-3.32,6.83l-3.24,6.81l-3.14,6.76l-3.07,6.7l-2.98,6.64l-2.89,6.56l-2.8,6.48l-2.71,6.38l-2.63,6.28l-2.54,6.17l-2.46,6.04l-2.37,5.91l-2.28,5.76l-2.2,5.62l-2.11,5.45l-2.03,5.27l-1.94,5.11l-1.85,4.91l-1.78,4.71l0,0zm-27.98,74l-47.84,8.96l0,0.01l0.47,-1.01l0.48,-1.06l0.48,-1.06l0.48,-1.1l0.49,-1.14l0.48,-1.18l0.5,-1.24l0.52,-1.29l0.52,-1.36l0.56,-1.43l0.57,-1.5l0.6,-1.59l0.63,-1.68l0.66,-1.78l0.68,-1.86l0.73,-1.99l0.77,-2.09l0.8,-2.2l0.85,-2.33l0.9,-2.47l0.95,-2.61l1,-2.74l1.06,-2.89l1.11,-3.05l1.18,-3.21l1.24,-3.38l1.32,-3.55l1.39,-3.73l1.45,-3.91l1.53,-4.12l1.61,-4.3l1.69,-4.52l48.12,-9.6l-1.69,4.5l-1.61,4.3l-1.53,4.1l-1.45,3.91l-1.39,3.73l-1.3,3.55l-1.24,3.36l-1.18,3.21l-1.11,3.05l-1.06,2.89l-1,2.74l-0.95,2.59l-0.9,2.47l-0.85,2.33l-0.8,2.22l-0.77,2.09l-0.73,1.99l-0.7,1.88l-0.66,1.78l-0.63,1.7l-0.6,1.61l-0.59,1.54l-0.56,1.45l-0.54,1.4l-0.54,1.35l-0.52,1.28l-0.52,1.24l-0.51,1.2l-0.5,1.18l-0.52,1.14l-0.5,1.1l-0.53,1.11l0,0.01zm-19.46,30.71l-46.82,7.28l0.64,-0.89l0.63,-0.85l0.61,-0.86l0.65,-0.89l0.63,-0.86l0.61,-0.86l0.62,-0.86l0.61,-0.87l0.63,-0.89l0.59,-0.84l0.61,-0.89l0.62,-0.88l0.59,-0.87l0.6,-0.88l0.59,-0.89l0.59,-0.88l0.57,-0.87l0.58,-0.92l0.58,-0.9l0.55,-0.9l0.58,-0.92l0.54,-0.91l0.56,-0.93l0.53,-0.93l0.55,-0.96l0.54,-0.94l0.51,-0.94l0.52,-0.99l0.52,-0.98l0.5,-0.97l0.5,-1l0.49,-1.01l47.84,-8.96l-0.53,1.09l-0.54,1.08l-0.54,1.07l-0.56,1.06l-0.56,1.03l-0.57,1.04l-0.58,1.04l-0.57,1l-0.59,1.01l-0.6,1.01l-0.6,0.99l-0.6,0.98l-0.61,0.98l-0.62,0.96l-0.6,0.94l-0.63,0.97l-0.63,0.96l-0.63,0.93l-0.62,0.92l-0.65,0.95l-0.62,0.9l-0.63,0.91l-0.65,0.92l-0.63,0.89l-0.63,0.89l-0.64,0.9l-0.65,0.9l-0.65,0.9l-0.61,0.85l-0.65,0.9l-0.65,0.89l-0.62,0.85zm0,0c-3.5,4.82 -16.83,10.36 -29.75,12.37c-12.92,2.01 -20.57,-0.27 -17.07,-5.09l46.82,-7.28z" id="svg_11"/>
   </g>
   <g id="svg_12">
    <path class="fil1" d="m5421.42,1744.67c6.7,1.97 2.73,7.5 -8.86,12.33c-11.59,4.83 -26.44,7.16 -33.14,5.19l42,-17.52zm-154.26,-32.55l45.8,-15.86l0,0l4.39,2.8l4.29,2.68l4.21,2.56l4.11,2.44l4.02,2.33l3.94,2.22l3.86,2.12l3.78,2.02l3.71,1.93l3.63,1.83l3.56,1.74l3.51,1.67l3.42,1.58l3.37,1.5l3.32,1.44l3.26,1.37l3.22,1.31l3.17,1.24l3.12,1.19l3.1,1.14l3.05,1.11l3.02,1.04l3,1.02l2.97,0.99l2.95,0.95l2.94,0.93l2.92,0.9l2.93,0.89l2.92,0.88l2.92,0.87l2.92,0.87l2.93,0.85l-42,17.52l-2.93,-0.87l-2.96,-0.87l-2.98,-0.89l-2.98,-0.9l-2.99,-0.91l-3.04,-0.94l-3.06,-0.97l-3.09,-0.99l-3.11,-1.03l-3.14,-1.06l-3.18,-1.12l-3.21,-1.15l-3.24,-1.2l-3.3,-1.25l-3.33,-1.32l-3.38,-1.37l-3.42,-1.43l-3.48,-1.5l-3.53,-1.58l-3.58,-1.66l-3.63,-1.73l-3.7,-1.8l-3.77,-1.91l-3.83,-1.99l-3.9,-2.08l-3.96,-2.18l-4.06,-2.28l-4.12,-2.39l-4.21,-2.5l-4.29,-2.62l-4.39,-2.72l-4.47,-2.86l0,0zm-161.71,-152.96l47.68,-14.12l0,0l4.58,6.36l4.66,6.28l4.75,6.18l4.82,6.08l4.89,5.98l4.95,5.87l5.01,5.79l5.05,5.67l5.1,5.58l5.14,5.46l5.17,5.36l5.2,5.26l5.23,5.16l5.23,5.03l5.24,4.93l5.25,4.83l5.24,4.71l5.24,4.6l5.23,4.49l5.2,4.37l5.17,4.26l5.14,4.14l5.1,4.02l5.06,3.91l5.02,3.79l4.95,3.67l4.89,3.54l4.83,3.43l4.75,3.31l4.67,3.18l4.58,3.05l4.49,2.93l-45.8,15.86l-4.57,-2.97l-4.66,-3.11l-4.75,-3.24l-4.81,-3.35l-4.89,-3.47l-4.97,-3.6l-5.01,-3.71l-5.08,-3.85l-5.12,-3.95l-5.16,-4.08l-5.22,-4.18l-5.23,-4.32l-5.26,-4.41l-5.27,-4.55l-5.3,-4.64l-5.3,-4.77l-5.31,-4.87l-5.3,-4.99l-5.29,-5.09l-5.27,-5.2l-5.26,-5.32l-5.23,-5.42l-5.18,-5.52l-5.16,-5.64l-5.11,-5.73l-5.05,-5.83l-5.01,-5.95l-4.93,-6.04l-4.88,-6.14l-4.79,-6.24l-4.72,-6.34l-4.62,-6.44l0,0zm-100.4,-203.75l48.24,-13.1l0,0l1.77,4.71l1.86,4.91l1.94,5.11l2.04,5.28l2.11,5.46l2.2,5.62l2.29,5.77l2.37,5.91l2.46,6.05l2.55,6.18l2.62,6.29l2.73,6.39l2.8,6.49l2.9,6.57l2.98,6.65l3.07,6.71l3.16,6.78l3.24,6.82l3.33,6.86l3.42,6.88l3.51,6.91l3.6,6.91l3.69,6.91l3.78,6.9l3.86,6.89l3.95,6.84l4.05,6.8l4.13,6.77l4.22,6.7l4.31,6.63l4.41,6.56l4.49,6.47l-47.68,14.12l-4.53,-6.53l-4.45,-6.62l-4.35,-6.69l-4.26,-6.76l-4.17,-6.81l-4.07,-6.86l-3.99,-6.9l-3.88,-6.93l-3.8,-6.94l-3.71,-6.95l-3.62,-6.95l-3.53,-6.95l-3.44,-6.92l-3.35,-6.88l-3.26,-6.86l-3.18,-6.8l-3.07,-6.75l-3,-6.67l-2.9,-6.61l-2.82,-6.51l-2.73,-6.41l-2.64,-6.31l-2.55,-6.2l-2.48,-6.07l-2.37,-5.93l-2.29,-5.79l-2.22,-5.64l-2.11,-5.46l-2.04,-5.3l-1.94,-5.11l-1.86,-4.93l-1.79,-4.71l0,0zm-27.75,-73.5l48.08,-13.46l0,0.01l0.51,1.08l0.5,1.1l0.51,1.11l0.5,1.16l0.51,1.19l0.5,1.24l0.52,1.26l0.53,1.33l0.54,1.39l0.56,1.45l0.58,1.52l0.61,1.61l0.63,1.7l0.66,1.78l0.69,1.88l0.73,1.99l0.76,2.09l0.81,2.21l0.85,2.34l0.9,2.46l0.95,2.6l1,2.74l1.05,2.9l1.12,3.03l1.18,3.22l1.24,3.37l1.31,3.55l1.38,3.72l1.45,3.92l1.53,4.09l1.61,4.31l1.69,4.51l-48.24,13.1l-1.69,-4.51l-1.61,-4.31l-1.53,-4.11l-1.45,-3.92l-1.38,-3.72l-1.31,-3.55l-1.24,-3.39l-1.18,-3.2l-1.12,-3.05l-1.05,-2.9l-1,-2.74l-0.95,-2.6l-0.9,-2.46l-0.85,-2.34l-0.81,-2.21l-0.76,-2.09l-0.73,-1.97l-0.69,-1.88l-0.66,-1.78l-0.63,-1.68l-0.59,-1.59l-0.58,-1.5l-0.56,-1.45l-0.52,-1.37l-0.53,-1.29l-0.5,-1.26l-0.5,-1.2l-0.49,-1.15l-0.48,-1.1l-0.49,-1.09l-0.48,-1.06l-0.49,-1.04l0,0.01zm-18.73,-29.52l47.64,-14.18l0.63,0.86l0.64,0.88l0.64,0.89l0.62,0.86l0.65,0.89l0.63,0.88l0.64,0.89l0.62,0.89l0.64,0.89l0.62,0.9l0.62,0.89l0.63,0.9l0.63,0.92l0.61,0.91l0.62,0.92l0.62,0.93l0.61,0.95l0.59,0.93l0.61,0.94l0.59,0.96l0.6,0.97l0.58,0.97l0.59,0.97l0.57,1l0.57,0.99l0.57,1.01l0.55,1.02l0.55,1.02l0.55,1.04l0.53,1.04l0.53,1.06l0.52,1.07l-48.08,13.46l-0.5,-1.03l-0.51,-1.02l-0.51,-1l-0.53,-1l-0.53,-1l-0.53,-0.98l-0.55,-0.97l-0.55,-0.97l-0.55,-0.94l-0.57,-0.95l-0.56,-0.95l-0.58,-0.93l-0.57,-0.92l-0.59,-0.92l-0.59,-0.93l-0.59,-0.89l-0.6,-0.91l-0.6,-0.9l-0.61,-0.89l-0.61,-0.9l-0.61,-0.88l-0.62,-0.89l-0.62,-0.88l-0.62,-0.89l-0.62,-0.87l-0.62,-0.87l-0.63,-0.88l-0.63,-0.87l-0.64,-0.88l-0.62,-0.87l-0.64,-0.86l-0.63,-0.88zm0,0c-2.51,-3.45 6.12,-9.44 19.27,-13.35c13.15,-3.91 25.86,-4.28 28.37,-0.83l-47.64,14.18z" id="svg_13"/>
   </g>
   <g id="svg_14">
    <path class="fil1" d="m4982.7,1738.92c-0.01,4.13 -10.88,10.08 -24.27,13.27c-13.39,3.19 -24.24,2.44 -24.23,-1.69l48.5,-11.58zm-46.95,-598.26l48.5,-11.58l0,0l-0.03,12.67l-0.03,13.27l-0.04,13.87l-0.04,14.43l-0.03,14.98l-0.04,15.52l-0.04,16.02l-0.04,16.51l-0.05,16.99l-0.04,17.44l-0.05,17.87l-0.04,18.28l-0.05,18.67l-0.05,19.05l-0.05,19.4l-0.05,19.74l-0.05,20.05l-0.05,20.34l-0.05,20.62l-0.05,20.87l-0.06,21.11l-0.05,21.33l-0.06,21.52l-0.05,21.7l-0.06,21.85l-0.06,22l-0.05,22.11l-0.06,22.21l-0.06,22.28l-0.05,22.35l-0.06,22.39l-0.06,22.4l-48.5,11.58l0.06,-22.4l0.06,-22.39l0.05,-22.35l0.06,-22.28l0.06,-22.21l0.05,-22.11l0.06,-22l0.06,-21.85l0.05,-21.7l0.06,-21.52l0.05,-21.33l0.06,-21.11l0.05,-20.87l0.05,-20.62l0.05,-20.34l0.05,-20.05l0.05,-19.74l0.05,-19.4l0.05,-19.05l0.05,-18.67l0.04,-18.28l0.05,-17.87l0.04,-17.44l0.05,-16.99l0.04,-16.51l0.04,-16.02l0.04,-15.52l0.03,-14.98l0.04,-14.43l0.04,-13.87l0.03,-13.27l0.03,-12.67l0,0zm0.55,-200.43l48.5,-11.58l0,0l-0.01,4.08l-0.01,3.99l-0.01,3.92l-0.01,3.87l-0.01,3.86l-0.01,3.85l-0.01,3.88l-0.01,3.93l-0.01,4l-0.01,4.1l-0.02,4.22l-0.01,4.34l-0.01,4.52l-0.01,4.7l-0.02,4.92l-0.01,5.14l-0.02,5.41l-0.01,5.69l-0.02,5.98l-0.02,6.32l-0.02,6.67l-0.02,7.03l-0.02,7.44l-0.02,7.85l-0.02,8.3l-0.02,8.76l-0.03,9.25l-0.03,9.77l-0.03,10.3l-0.03,10.86l-0.03,11.43l-0.03,12.05l-48.5,11.58l0.03,-12.05l0.03,-11.43l0.03,-10.86l0.03,-10.3l0.03,-9.77l0.03,-9.25l0.02,-8.76l0.02,-8.3l0.02,-7.85l0.02,-7.44l0.02,-7.03l0.02,-6.67l0.02,-6.32l0.02,-5.98l0.01,-5.69l0.02,-5.41l0.01,-5.14l0.02,-4.92l0.01,-4.7l0.01,-4.52l0.01,-4.36l0.02,-4.22l0.01,-4.08l0.01,-4l0.01,-3.93l0.01,-3.88l0.01,-3.85l0.01,-3.86l0.01,-3.87l0.01,-3.92l0.01,-3.99l0.01,-4.08l0,0zm0.43,-171.31l48.5,-11.58l-0.01,5.96l-0.02,5.96l-0.01,5.95l-0.02,5.95l-0.01,5.92l-0.02,5.91l-0.01,5.89l-0.02,5.86l-0.01,5.84l-0.02,5.8l-0.01,5.76l-0.02,5.73l-0.01,5.69l-0.02,5.63l-0.01,5.59l-0.01,5.53l-0.02,5.48l-0.01,5.42l-0.01,5.35l-0.02,5.28l-0.01,5.22l-0.01,5.13l-0.02,5.06l-0.01,4.98l-0.01,4.89l-0.01,4.8l-0.01,4.71l-0.02,4.61l-0.01,4.51l-0.01,4.41l-0.01,4.3l-0.01,4.19l-48.5,11.58l0.01,-4.19l0.01,-4.3l0.01,-4.41l0.01,-4.51l0.02,-4.61l0.01,-4.71l0.01,-4.8l0.01,-4.89l0.01,-4.98l0.02,-5.06l0.01,-5.13l0.01,-5.22l0.02,-5.28l0.01,-5.35l0.01,-5.42l0.02,-5.48l0.01,-5.53l0.01,-5.59l0.02,-5.63l0.01,-5.69l0.02,-5.73l0.01,-5.76l0.02,-5.8l0.01,-5.84l0.02,-5.86l0.01,-5.89l0.02,-5.91l0.01,-5.92l0.02,-5.95l0.01,-5.95l0.02,-5.96l0.01,-5.96zm0,0c0.01,-4.13 10.88,-10.08 24.27,-13.27c13.39,-3.19 24.24,-2.44 24.23,1.69l-48.5,11.58z" id="svg_15"/>
   </g>
   <g id="svg_16">
    <path class="fil1" d="m4511.37,768.19c-6.7,-1.97 -2.73,-7.5 8.86,-12.33c11.59,-4.83 26.44,-7.16 33.14,-5.19l-42,17.52zm154.27,32.56l-45.8,15.86l0,0l-4.39,-2.8l-4.29,-2.68l-4.21,-2.56l-4.11,-2.44l-4.03,-2.33l-3.94,-2.23l-3.86,-2.12l-3.78,-2.02l-3.7,-1.92l-3.64,-1.83l-3.57,-1.75l-3.48,-1.66l-3.43,-1.58l-3.38,-1.5l-3.33,-1.44l-3.26,-1.38l-3.2,-1.3l-3.18,-1.24l-3.13,-1.2l-3.09,-1.14l-3.05,-1.11l-3.02,-1.04l-3,-1.02l-2.97,-0.99l-2.95,-0.95l-2.94,-0.93l-2.92,-0.9l-2.93,-0.89l-2.92,-0.88l-2.92,-0.87l-2.92,-0.87l-2.93,-0.85l42,-17.52l2.93,0.87l2.96,0.87l2.98,0.89l2.98,0.9l2.99,0.91l3.04,0.94l3.06,0.97l3.09,0.99l3.11,1.03l3.14,1.06l3.18,1.12l3.21,1.15l3.25,1.2l3.29,1.26l3.32,1.3l3.4,1.38l3.42,1.44l3.47,1.5l3.52,1.58l3.59,1.64l3.64,1.74l3.69,1.81l3.76,1.89l3.84,2l3.9,2.08l3.98,2.18l4.04,2.29l4.13,2.39l4.21,2.5l4.29,2.62l4.39,2.72l4.47,2.86l0,0zm161.71,152.95l-47.68,14.12l0,0l-4.58,-6.36l-4.67,-6.28l-4.75,-6.18l-4.81,-6.08l-4.9,-5.98l-4.94,-5.88l-5.01,-5.77l-5.06,-5.68l-5.09,-5.58l-5.15,-5.46l-5.17,-5.36l-5.19,-5.26l-5.23,-5.15l-5.23,-5.04l-5.25,-4.93l-5.24,-4.83l-5.25,-4.71l-5.23,-4.6l-5.23,-4.48l-5.2,-4.38l-5.18,-4.25l-5.14,-4.15l-5.09,-4.02l-5.07,-3.91l-5.01,-3.79l-4.95,-3.67l-4.89,-3.54l-4.83,-3.43l-4.74,-3.3l-4.68,-3.18l-4.58,-3.05l-4.49,-2.93l45.8,-15.86l4.57,2.97l4.66,3.11l4.74,3.24l4.82,3.34l4.89,3.47l4.97,3.6l5.01,3.73l5.07,3.83l5.13,3.95l5.17,4.08l5.2,4.19l5.24,4.31l5.26,4.42l5.27,4.54l5.29,4.64l5.31,4.77l5.3,4.87l5.31,4.99l5.29,5.1l5.27,5.19l5.25,5.32l5.23,5.42l5.19,5.52l5.15,5.64l5.12,5.72l5.05,5.85l5,5.94l4.94,6.04l4.87,6.14l4.79,6.24l4.73,6.34l4.62,6.44l0,0zm100.39,203.75l-48.24,13.1l0,0l-1.77,-4.71l-1.86,-4.91l-1.94,-5.11l-2.03,-5.28l-2.12,-5.46l-2.19,-5.62l-2.29,-5.77l-2.38,-5.91l-2.45,-6.05l-2.55,-6.18l-2.63,-6.29l-2.72,-6.39l-2.8,-6.49l-2.9,-6.57l-2.98,-6.65l-3.07,-6.71l-3.16,-6.78l-3.24,-6.82l-3.33,-6.86l-3.42,-6.88l-3.51,-6.91l-3.6,-6.91l-3.69,-6.91l-3.78,-6.9l-3.86,-6.89l-3.95,-6.84l-4.05,-6.8l-4.13,-6.77l-4.22,-6.7l-4.31,-6.63l-4.41,-6.56l-4.49,-6.47l47.68,-14.12l4.53,6.53l4.45,6.62l4.35,6.69l4.26,6.76l4.17,6.81l4.07,6.86l3.99,6.9l3.88,6.93l3.8,6.94l3.71,6.95l3.62,6.95l3.53,6.95l3.44,6.92l3.35,6.88l3.26,6.86l3.18,6.8l3.07,6.75l3,6.67l2.9,6.61l2.82,6.51l2.72,6.41l2.65,6.31l2.55,6.2l2.47,6.07l2.38,5.93l2.29,5.79l2.21,5.64l2.12,5.46l2.03,5.3l1.94,5.11l1.86,4.93l1.79,4.71l0,0zm27.76,73.5l-48.08,13.46l0,-0.01l-0.51,-1.08l-0.5,-1.1l-0.51,-1.11l-0.5,-1.16l-0.51,-1.19l-0.5,-1.24l-0.52,-1.26l-0.53,-1.33l-0.54,-1.39l-0.56,-1.45l-0.58,-1.52l-0.61,-1.61l-0.63,-1.7l-0.66,-1.78l-0.69,-1.88l-0.73,-1.98l-0.77,-2.1l-0.8,-2.21l-0.85,-2.34l-0.9,-2.46l-0.95,-2.6l-1,-2.74l-1.06,-2.9l-1.11,-3.04l-1.18,-3.21l-1.24,-3.37l-1.31,-3.55l-1.39,-3.72l-1.45,-3.92l-1.53,-4.09l-1.61,-4.31l-1.69,-4.51l48.24,-13.1l1.69,4.51l1.61,4.31l1.53,4.11l1.45,3.92l1.39,3.72l1.31,3.55l1.24,3.39l1.18,3.21l1.11,3.04l1.06,2.9l1,2.74l0.95,2.6l0.9,2.46l0.85,2.34l0.8,2.21l0.77,2.08l0.73,1.98l0.69,1.88l0.66,1.78l0.63,1.68l0.59,1.59l0.58,1.5l0.56,1.45l0.52,1.37l0.53,1.29l0.5,1.26l0.5,1.2l0.49,1.15l0.48,1.1l0.49,1.09l0.48,1.06l0.49,1.04l0,-0.01zm18.73,29.52l-47.64,14.18l-0.63,-0.86l-0.64,-0.88l-0.63,-0.88l-0.64,-0.87l-0.64,-0.89l-0.63,-0.88l-0.63,-0.88l-0.64,-0.9l-0.63,-0.89l-0.63,-0.89l-0.62,-0.9l-0.63,-0.91l-0.62,-0.92l-0.61,-0.9l-0.62,-0.92l-0.62,-0.93l-0.61,-0.94l-0.6,-0.94l-0.6,-0.94l-0.6,-0.96l-0.59,-0.97l-0.59,-0.97l-0.58,-0.98l-0.57,-0.99l-0.57,-0.99l-0.57,-1.01l-0.55,-1.02l-0.55,-1.02l-0.55,-1.04l-0.53,-1.04l-0.53,-1.06l-0.52,-1.07l48.08,-13.46l0.5,1.03l0.51,1.02l0.51,1l0.53,1l0.53,1l0.53,0.98l0.55,0.97l0.55,0.97l0.55,0.95l0.56,0.94l0.57,0.95l0.57,0.93l0.58,0.92l0.58,0.92l0.6,0.92l0.59,0.9l0.6,0.91l0.6,0.9l0.61,0.9l0.6,0.9l0.61,0.87l0.62,0.88l0.63,0.89l0.61,0.89l0.62,0.86l0.63,0.88l0.63,0.88l0.62,0.87l0.64,0.87l0.63,0.88l0.64,0.86l0.63,0.88zm0,0c2.51,3.45 -6.12,9.43 -19.27,13.34c-13.15,3.91 -25.86,4.29 -28.37,0.84l47.64,-14.18z" id="svg_17"/>
   </g>
   <g id="svg_18">
    <path class="fil1" d="m4515,1754.34c-13.18,3.87 -25.79,4.18 -28.14,0.68c-2.35,-3.5 6.42,-9.49 19.6,-13.36l8.54,12.68zm86.78,-55.49l38.62,-0.18l0.01,-0.01l-4.69,3l-4.62,2.88l-4.55,2.76l-4.48,2.67l-4.45,2.57l-4.38,2.47l-4.27,2.35l-4.32,2.31l-4.26,2.21l-4.16,2.1l-4.22,2.07l-4.11,1.95l-4.07,1.88l-4.13,1.84l-4.05,1.76l-4.01,1.67l-3.97,1.62l-3.98,1.57l-3.85,1.46l-3.85,1.43l-3.89,1.39l-3.73,1.3l-3.61,1.23l-3.65,1.21l-3.57,1.15l-3.45,1.09l-3.31,1.02l-3.35,1.03l-3.29,0.98l-3.03,0.91l-3.12,0.92l-2.99,0.88l-8.54,-12.68l2.87,-0.84l2.76,-0.82l2.87,-0.85l2.61,-0.78l2.57,-0.79l2.65,-0.82l2.55,-0.81l2.47,-0.79l2.43,-0.81l2.53,-0.85l2.47,-0.86l2.37,-0.85l2.49,-0.93l2.57,-0.98l2.52,-0.99l2.63,-1.06l2.67,-1.13l2.75,-1.18l2.77,-1.24l2.93,-1.36l3.03,-1.43l3.04,-1.49l3.24,-1.64l3.28,-1.69l3.36,-1.81l3.55,-1.95l3.62,-2.03l3.69,-2.15l3.84,-2.27l3.95,-2.42l4.06,-2.52l4.17,-2.66l0.01,-0.01zm156.62,-148.47l46.92,-7.42l0,0l-4.67,6.49l-4.76,6.4l-4.84,6.3l-4.92,6.21l-4.99,6.1l-5.05,6l-5.12,5.91l-5.17,5.81l-5.22,5.7l-5.26,5.59l-5.29,5.49l-5.32,5.39l-5.36,5.28l-5.37,5.18l-5.4,5.07l-5.38,4.94l-5.4,4.85l-5.38,4.74l-5.38,4.62l-5.37,4.52l-5.35,4.39l-5.31,4.28l-5.3,4.18l-5.26,4.06l-5.2,3.93l-5.14,3.81l-5.12,3.72l-5.07,3.59l-4.97,3.46l-4.92,3.35l-4.85,3.24l-4.78,3.11l-38.62,0.18l4.28,-2.79l4.39,-2.92l4.5,-3.07l4.59,-3.18l4.65,-3.31l4.74,-3.44l4.82,-3.57l4.88,-3.69l4.94,-3.8l4.96,-3.92l5.03,-4.06l5.07,-4.17l5.09,-4.28l5.12,-4.4l5.14,-4.52l5.16,-4.63l5.16,-4.74l5.16,-4.85l5.15,-4.96l5.14,-5.08l5.12,-5.17l5.11,-5.31l5.08,-5.39l5.02,-5.5l5.01,-5.61l4.94,-5.71l4.89,-5.82l4.85,-5.92l4.76,-6.01l4.7,-6.12l4.64,-6.22l4.53,-6.31l0,0zm99.51,-202.15l48.12,-9.6l0,0l-1.78,4.71l-1.87,4.93l-1.94,5.11l-2.03,5.31l-2.13,5.47l-2.2,5.64l-2.3,5.8l-2.39,5.93l-2.46,6.08l-2.56,6.21l-2.65,6.32l-2.73,6.42l-2.82,6.52l-2.91,6.62l-3,6.68l-3.08,6.76l-3.19,6.82l-3.26,6.87l-3.36,6.91l-3.45,6.93l-3.53,6.97l-3.64,6.97l-3.72,6.98l-3.81,6.96l-3.9,6.96l-4.01,6.93l-4.09,6.88l-4.19,6.86l-4.28,6.79l-4.38,6.74l-4.48,6.67l-4.57,6.58l-46.92,7.42l4.45,-6.42l4.38,-6.51l4.28,-6.58l4.2,-6.67l4.11,-6.72l4.03,-6.78l3.93,-6.81l3.84,-6.86l3.77,-6.88l3.68,-6.88l3.58,-6.89l3.51,-6.89l3.41,-6.87l3.32,-6.83l3.24,-6.81l3.15,-6.76l3.06,-6.7l2.98,-6.64l2.89,-6.56l2.8,-6.48l2.71,-6.38l2.63,-6.28l2.54,-6.17l2.46,-6.04l2.37,-5.91l2.28,-5.76l2.2,-5.62l2.11,-5.45l2.03,-5.27l1.94,-5.11l1.85,-4.91l1.78,-4.71l0,0zm27.98,-74l47.84,-8.96l0,-0.01l-0.47,1.01l-0.48,1.06l-0.48,1.06l-0.48,1.1l-0.49,1.14l-0.48,1.18l-0.5,1.24l-0.52,1.29l-0.52,1.36l-0.56,1.43l-0.57,1.5l-0.6,1.59l-0.63,1.68l-0.66,1.78l-0.68,1.87l-0.73,1.97l-0.77,2.09l-0.8,2.21l-0.85,2.33l-0.9,2.47l-0.95,2.61l-1,2.74l-1.06,2.89l-1.11,3.05l-1.18,3.21l-1.24,3.38l-1.32,3.55l-1.39,3.73l-1.45,3.91l-1.53,4.12l-1.61,4.3l-1.69,4.52l-48.12,9.6l1.69,-4.5l1.61,-4.3l1.53,-4.1l1.45,-3.91l1.39,-3.73l1.3,-3.55l1.24,-3.36l1.18,-3.21l1.11,-3.05l1.06,-2.89l1,-2.74l0.95,-2.59l0.9,-2.47l0.85,-2.33l0.8,-2.21l0.77,-2.11l0.73,-1.99l0.7,-1.87l0.66,-1.78l0.63,-1.7l0.6,-1.61l0.59,-1.54l0.56,-1.45l0.54,-1.4l0.54,-1.35l0.52,-1.28l0.52,-1.24l0.51,-1.2l0.5,-1.18l0.52,-1.14l0.5,-1.1l0.53,-1.11l0,-0.01zm19.46,-30.71l46.82,-7.28l-0.64,0.89l-0.63,0.85l-0.61,0.86l-0.65,0.89l-0.63,0.86l-0.61,0.86l-0.62,0.86l-0.61,0.87l-0.63,0.89l-0.59,0.84l-0.61,0.89l-0.62,0.88l-0.59,0.87l-0.6,0.88l-0.58,0.87l-0.59,0.9l-0.59,0.89l-0.57,0.9l-0.58,0.9l-0.55,0.9l-0.58,0.92l-0.54,0.91l-0.56,0.93l-0.53,0.93l-0.55,0.96l-0.54,0.94l-0.51,0.94l-0.52,0.99l-0.52,0.98l-0.5,0.97l-0.5,1l-0.49,1.01l-47.84,8.96l0.53,-1.09l0.54,-1.08l0.54,-1.07l0.56,-1.06l0.56,-1.03l0.57,-1.04l0.58,-1.04l0.57,-1l0.59,-1.01l0.6,-1.01l0.6,-0.99l0.6,-0.98l0.61,-0.98l0.62,-0.96l0.61,-0.96l0.63,-0.95l0.61,-0.94l0.64,-0.95l0.62,-0.92l0.65,-0.95l0.62,-0.9l0.63,-0.91l0.65,-0.92l0.63,-0.89l0.63,-0.89l0.64,-0.9l0.65,-0.9l0.65,-0.9l0.61,-0.85l0.65,-0.9l0.65,-0.89l0.62,-0.85zm0,0c3.5,-4.82 16.83,-10.36 29.75,-12.37c12.92,-2.01 20.57,0.27 17.07,5.09l-46.82,7.28z" id="svg_19"/>
   </g>
   <g id="svg_20">
    <path class="fil1" d="m5598.37,1742.84c0.01,4.12 -10.84,10.07 -24.23,13.27c-13.39,3.2 -24.26,2.45 -24.27,-1.67l48.5,-11.6zm-50.06,-602.38l48.5,-11.6l0,0l0.03,12.75l0.03,13.37l0.04,13.95l0.04,14.54l0.03,15.08l0.04,15.62l0.04,16.13l0.04,16.63l0.05,17.1l0.04,17.55l0.05,18l0.04,18.4l0.05,18.8l0.05,19.18l0.05,19.53l0.05,19.87l0.05,20.19l0.05,20.48l0.05,20.76l0.06,21.01l0.05,21.26l0.06,21.47l0.05,21.66l0.06,21.85l0.05,22l0.06,22.15l0.06,22.26l0.06,22.36l0.05,22.44l0.06,22.49l0.06,22.54l0.06,22.56l-48.5,11.6l-0.06,-22.56l-0.06,-22.54l-0.06,-22.49l-0.05,-22.44l-0.06,-22.36l-0.06,-22.26l-0.06,-22.15l-0.05,-22l-0.06,-21.85l-0.05,-21.66l-0.06,-21.47l-0.05,-21.26l-0.06,-21.01l-0.05,-20.76l-0.05,-20.48l-0.05,-20.19l-0.05,-19.87l-0.05,-19.53l-0.05,-19.18l-0.05,-18.8l-0.04,-18.4l-0.05,-18l-0.04,-17.55l-0.05,-17.1l-0.04,-16.63l-0.04,-16.13l-0.04,-15.62l-0.03,-15.08l-0.04,-14.54l-0.04,-13.95l-0.03,-13.37l-0.03,-12.75l0,0zm-0.55,-201.79l48.5,-11.6l0,0l0.01,4.11l0.01,4.01l0.01,3.95l0.01,3.9l0.01,3.88l0.01,3.88l0.01,3.91l0.01,3.95l0.01,4.03l0.02,4.12l0.01,4.24l0.01,4.38l0.01,4.55l0.02,4.74l0.01,4.95l0.02,5.18l0.01,5.44l0.02,5.73l0.01,6.02l0.02,6.36l0.02,6.71l0.02,7.09l0.02,7.49l0.02,7.9l0.02,8.36l0.03,8.82l0.02,9.31l0.03,9.83l0.03,10.37l0.03,10.93l0.03,11.52l0.03,12.13l-48.5,11.6l-0.03,-12.13l-0.03,-11.52l-0.03,-10.93l-0.03,-10.37l-0.03,-9.83l-0.02,-9.31l-0.03,-8.82l-0.02,-8.36l-0.02,-7.9l-0.02,-7.49l-0.02,-7.09l-0.02,-6.71l-0.02,-6.36l-0.01,-6.02l-0.02,-5.73l-0.01,-5.44l-0.02,-5.18l-0.01,-4.95l-0.02,-4.74l-0.01,-4.55l-0.01,-4.38l-0.01,-4.24l-0.02,-4.12l-0.01,-4.03l-0.01,-3.95l-0.01,-3.91l-0.01,-3.88l-0.01,-3.88l-0.01,-3.9l-0.01,-3.95l-0.01,-4.01l-0.01,-4.11l0,0zm-0.43,-172.48l48.5,-11.6l0.01,6l0.02,6l0.01,6l0.02,5.98l0.01,5.97l0.02,5.95l0.01,5.93l0.02,5.9l0.01,5.87l0.02,5.84l0.01,5.81l0.02,5.77l0.01,5.72l0.02,5.68l0.01,5.62l0.01,5.57l0.02,5.52l0.01,5.45l0.01,5.39l0.02,5.32l0.01,5.24l0.01,5.18l0.02,5.09l0.01,5.01l0.01,4.92l0.01,4.84l0.01,4.74l0.02,4.64l0.01,4.54l0.01,4.44l0.01,4.33l0.01,4.22l-48.5,11.6l-0.01,-4.22l-0.01,-4.33l-0.01,-4.44l-0.01,-4.54l-0.02,-4.64l-0.01,-4.74l-0.01,-4.84l-0.01,-4.92l-0.01,-5.01l-0.02,-5.09l-0.01,-5.18l-0.01,-5.24l-0.02,-5.32l-0.01,-5.39l-0.01,-5.45l-0.02,-5.52l-0.01,-5.57l-0.01,-5.62l-0.02,-5.68l-0.01,-5.72l-0.02,-5.77l-0.01,-5.81l-0.02,-5.84l-0.01,-5.87l-0.02,-5.9l-0.01,-5.93l-0.02,-5.95l-0.01,-5.97l-0.02,-5.98l-0.01,-6l-0.02,-6l-0.01,-6zm0,0c-0.01,-4.12 10.84,-10.07 24.23,-13.27c13.39,-3.2 24.26,-2.45 24.27,1.67l-48.5,11.6z" id="svg_21"/>
   </g>
   <g id="svg_22">
    <path class="fil1" d="m5570.91,773.02c-10.58,0 -12.51,-4.24 -4.31,-9.46c8.2,-5.22 23.45,-9.46 34.03,-9.46l-29.72,18.92zm560.06,476.33l-48.5,11.58l0,0l-0.68,-25.18l-2,-24.84l-3.29,-24.49l-4.56,-24.1l-5.8,-23.67l-6.99,-23.22l-8.15,-22.74l-9.29,-22.22l-10.38,-21.68l-11.45,-21.09l-12.48,-20.48l-13.48,-19.85l-14.46,-19.17l-15.37,-18.47l-16.28,-17.74l-17.14,-16.96l-17.98,-16.17l-18.76,-15.34l-19.53,-14.48l-20.24,-13.59l-20.93,-12.65l-21.59,-11.71l-22.18,-10.72l-22.75,-9.71l-23.27,-8.66l-23.75,-7.58l-24.16,-6.47l-24.51,-5.34l-24.81,-4.19l-25.01,-3l-25.13,-1.8l-25.16,-0.6l29.72,-18.92l28.46,0.68l27.77,2l27.13,3.24l26.51,4.47l25.89,5.64l25.28,6.77l24.67,7.88l24.05,8.94l23.39,9.99l22.74,10.98l22.05,11.97l21.35,12.91l20.6,13.83l19.83,14.7l19.04,15.56l18.22,16.39l17.36,17.18l16.46,17.94l15.55,18.67l14.6,19.37l13.62,20.05l12.6,20.68l11.57,21.31l10.48,21.88l9.37,22.42l8.23,22.94l7.05,23.44l5.84,23.89l4.6,24.32l3.33,24.71l2.02,25.08l0.68,25.42l0,0zm-550.31,506.75l28.38,-18.9l24.27,-0.97l23.39,-2.04l22.5,-3.05l21.64,-3.97l20.95,-4.87l20.51,-5.8l20.27,-6.76l20.18,-7.8l20.13,-8.88l20.03,-9.97l19.82,-11.04l19.49,-12.09l19.08,-13.09l18.53,-14.03l17.94,-14.94l17.26,-15.81l16.53,-16.64l15.74,-17.42l14.89,-18.17l14.03,-18.89l13.1,-19.55l12.14,-20.22l11.15,-20.8l10.12,-21.4l9.04,-21.93l7.95,-22.45l6.81,-22.93l5.66,-23.38l4.45,-23.79l3.21,-24.18l1.96,-24.54l0.66,-24.87l48.5,-11.58l-0.66,25.11l-1.98,24.8l-3.25,24.46l-4.51,24.07l-5.72,23.68l-6.91,23.25l-8.07,22.79l-9.2,22.29l-10.3,21.78l-11.37,21.24l-12.42,20.66l-13.44,20.07l-14.43,19.43l-15.41,18.79l-16.36,18.12l-17.31,17.42l-18.22,16.69l-19.16,15.96l-20.09,15.21l-21.04,14.43l-22.03,13.65l-23.06,12.84l-24.13,12.01l-25.25,11.14l-26.38,10.18l-27.37,9.14l-28.19,7.96l-28.71,6.69l-28.94,5.31l-28.92,3.91l-28.81,2.52l-28.67,1.15zm0,0c-10.85,0.17 -13.3,-3.92 -5.47,-9.13c7.83,-5.21 23,-9.6 33.85,-9.77l-28.38,18.9z" id="svg_23"/>
   </g>
   <g id="svg_24">
    <path class="fil1" d="m1906.07,1045.45c-1.75,4.51 -13.94,10.31 -27.21,12.94c-13.27,2.63 -22.62,1.11 -20.87,-3.4l48.08,-9.54zm61.81,-162.76l44.2,-4.4l0,0l-5.82,5.45l-5.59,5.44l-5.35,5.41l-5.13,5.38l-4.92,5.37l-4.71,5.34l-4.51,5.33l-4.32,5.31l-4.13,5.28l-3.95,5.27l-3.79,5.25l-3.62,5.26l-3.47,5.22l-3.32,5.22l-3.18,5.19l-3.05,5.19l-2.92,5.19l-2.81,5.17l-2.7,5.16l-2.59,5.15l-2.51,5.15l-2.41,5.14l-2.34,5.14l-2.28,5.13l-2.21,5.13l-2.15,5.13l-2.11,5.12l-2.07,5.13l-2.03,5.12l-2.02,5.13l-2,5.13l-2,5.13l-48.08,9.54l2,-5.15l2,-5.13l2.02,-5.15l2.05,-5.16l2.09,-5.17l2.13,-5.18l2.17,-5.19l2.25,-5.19l2.3,-5.21l2.38,-5.22l2.47,-5.24l2.55,-5.25l2.65,-5.29l2.78,-5.28l2.87,-5.31l3.02,-5.33l3.13,-5.35l3.3,-5.37l3.42,-5.4l3.61,-5.42l3.76,-5.44l3.93,-5.47l4.13,-5.51l4.33,-5.52l4.52,-5.55l4.73,-5.59l4.95,-5.62l5.18,-5.65l5.41,-5.7l5.67,-5.71l5.91,-5.76l6.18,-5.79l0,0zm232.71,-162.04l37.74,0.38l0.01,-0.01l-5.34,3.31l-5.6,3.46l-5.87,3.63l-6.15,3.79l-6.37,3.94l-6.59,4.08l-6.79,4.22l-6.98,4.35l-7.13,4.46l-7.29,4.6l-7.42,4.71l-7.53,4.8l-7.62,4.91l-7.73,5.01l-7.78,5.08l-7.81,5.17l-7.84,5.23l-7.84,5.31l-7.85,5.36l-7.8,5.41l-7.77,5.46l-7.69,5.49l-7.61,5.53l-7.51,5.54l-7.4,5.58l-7.26,5.57l-7.1,5.58l-6.93,5.57l-6.74,5.57l-6.54,5.54l-6.31,5.52l-6.07,5.49l-44.2,4.4l6.43,-5.81l6.67,-5.84l6.9,-5.86l7.1,-5.85l7.27,-5.85l7.44,-5.84l7.58,-5.83l7.72,-5.8l7.81,-5.78l7.91,-5.73l7.99,-5.71l8.03,-5.64l8.08,-5.61l8.09,-5.52l8.08,-5.47l8.08,-5.39l8.03,-5.31l7.98,-5.22l7.89,-5.13l7.82,-5.03l7.71,-4.92l7.56,-4.79l7.43,-4.68l7.27,-4.56l7.08,-4.41l6.87,-4.26l6.65,-4.12l6.41,-3.96l6.13,-3.79l5.87,-3.63l5.58,-3.44l5.24,-3.25l0.01,-0.01zm98.68,24.23l-48.5,11.64l0,0l-0.08,-6.01l-0.08,-5.6l-0.1,-5.22l-0.12,-4.82l-0.16,-4.44l-0.21,-4.06l-0.25,-3.68l-0.33,-3.32l-0.4,-2.95l-0.46,-2.58l-0.56,-2.21l-0.62,-1.84l-0.68,-1.45l-0.71,-1.05l-0.62,-0.65l-0.31,-0.2l0.56,0.17l2.51,0.3l5.42,-0.24l7.04,-1.24l5.25,-1.47l2.26,-0.83l0.27,-0.11l-1.13,0.57l-1.99,1.06l-2.58,1.45l-3.04,1.78l-3.51,2.12l-3.92,2.4l-4.25,2.63l-4.64,2.89l-5,3.11l-37.74,-0.38l4.94,-3.07l4.68,-2.91l4.47,-2.77l4.22,-2.58l4.07,-2.46l4,-2.34l3.96,-2.23l4.03,-2.14l4.41,-2.17l5.35,-2.35l6.92,-2.57l9.47,-2.69l10.88,-1.92l8.88,-0.38l5.61,0.72l3.32,1.17l2.15,1.38l1.54,1.55l1.17,1.73l0.94,1.99l0.76,2.22l0.62,2.51l0.52,2.82l0.42,3.11l0.33,3.46l0.27,3.78l0.21,4.14l0.16,4.5l0.12,4.86l0.1,5.24l0.08,5.62l0.08,6.01l0,0zm-11.12,286.59l-48.44,10.8l0,0l1.22,-8.08l1.15,-8.36l1.05,-8.61l0.98,-8.83l0.91,-9.05l0.83,-9.23l0.75,-9.4l0.68,-9.53l0.62,-9.65l0.56,-9.75l0.5,-9.83l0.44,-9.88l0.38,-9.92l0.34,-9.92l0.29,-9.92l0.24,-9.88l0.2,-9.83l0.16,-9.74l0.12,-9.65l0.09,-9.54l0.06,-9.39l0.03,-9.22l0.01,-9.05l-0.02,-8.83l-0.03,-8.61l-0.05,-8.36l-0.06,-8.09l-0.07,-7.78l-0.08,-7.48l-0.08,-7.15l-0.08,-6.78l-0.08,-6.41l48.5,-11.64l0.08,6.41l0.08,6.78l0.08,7.15l0.08,7.48l0.07,7.8l0.06,8.09l0.05,8.38l0.03,8.61l0.02,8.85l-0.01,9.05l-0.03,9.24l-0.06,9.41l-0.09,9.54l-0.12,9.67l-0.16,9.76l-0.2,9.85l-0.24,9.9l-0.29,9.94l-0.34,9.94l-0.38,9.94l-0.44,9.92l-0.5,9.85l-0.56,9.79l-0.62,9.69l-0.7,9.57l-0.75,9.44l-0.83,9.27l-0.91,9.11l-0.98,8.89l-1.07,8.67l-1.15,8.44l-1.24,8.16l0,0zm-76.99,146.36l-40.06,1.14l-0.01,0.01l2.38,-1.68l2.41,-1.8l2.45,-1.91l2.44,-2l2.45,-2.13l2.48,-2.28l2.47,-2.4l2.48,-2.54l2.48,-2.71l2.47,-2.86l2.46,-3.02l2.44,-3.19l2.41,-3.35l2.4,-3.55l2.36,-3.74l2.33,-3.92l2.3,-4.12l2.24,-4.32l2.2,-4.53l2.16,-4.76l2.1,-4.96l2.05,-5.2l1.98,-5.43l1.92,-5.66l1.85,-5.91l1.79,-6.17l1.71,-6.41l1.65,-6.69l1.56,-6.94l1.49,-7.23l1.4,-7.5l1.31,-7.8l48.44,-10.8l-1.33,7.88l-1.42,7.6l-1.51,7.33l-1.58,7.06l-1.67,6.79l-1.75,6.55l-1.83,6.29l-1.89,6.05l-1.98,5.82l-2.04,5.59l-2.11,5.36l-2.18,5.16l-2.24,4.94l-2.3,4.75l-2.38,4.56l-2.42,4.36l-2.49,4.18l-2.54,4.02l-2.6,3.85l-2.65,3.69l-2.72,3.55l-2.76,3.4l-2.83,3.26l-2.88,3.13l-2.92,3.02l-2.99,2.9l-3.04,2.78l-3.09,2.69l-3.16,2.6l-3.17,2.47l-3.23,2.4l-3.28,2.32l-0.01,0.01zm-116.49,42.29l5.88,-16.24l2.87,-0.58l2.97,-0.6l2.81,-0.57l2.69,-0.56l2.57,-0.53l2.56,-0.56l2.54,-0.56l2.42,-0.54l2.29,-0.54l2.25,-0.55l2.29,-0.57l2.02,-0.53l2.13,-0.58l2,-0.57l1.88,-0.56l1.91,-0.59l1.85,-0.61l1.75,-0.6l1.8,-0.65l1.96,-0.74l1.82,-0.72l1.86,-0.77l1.87,-0.82l1.88,-0.86l2.03,-0.99l2.1,-1.06l2.1,-1.11l2.15,-1.2l2.2,-1.29l2.29,-1.41l2.32,-1.49l2.37,-1.6l40.06,-1.14l-3.31,2.24l-3.38,2.17l-3.43,2.11l-3.54,2.07l-3.59,2l-3.66,1.95l-3.68,1.86l-3.75,1.81l-3.9,1.8l-3.95,1.72l-3.96,1.65l-4,1.58l-3.88,1.46l-4.04,1.47l-4.11,1.4l-4.01,1.31l-3.95,1.23l-4,1.2l-3.88,1.09l-3.77,1.04l-3.88,1.01l-3.61,0.91l-3.65,0.89l-3.63,0.84l-3.48,0.8l-3.38,0.74l-3.36,0.72l-3.35,0.71l-3.23,0.66l-3.11,0.63l-2.97,0.6l-3.05,0.62zm0,0c-13.29,2.67 -22.75,1.21 -21.13,-3.27c1.62,-4.48 13.72,-10.3 27.01,-12.97l-5.88,16.24z" id="svg_25"/>
   </g>
   <g id="svg_26">
    <path class="fil1" d="m1866.61,1407.43c-1.45,-3.75 8.16,-9.75 21.47,-13.37c13.31,-3.62 25.3,-3.52 26.75,0.23l-48.22,13.14zm155.51,155.63l-46.88,15.04l0,0l-6.04,-5.66l-5.79,-5.64l-5.56,-5.61l-5.32,-5.58l-5.08,-5.55l-4.87,-5.52l-4.66,-5.49l-4.45,-5.49l-4.26,-5.44l-4.07,-5.43l-3.89,-5.4l-3.72,-5.38l-3.56,-5.37l-3.4,-5.33l-3.26,-5.33l-3.11,-5.3l-2.99,-5.29l-2.86,-5.27l-2.75,-5.26l-2.64,-5.24l-2.54,-5.23l-2.45,-5.21l-2.37,-5.2l-2.3,-5.2l-2.23,-5.17l-2.18,-5.18l-2.12,-5.16l-2.09,-5.17l-2.04,-5.15l-2.03,-5.14l-2,-5.14l-2,-5.14l48.22,-13.14l2,5.14l2,5.12l2.01,5.14l2.04,5.13l2.07,5.13l2.12,5.14l2.16,5.14l2.21,5.15l2.28,5.14l2.35,5.16l2.43,5.17l2.52,5.17l2.6,5.18l2.73,5.2l2.82,5.21l2.95,5.21l3.07,5.24l3.22,5.25l3.36,5.27l3.5,5.29l3.66,5.3l3.83,5.32l4.01,5.35l4.2,5.36l4.39,5.39l4.58,5.41l4.79,5.44l5.02,5.47l5.24,5.5l5.46,5.51l5.71,5.56l5.96,5.58l0,0zm228.86,159.2l-45.66,15.96l0,-0.01l-5.28,-3.27l-5.59,-3.45l-5.87,-3.63l-6.14,-3.79l-6.39,-3.95l-6.63,-4.1l-6.83,-4.25l-7.03,-4.38l-7.21,-4.52l-7.37,-4.65l-7.51,-4.75l-7.63,-4.87l-7.74,-4.98l-7.82,-5.08l-7.89,-5.16l-7.94,-5.25l-7.98,-5.33l-7.99,-5.4l-7.98,-5.47l-7.97,-5.51l-7.92,-5.57l-7.87,-5.62l-7.79,-5.65l-7.69,-5.69l-7.58,-5.7l-7.46,-5.73l-7.3,-5.73l-7.14,-5.75l-6.95,-5.74l-6.76,-5.73l-6.54,-5.71l-6.29,-5.7l46.88,-15.04l6.21,5.62l6.44,5.65l6.68,5.65l6.89,5.68l7.06,5.69l7.24,5.69l7.38,5.67l7.52,5.66l7.65,5.65l7.73,5.61l7.81,5.58l7.88,5.53l7.91,5.49l7.94,5.43l7.95,5.38l7.94,5.29l7.9,5.23l7.87,5.14l7.78,5.06l7.72,4.96l7.59,4.85l7.49,4.75l7.35,4.63l7.19,4.5l7.01,4.38l6.83,4.23l6.61,4.1l6.39,3.95l6.14,3.79l5.87,3.63l5.59,3.45l5.3,3.29l0,-0.01zm8.48,-16.12l48.5,-11.52l0,0l-0.08,6.01l-0.08,5.62l-0.1,5.24l-0.12,4.86l-0.16,4.5l-0.21,4.14l-0.27,3.78l-0.33,3.47l-0.42,3.14l-0.52,2.85l-0.64,2.57l-0.8,2.36l-1.08,2.24l-1.53,2.26l-2.81,2.8l-7.19,4.48l-16.59,5.85l-14.84,2.22l-6.94,-0.21l-4.03,-0.69l-3.12,-0.9l-2.88,-1.07l-2.87,-1.26l-2.99,-1.48l-3.15,-1.67l-3.36,-1.9l-3.59,-2.1l-3.83,-2.31l-4.09,-2.5l-4.39,-2.71l-4.66,-2.91l-4.97,-3.08l45.66,-15.96l4.97,3.1l4.66,2.89l4.35,2.69l4.05,2.48l3.75,2.27l3.45,2.02l3.16,1.78l2.87,1.53l2.57,1.26l2.21,0.98l1.78,0.67l1.1,0.32l-0.19,-0.01l-3.48,-0.07l-11.74,1.8l-13.83,4.85l-4.73,2.9l-0.67,0.6l0.35,-0.52l0.56,-1.2l0.58,-1.7l0.54,-2.15l0.46,-2.55l0.38,-2.92l0.33,-3.31l0.25,-3.68l0.21,-4.06l0.16,-4.44l0.12,-4.82l0.1,-5.22l0.08,-5.6l0.08,-6.01l0,0zm-11.2,-286.01l48.44,-12.28l0,0l1.26,8.17l1.16,8.44l1.08,8.69l0.99,8.9l0.92,9.11l0.84,9.3l0.77,9.45l0.7,9.57l0.62,9.71l0.57,9.79l0.5,9.87l0.45,9.91l0.39,9.95l0.34,9.96l0.29,9.94l0.25,9.91l0.2,9.85l0.16,9.76l0.13,9.68l0.09,9.55l0.06,9.41l0.03,9.23l0.01,9.06l-0.01,8.85l-0.04,8.62l-0.04,8.36l-0.06,8.11l-0.08,7.79l-0.07,7.48l-0.09,7.16l-0.08,6.78l-0.08,6.41l-48.5,11.52l0.08,-6.41l0.08,-6.78l0.09,-7.14l0.07,-7.48l0.08,-7.79l0.06,-8.09l0.04,-8.36l0.04,-8.6l0.01,-8.85l-0.01,-9.04l-0.03,-9.23l-0.06,-9.39l-0.09,-9.53l-0.13,-9.66l-0.16,-9.76l-0.2,-9.83l-0.25,-9.89l-0.29,-9.92l-0.34,-9.92l-0.39,-9.93l-0.45,-9.89l-0.5,-9.83l-0.57,-9.77l-0.62,-9.67l-0.7,-9.55l-0.75,-9.41l-0.84,-9.24l-0.92,-9.07l-0.99,-8.86l-1.06,-8.63l-1.16,-8.38l-1.24,-8.11l0,0zm-64.49,-142.34l47.1,-14.82l0,0l2.11,2.16l2.15,2.24l2.2,2.36l2.22,2.45l2.25,2.55l2.27,2.67l2.29,2.79l2.31,2.92l2.3,3.05l2.32,3.18l2.31,3.34l2.31,3.49l2.3,3.65l2.28,3.8l2.28,3.99l2.25,4.16l2.22,4.35l2.19,4.53l2.16,4.74l2.12,4.93l2.08,5.14l2.03,5.38l1.98,5.58l1.93,5.82l1.86,6.05l1.81,6.3l1.75,6.54l1.66,6.81l1.6,7.07l1.51,7.33l1.44,7.61l1.34,7.9l-48.44,12.28l-1.34,-7.82l-1.42,-7.53l-1.49,-7.27l-1.58,-6.99l-1.66,-6.73l-1.71,-6.46l-1.79,-6.22l-1.84,-5.97l-1.91,-5.74l-1.94,-5.5l-2.01,-5.28l-2.04,-5.06l-2.08,-4.85l-2.12,-4.64l-2.15,-4.45l-2.18,-4.25l-2.19,-4.08l-2.22,-3.89l-2.24,-3.72l-2.24,-3.55l-2.25,-3.41l-2.25,-3.24l-2.26,-3.1l-2.24,-2.97l-2.23,-2.84l-2.23,-2.71l-2.21,-2.59l-2.19,-2.49l-2.16,-2.39l-2.14,-2.28l-2.11,-2.2l-2.07,-2.12l0,0zm-55.24,-36.91l42.82,-17.26l-0.02,0l1.98,0.68l1.96,0.7l1.95,0.72l1.89,0.74l1.88,0.75l1.9,0.79l1.84,0.82l1.83,0.83l1.82,0.87l1.81,0.9l1.78,0.93l1.79,0.96l1.78,1.01l1.77,1.04l1.77,1.09l1.76,1.12l1.76,1.17l1.77,1.21l1.77,1.27l1.78,1.31l1.8,1.36l1.81,1.43l1.82,1.47l1.84,1.54l1.87,1.6l1.88,1.65l1.91,1.72l1.94,1.8l1.96,1.85l2.01,1.94l2.03,2l2.08,2.08l-47.1,14.82l-2.04,-2.04l-1.99,-1.96l-1.95,-1.88l-1.92,-1.81l-1.88,-1.74l-1.85,-1.66l-1.82,-1.61l-1.79,-1.54l-1.76,-1.46l-1.74,-1.41l-1.71,-1.35l-1.7,-1.28l-1.68,-1.25l-1.65,-1.17l-1.65,-1.13l-1.64,-1.09l-1.62,-1.04l-1.61,-0.99l-1.61,-0.94l-1.6,-0.91l-1.61,-0.86l-1.62,-0.85l-1.61,-0.8l-1.6,-0.77l-1.65,-0.75l-1.64,-0.72l-1.64,-0.69l-1.68,-0.67l-1.71,-0.66l-1.71,-0.64l-1.76,-0.62l-1.78,-0.62l-0.02,0zm-69.58,-16.08l39.38,-18.14l2.4,0.46l2.39,0.46l2.39,0.45l2.4,0.46l2.38,0.45l2.42,0.47l2.41,0.46l2.38,0.47l2.37,0.47l2.39,0.48l2.39,0.47l2.38,0.5l2.35,0.48l2.36,0.5l2.31,0.5l2.36,0.51l2.34,0.52l2.26,0.52l2.31,0.53l2.29,0.55l2.22,0.53l2.26,0.55l2.25,0.58l2.2,0.58l2.18,0.58l2.17,0.61l2.11,0.59l2.14,0.62l2.09,0.64l2.05,0.64l2.07,0.66l2,0.67l-42.82,17.26l-1.82,-0.61l-1.83,-0.6l-1.89,-0.58l-1.91,-0.58l-1.92,-0.56l-1.99,-0.57l-1.99,-0.55l-2.02,-0.54l-2.06,-0.54l-2.05,-0.52l-2.08,-0.51l-2.16,-0.53l-2.13,-0.51l-2.15,-0.49l-2.22,-0.5l-2.18,-0.5l-2.2,-0.47l-2.27,-0.48l-2.26,-0.48l-2.27,-0.48l-2.28,-0.46l-2.29,-0.47l-2.31,-0.46l-2.35,-0.45l-2.36,-0.47l-2.33,-0.46l-2.34,-0.45l-2.38,-0.45l-2.38,-0.46l-2.39,-0.45l-2.39,-0.46l-2.38,-0.44zm0,0c-7.82,-1.48 -5.34,-6.76 5.53,-11.76c10.87,-5 26.03,-7.86 33.85,-6.38l-39.38,18.14z" id="svg_27"/>
   </g>
   <g id="svg_28">
    <path class="fil1" d="m7291.69,1153c13.16,-2.37 21.81,-0.53 19.32,4.12c-2.49,4.65 -15.18,10.35 -28.34,12.72l9.02,-16.84zm-110.48,44.5l-22.04,-8.04l-0.01,0l5.22,-2.04l5.06,-1.94l5.1,-1.92l5.01,-1.81l4.84,-1.73l4.87,-1.69l4.83,-1.63l4.64,-1.52l4.64,-1.48l4.63,-1.43l4.5,-1.36l4.4,-1.28l4.4,-1.25l4.33,-1.19l4.25,-1.13l4.26,-1.09l4.11,-1.03l4,-0.96l3.85,-0.91l3.96,-0.9l3.97,-0.88l3.7,-0.78l3.58,-0.75l3.71,-0.76l3.53,-0.7l3.44,-0.67l3.45,-0.65l3.43,-0.65l3.33,-0.61l3.1,-0.56l3.22,-0.59l3.17,-0.57l-9.02,16.84l-3.05,0.55l-3.02,0.55l-3.14,0.58l-2.93,0.53l-2.85,0.53l-2.87,0.55l-2.9,0.57l-2.87,0.56l-2.75,0.56l-2.92,0.61l-2.88,0.62l-2.67,0.58l-2.76,0.64l-2.95,0.69l-2.9,0.7l-2.87,0.71l-2.84,0.73l-2.93,0.79l-2.99,0.81l-3.04,0.87l-3.16,0.92l-3.2,0.96l-3.21,0.99l-3.34,1.08l-3.5,1.14l-3.47,1.17l-3.61,1.25l-3.8,1.35l-3.81,1.39l-3.9,1.46l-4.14,1.58l-4.18,1.64l-0.01,0zm-159.66,93.09l-43.58,3.84l0,0l5.08,-4.34l5.2,-4.29l5.29,-4.23l5.37,-4.16l5.45,-4.09l5.52,-4.03l5.59,-3.96l5.64,-3.9l5.75,-3.86l5.76,-3.75l5.77,-3.68l5.84,-3.63l5.89,-3.57l5.9,-3.49l5.92,-3.42l5.91,-3.33l5.92,-3.27l5.94,-3.21l5.92,-3.12l5.9,-3.05l5.91,-2.98l5.85,-2.89l5.81,-2.82l5.81,-2.76l5.72,-2.65l5.72,-2.61l5.64,-2.51l5.58,-2.44l5.52,-2.35l5.39,-2.25l5.39,-2.22l5.3,-2.11l22.04,8.04l-4.3,1.73l-4.41,1.8l-4.59,1.93l-4.62,1.97l-4.72,2.06l-4.8,2.13l-4.86,2.21l-4.96,2.31l-4.99,2.36l-5.07,2.46l-5.13,2.53l-5.13,2.6l-5.18,2.67l-5.22,2.76l-5.22,2.81l-5.26,2.91l-5.27,2.97l-5.26,3.04l-5.26,3.11l-5.23,3.17l-5.24,3.27l-5.25,3.34l-5.2,3.39l-5.13,3.44l-5.12,3.54l-5.09,3.6l-5.02,3.67l-4.97,3.73l-4.91,3.8l-4.83,3.85l-4.74,3.93l-4.68,4l0,0zm-104.23,130.22l-47.36,8.1l0,0l1.88,-3.08l1.98,-3.22l2.08,-3.34l2.16,-3.46l2.26,-3.58l2.35,-3.7l2.45,-3.79l2.54,-3.88l2.63,-3.99l2.72,-4.05l2.82,-4.14l2.92,-4.21l3.01,-4.28l3.1,-4.34l3.21,-4.39l3.3,-4.43l3.39,-4.48l3.5,-4.51l3.59,-4.55l3.7,-4.56l3.79,-4.58l3.9,-4.59l3.99,-4.6l4.09,-4.61l4.2,-4.59l4.31,-4.58l4.41,-4.57l4.53,-4.54l4.63,-4.51l4.74,-4.48l4.85,-4.45l4.98,-4.4l43.58,-3.84l-4.6,4.06l-4.51,4.13l-4.44,4.2l-4.37,4.25l-4.27,4.3l-4.19,4.33l-4.11,4.38l-4.02,4.39l-3.93,4.41l-3.85,4.44l-3.76,4.43l-3.67,4.44l-3.58,4.42l-3.49,4.41l-3.4,4.39l-3.31,4.36l-3.22,4.33l-3.13,4.29l-3.04,4.24l-2.95,4.2l-2.86,4.13l-2.76,4.06l-2.68,3.99l-2.59,3.91l-2.5,3.84l-2.41,3.73l-2.33,3.64l-2.22,3.54l-2.14,3.42l-2.06,3.32l-1.96,3.18l-1.88,3.06l0,0zm-29.93,48.58l-46.52,6.88l-0.01,0.01l0.47,-0.61l0.48,-0.64l0.47,-0.65l0.46,-0.64l0.49,-0.73l0.51,-0.74l0.5,-0.76l0.54,-0.83l0.54,-0.84l0.56,-0.91l0.61,-0.98l0.64,-1.04l0.65,-1.06l0.69,-1.14l0.71,-1.2l0.77,-1.29l0.82,-1.37l0.85,-1.44l0.9,-1.51l0.95,-1.6l1.01,-1.71l1.07,-1.78l1.11,-1.88l1.19,-1.99l1.25,-2.11l1.32,-2.18l1.39,-2.32l1.47,-2.44l1.55,-2.55l1.62,-2.68l1.71,-2.81l1.8,-2.94l47.36,-8.1l-1.78,2.94l-1.71,2.79l-1.62,2.66l-1.53,2.55l-1.47,2.42l-1.37,2.3l-1.32,2.2l-1.25,2.07l-1.17,1.99l-1.13,1.88l-1.05,1.78l-1.01,1.69l-0.95,1.6l-0.9,1.53l-0.87,1.44l-0.8,1.35l-0.77,1.31l-0.75,1.24l-0.71,1.18l-0.69,1.12l-0.64,1.04l-0.61,1l-0.62,0.99l-0.6,0.94l-0.58,0.89l-0.58,0.88l-0.57,0.84l-0.55,0.79l-0.58,0.84l-0.59,0.79l-0.56,0.76l-0.59,0.77l-0.01,0.01zm-21.73,21.12l-43.24,3.56l0.63,-0.54l0.72,-0.61l0.68,-0.57l0.62,-0.53l0.67,-0.57l0.62,-0.53l0.61,-0.52l0.67,-0.58l0.62,-0.54l0.61,-0.53l0.61,-0.54l0.62,-0.55l0.61,-0.55l0.56,-0.51l0.61,-0.56l0.6,-0.55l0.52,-0.49l0.56,-0.54l0.59,-0.58l0.55,-0.54l0.56,-0.55l0.54,-0.56l0.55,-0.56l0.51,-0.54l0.53,-0.58l0.54,-0.58l0.48,-0.53l0.49,-0.57l0.51,-0.61l0.5,-0.59l0.49,-0.6l0.47,-0.6l46.52,-6.88l-0.61,0.76l-0.61,0.76l-0.62,0.75l-0.61,0.71l-0.65,0.75l-0.68,0.77l-0.64,0.7l-0.65,0.7l-0.69,0.72l-0.67,0.7l-0.68,0.68l-0.68,0.69l-0.69,0.68l-0.67,0.64l-0.7,0.68l-0.76,0.71l-0.68,0.63l-0.69,0.64l-0.74,0.67l-0.69,0.61l-0.7,0.63l-0.71,0.62l-0.71,0.63l-0.7,0.6l-0.67,0.58l-0.71,0.62l-0.72,0.61l-0.67,0.57l-0.72,0.61l-0.68,0.57l-0.62,0.53l-0.71,0.6zm0,0c-6.06,5.13 -20.67,10.09 -32.61,11.07c-11.94,0.98 -16.69,-2.38 -10.63,-7.51l43.24,-3.56z" id="svg_29"/>
   </g>
   <g id="svg_30">
    <path class="fil1" d="m6665.87,949.34c2.2,3.54 -6.72,9.53 -19.93,13.36c-13.21,3.83 -25.71,4.06 -27.91,0.52l47.84,-13.88zm-125.62,-92.61l47.14,-14.78l0,0l3.01,3.13l2.96,3.16l2.9,3.19l2.86,3.19l2.81,3.22l2.76,3.24l2.72,3.25l2.68,3.27l2.63,3.29l2.6,3.3l2.55,3.32l2.53,3.33l2.49,3.34l2.45,3.36l2.42,3.38l2.4,3.37l2.36,3.4l2.35,3.4l2.32,3.41l2.29,3.41l2.28,3.43l2.25,3.43l2.24,3.44l2.22,3.45l2.21,3.44l2.19,3.46l2.18,3.47l2.18,3.45l2.17,3.46l2.16,3.46l2.16,3.48l2.15,3.46l-47.84,13.88l-2.15,-3.46l-2.16,-3.46l-2.16,-3.46l-2.17,-3.46l-2.16,-3.45l-2.18,-3.45l-2.19,-3.44l-2.19,-3.44l-2.22,-3.43l-2.22,-3.42l-2.25,-3.41l-2.26,-3.41l-2.27,-3.39l-2.3,-3.39l-2.33,-3.38l-2.34,-3.36l-2.38,-3.35l-2.4,-3.34l-2.43,-3.32l-2.47,-3.32l-2.49,-3.29l-2.53,-3.28l-2.56,-3.26l-2.61,-3.25l-2.64,-3.23l-2.68,-3.21l-2.72,-3.18l-2.77,-3.18l-2.82,-3.15l-2.86,-3.13l-2.9,-3.1l-2.97,-3.09l0,0zm-116.64,-82.15l44.44,-16.6l0,0l4.24,2l4.22,2.05l4.18,2.11l4.17,2.15l4.14,2.19l4.11,2.24l4.07,2.28l4.07,2.32l4.02,2.37l4,2.41l3.95,2.44l3.94,2.49l3.89,2.53l3.86,2.57l3.83,2.61l3.79,2.63l3.76,2.68l3.71,2.71l3.68,2.75l3.63,2.78l3.59,2.81l3.56,2.85l3.5,2.86l3.46,2.91l3.43,2.94l3.36,2.96l3.32,2.99l3.27,3.02l3.22,3.03l3.18,3.08l3.12,3.09l3.07,3.12l-47.14,14.78l-3.01,-3.06l-3.06,-3.03l-3.12,-3.02l-3.16,-2.99l-3.21,-2.96l-3.28,-2.93l-3.3,-2.92l-3.35,-2.88l-3.4,-2.85l-3.44,-2.82l-3.48,-2.79l-3.53,-2.75l-3.57,-2.74l-3.6,-2.69l-3.63,-2.65l-3.68,-2.62l-3.71,-2.59l-3.75,-2.55l-3.78,-2.51l-3.81,-2.47l-3.84,-2.43l-3.87,-2.4l-3.9,-2.35l-3.92,-2.31l-3.95,-2.26l-3.99,-2.22l-3.99,-2.18l-4.02,-2.13l-4.05,-2.09l-4.06,-2.03l-4.08,-1.99l-4.1,-1.94l0,0zm-115.22,-40.15l42.3,-17.42l0,0l2.26,0.69l2.41,0.73l2.54,0.77l2.69,0.79l2.81,0.84l2.93,0.85l3.06,0.91l3.16,0.93l3.28,0.98l3.35,1l3.45,1.04l3.58,1.08l3.64,1.12l3.71,1.16l3.78,1.19l3.87,1.24l3.92,1.27l3.98,1.32l4.02,1.35l4.09,1.4l4.13,1.45l4.15,1.48l4.2,1.53l4.21,1.57l4.25,1.62l4.26,1.67l4.27,1.71l4.28,1.76l4.28,1.8l4.29,1.86l4.26,1.91l4.25,1.95l-44.44,16.6l-4.13,-1.89l-4.12,-1.85l-4.13,-1.78l-4.16,-1.76l-4.14,-1.7l-4.15,-1.67l-4.12,-1.61l-4.11,-1.56l-4.11,-1.53l-4.08,-1.49l-4.05,-1.44l-4.01,-1.41l-3.97,-1.36l-3.94,-1.33l-3.88,-1.28l-3.82,-1.25l-3.77,-1.2l-3.72,-1.17l-3.65,-1.14l-3.56,-1.1l-3.48,-1.06l-3.43,-1.02l-3.33,-1l-3.24,-0.96l-3.14,-0.93l-3.04,-0.89l-2.93,-0.87l-2.85,-0.84l-2.71,-0.81l-2.6,-0.77l-2.49,-0.75l-2.36,-0.73l0,0zm22.84,147.49l-48.5,11.62l0,0l-0.12,-15.61l-0.11,-14.62l-0.1,-13.66l-0.07,-12.74l-0.05,-11.83l-0.02,-10.98l0.01,-10.13l0.05,-9.35l0.09,-8.56l0.14,-7.83l0.18,-7.12l0.24,-6.45l0.3,-5.81l0.36,-5.2l0.43,-4.62l0.5,-4.1l0.58,-3.6l0.69,-3.15l0.8,-2.76l0.95,-2.45l1.22,-2.28l1.82,-2.38l3.48,-3.04l9.04,-4.92l17.06,-5.17l11.84,-1.43l5.83,0.18l3.51,0.51l2.6,0.59l2.27,0.62l2.23,0.67l2.21,0.69l-42.3,17.42l-2.13,-0.67l-1.85,-0.55l-1.53,-0.42l-0.96,-0.23l0.21,0.01l2.75,0.06l9.02,-1.13l14.44,-4.39l6.64,-3.56l1.28,-1.08l-0.18,0.26l-0.58,1.1l-0.67,1.73l-0.66,2.3l-0.61,2.81l-0.54,3.36l-0.48,3.92l-0.43,4.5l-0.34,5.1l-0.3,5.73l-0.24,6.39l-0.18,7.08l-0.14,7.79l-0.09,8.54l-0.05,9.31l-0.01,10.13l0.02,10.96l0.05,11.83l0.07,12.72l0.1,13.66l0.11,14.62l0.12,15.61l0,0zm6.87,864.5l-48.5,11.62l-0.26,-32.46l-0.25,-32.43l-0.26,-32.36l-0.25,-32.27l-0.26,-32.14l-0.25,-31.98l-0.25,-31.79l-0.25,-31.56l-0.25,-31.31l-0.25,-31.03l-0.24,-30.7l-0.24,-30.35l-0.24,-29.97l-0.23,-29.55l-0.23,-29.11l-0.23,-28.63l-0.22,-28.12l-0.22,-27.57l-0.22,-27l-0.21,-26.39l-0.2,-25.76l-0.2,-25.08l-0.2,-24.38l-0.19,-23.65l-0.18,-22.88l-0.18,-22.08l-0.17,-21.26l-0.16,-20.39l-0.16,-19.49l-0.15,-18.57l-0.14,-17.62l-0.13,-16.62l48.5,-11.62l0.13,16.62l0.14,17.62l0.15,18.57l0.16,19.49l0.16,20.39l0.17,21.26l0.18,22.08l0.18,22.88l0.19,23.65l0.2,24.38l0.2,25.08l0.2,25.76l0.21,26.39l0.22,27l0.22,27.57l0.22,28.12l0.23,28.63l0.23,29.11l0.23,29.55l0.24,29.97l0.24,30.35l0.24,30.7l0.25,31.03l0.25,31.31l0.25,31.56l0.25,31.79l0.25,31.98l0.26,32.14l0.25,32.27l0.26,32.36l0.25,32.43l0.26,32.46zm0,0c0.03,4.12 -10.8,10.07 -24.19,13.27c-13.39,3.2 -24.28,2.47 -24.31,-1.65l48.5,-11.62z" id="svg_31"/>
   </g>
   <g id="svg_32">
    <path class="fil1" d="m6618.29,1523.12c2.93,-4.72 15.92,-10.36 28.98,-12.57c13.06,-2.21 21.27,-0.17 18.34,4.55l-47.32,8.02zm-31.88,100.26l-45.18,5.36l-0.01,0l2.9,-3.01l2.84,-3.03l2.81,-3.08l2.77,-3.09l2.71,-3.12l2.68,-3.14l2.65,-3.16l2.6,-3.19l2.57,-3.2l2.54,-3.22l2.49,-3.25l2.48,-3.28l2.44,-3.26l2.4,-3.3l2.39,-3.32l2.36,-3.33l2.33,-3.33l2.32,-3.36l2.28,-3.36l2.26,-3.39l2.26,-3.39l2.23,-3.4l2.22,-3.41l2.21,-3.42l2.18,-3.42l2.19,-3.44l2.17,-3.44l2.16,-3.45l2.17,-3.45l2.15,-3.46l2.16,-3.46l2.15,-3.46l47.32,-8.02l-2.15,3.46l-2.16,3.48l-2.17,3.46l-2.17,3.47l-2.18,3.47l-2.19,3.46l-2.19,3.46l-2.22,3.46l-2.23,3.46l-2.24,3.45l-2.27,3.46l-2.28,3.43l-2.3,3.43l-2.34,3.44l-2.36,3.42l-2.37,3.41l-2.42,3.41l-2.43,3.38l-2.48,3.4l-2.52,3.38l-2.54,3.36l-2.59,3.35l-2.62,3.34l-2.67,3.34l-2.72,3.31l-2.75,3.3l-2.8,3.28l-2.87,3.28l-2.91,3.25l-2.95,3.24l-3.02,3.23l-3.08,3.21l-0.01,0zm-126.19,88.32l-28.78,-5.16l-0.02,0.01l3.61,-1.7l3.59,-1.76l3.7,-1.86l3.67,-1.88l3.59,-1.91l3.65,-1.98l3.66,-2.05l3.63,-2.08l3.64,-2.15l3.64,-2.19l3.61,-2.24l3.61,-2.28l3.58,-2.32l3.57,-2.37l3.56,-2.43l3.53,-2.46l3.5,-2.49l3.47,-2.53l3.45,-2.58l3.42,-2.61l3.39,-2.66l3.36,-2.68l3.3,-2.72l3.3,-2.77l3.24,-2.77l3.2,-2.82l3.18,-2.86l3.11,-2.86l3.08,-2.92l3.05,-2.94l2.98,-2.95l2.94,-2.99l45.18,-5.36l-3.14,3.19l-3.2,3.17l-3.25,3.14l-3.3,3.12l-3.37,3.12l-3.42,3.06l-3.46,3.06l-3.54,3.03l-3.56,2.99l-3.64,2.98l-3.68,2.94l-3.73,2.92l-3.78,2.89l-3.83,2.86l-3.87,2.83l-3.94,2.81l-3.97,2.76l-4.02,2.73l-4.07,2.71l-4.12,2.68l-4.17,2.64l-4.21,2.6l-4.26,2.57l-4.3,2.53l-4.39,2.52l-4.4,2.45l-4.45,2.44l-4.57,2.41l-4.55,2.34l-4.54,2.28l-4.71,2.3l-4.73,2.24l-0.02,0.01zm-125.26,43.97l-10.84,-11.98l-0.12,0.04l2.79,-0.86l2.58,-0.78l2.79,-0.85l3.08,-0.91l2.8,-0.82l2.87,-0.85l3.11,-0.92l3.17,-0.94l3.11,-0.91l3.04,-0.91l3.31,-1l3.31,-1l3.35,-1.04l3.45,-1.07l3.31,-1.04l3.53,-1.14l3.56,-1.14l3.45,-1.15l3.5,-1.18l3.63,-1.25l3.7,-1.29l3.59,-1.28l3.62,-1.32l3.62,-1.34l3.63,-1.39l3.73,-1.46l3.67,-1.47l3.61,-1.48l3.63,-1.53l3.63,-1.58l3.66,-1.64l3.61,-1.65l28.78,5.16l-4.77,2.19l-4.72,2.1l-4.79,2.08l-4.81,2.03l-4.81,1.98l-4.75,1.89l-4.65,1.82l-4.73,1.81l-4.7,1.76l-4.66,1.7l-4.61,1.64l-4.44,1.55l-4.43,1.53l-4.46,1.5l-4.41,1.45l-4.18,1.36l-4.11,1.32l-4.19,1.32l-3.91,1.21l-3.85,1.18l-3.75,1.14l-3.57,1.08l-3.64,1.09l-3.41,1.01l-3.13,0.92l-2.99,0.88l-2.99,0.89l-2.86,0.84l-2.32,0.69l-2.35,0.71l-2.32,0.7l-1.83,0.56l-0.12,0.04zm-52.23,-162.23l48.5,-11.54l0,0l-0.12,15.6l-0.11,14.62l-0.1,13.66l-0.07,12.73l-0.05,11.82l-0.02,10.96l0.01,10.12l0.05,9.32l0.09,8.54l0.14,7.79l0.18,7.08l0.24,6.39l0.3,5.73l0.34,5.11l0.43,4.5l0.48,3.94l0.55,3.38l0.62,2.87l0.68,2.36l0.73,1.89l0.75,1.41l0.72,0.96l0.56,0.51l0.11,0.07l-0.81,-0.23l-2.62,-0.26l-4.37,0.18l-4.46,0.64l-2.93,0.64l-1.14,0.3l0.77,-0.24l1.94,-0.6l10.84,11.98l-2.4,0.74l-3.31,1l-4.94,1.34l-6.49,1.44l-7.76,1.14l-7.45,0.32l-5.44,-0.56l-3.43,-1.03l-2.29,-1.27l-1.64,-1.47l-1.28,-1.68l-1.05,-1.97l-0.89,-2.29l-0.78,-2.68l-0.68,-3.11l-0.57,-3.58l-0.5,-4.08l-0.43,-4.62l-0.36,-5.19l-0.3,-5.81l-0.24,-6.45l-0.18,-7.12l-0.14,-7.83l-0.09,-8.56l-0.05,-9.34l-0.01,-10.14l0.02,-10.96l0.05,-11.84l0.07,-12.73l0.1,-13.66l0.11,-14.62l0.12,-15.62l0,0zm6.87,-864.51l48.5,-11.54l-0.26,32.46l-0.25,32.43l-0.26,32.36l-0.25,32.27l-0.26,32.14l-0.25,31.98l-0.25,31.79l-0.25,31.57l-0.25,31.31l-0.25,31.02l-0.24,30.71l-0.24,30.35l-0.24,29.97l-0.23,29.55l-0.23,29.11l-0.23,28.63l-0.22,28.11l-0.22,27.58l-0.22,27l-0.21,26.39l-0.2,25.76l-0.2,25.08l-0.2,24.38l-0.19,23.65l-0.18,22.88l-0.18,22.08l-0.17,21.26l-0.16,20.39l-0.16,19.49l-0.15,18.57l-0.14,17.62l-0.13,16.62l-48.5,11.54l0.13,-16.62l0.14,-17.62l0.15,-18.57l0.16,-19.49l0.16,-20.39l0.17,-21.26l0.18,-22.08l0.18,-22.88l0.19,-23.65l0.2,-24.38l0.2,-25.08l0.2,-25.76l0.21,-26.39l0.22,-27l0.22,-27.58l0.22,-28.11l0.23,-28.63l0.23,-29.11l0.23,-29.55l0.24,-29.97l0.24,-30.35l0.24,-30.71l0.25,-31.02l0.25,-31.31l0.25,-31.57l0.25,-31.79l0.25,-31.98l0.26,-32.14l0.25,-32.27l0.26,-32.36l0.25,-32.43l0.26,-32.46zm0,0c0.03,-4.13 10.92,-10.08 24.31,-13.26c13.39,-3.18 24.22,-2.41 24.19,1.72l-48.5,11.54z" id="svg_33"/>
   </g>
   <g id="svg_34">
    <path class="fil1" d="m6261.63,1247.16c-10.58,0 -12.51,-4.24 -4.31,-9.46c8.2,-5.22 23.45,-9.46 34.03,-9.46l-29.72,18.92zm290.06,-18.92l-29.72,18.92l-8.13,0l-8.14,0l-8.13,0l-8.14,0l-8.13,0l-8.14,0l-8.14,0l-8.13,0l-8.14,0l-8.13,0l-8.14,0l-8.13,0l-8.14,0l-8.13,0l-8.14,0l-8.14,0l-8.13,0l-8.14,0l-8.13,0l-8.14,0l-8.14,0l-8.13,0l-8.14,0l-8.13,0l-8.14,0l-8.14,0l-8.13,0l-8.14,0l-8.13,0l-8.14,0l-8.13,0l-8.14,0l29.72,-18.92l8.14,0l8.13,0l8.14,0l8.13,0l8.14,0l8.13,0l8.14,0l8.14,0l8.13,0l8.14,0l8.13,0l8.14,0l8.14,0l8.13,0l8.14,0l8.13,0l8.14,0l8.14,0l8.13,0l8.14,0l8.13,0l8.14,0l8.13,0l8.14,0l8.13,0l8.14,0l8.14,0l8.13,0l8.14,0l8.13,0l8.14,0l8.13,0zm0,0c10.58,0 12.51,4.24 4.31,9.46c-8.2,5.22 -23.45,9.46 -34.03,9.46l29.72,-18.92z" id="svg_35"/>
   </g>
   <g id="svg_36">
    <path class="fil1" d="m3151.08,1752.34c0.01,4.12 -10.84,10.07 -24.23,13.27c-13.39,3.2 -24.26,2.45 -24.27,-1.67l48.5,-11.6zm-50.14,-634.47l48.5,-11.6l0,0l0.03,13.42l0.04,14.06l0.04,14.69l0.03,15.29l0.04,15.87l0.04,16.44l0.05,16.97l0.04,17.5l0.05,18l0.04,18.47l0.05,18.93l0.05,19.37l0.05,19.78l0.05,20.18l0.05,20.55l0.05,20.91l0.06,21.24l0.05,21.55l0.06,21.85l0.05,22.11l0.06,22.36l0.06,22.6l0.06,22.8l0.05,22.98l0.06,23.16l0.06,23.3l0.06,23.42l0.06,23.53l0.07,23.61l0.06,23.68l0.06,23.71l0.06,23.74l-48.5,11.6l-0.06,-23.74l-0.06,-23.71l-0.06,-23.68l-0.07,-23.61l-0.06,-23.53l-0.06,-23.42l-0.06,-23.3l-0.06,-23.16l-0.05,-22.98l-0.06,-22.8l-0.06,-22.6l-0.06,-22.36l-0.05,-22.11l-0.06,-21.85l-0.05,-21.55l-0.06,-21.24l-0.05,-20.91l-0.05,-20.55l-0.05,-20.18l-0.05,-19.78l-0.05,-19.37l-0.05,-18.93l-0.04,-18.47l-0.05,-18l-0.04,-17.5l-0.05,-16.97l-0.04,-16.44l-0.04,-15.87l-0.03,-15.29l-0.04,-14.69l-0.04,-14.06l-0.03,-13.42l0,0zm-0.57,-212.34l48.5,-11.6l0,0l0.01,4.32l0.01,4.23l0.01,4.15l0.01,4.11l0.01,4.08l0.01,4.08l0.01,4.11l0.01,4.17l0.01,4.23l0.02,4.34l0.01,4.46l0.01,4.61l0.01,4.79l0.02,4.98l0.01,5.21l0.02,5.45l0.01,5.73l0.02,6.03l0.02,6.34l0.02,6.69l0.02,7.06l0.02,7.46l0.02,7.88l0.02,8.32l0.02,8.79l0.03,9.28l0.03,9.8l0.02,10.35l0.03,10.91l0.03,11.5l0.04,12.12l0.03,12.76l-48.5,11.6l-0.03,-12.76l-0.04,-12.12l-0.03,-11.5l-0.03,-10.91l-0.02,-10.35l-0.03,-9.8l-0.03,-9.28l-0.02,-8.79l-0.02,-8.32l-0.02,-7.88l-0.02,-7.46l-0.02,-7.06l-0.02,-6.69l-0.02,-6.34l-0.02,-6.03l-0.01,-5.73l-0.02,-5.45l-0.01,-5.21l-0.02,-4.98l-0.01,-4.79l-0.01,-4.61l-0.01,-4.46l-0.02,-4.34l-0.01,-4.23l-0.01,-4.17l-0.01,-4.11l-0.01,-4.08l-0.01,-4.08l-0.01,-4.11l-0.01,-4.15l-0.01,-4.23l-0.01,-4.32l0,0zm-0.46,-181.49l48.5,-11.6l0.02,6.32l0.01,6.31l0.02,6.31l0.01,6.29l0.02,6.28l0.02,6.26l0.01,6.24l0.02,6.21l0.01,6.18l0.02,6.15l0.01,6.11l0.02,6.07l0.01,6.02l0.02,5.97l0.01,5.92l0.02,5.86l0.01,5.81l0.02,5.73l0.01,5.67l0.02,5.6l0.01,5.52l0.01,5.45l0.02,5.36l0.01,5.27l0.01,5.18l0.02,5.08l0.01,4.99l0.01,4.89l0.01,4.78l0.02,4.67l0.01,4.55l0.01,4.44l-48.5,11.6l-0.01,-4.44l-0.01,-4.55l-0.02,-4.67l-0.01,-4.78l-0.01,-4.89l-0.01,-4.99l-0.02,-5.08l-0.01,-5.18l-0.01,-5.27l-0.02,-5.36l-0.01,-5.45l-0.01,-5.52l-0.02,-5.6l-0.01,-5.67l-0.02,-5.73l-0.01,-5.81l-0.02,-5.86l-0.01,-5.92l-0.02,-5.97l-0.01,-6.02l-0.02,-6.07l-0.01,-6.11l-0.02,-6.15l-0.01,-6.18l-0.02,-6.21l-0.01,-6.24l-0.02,-6.26l-0.02,-6.28l-0.01,-6.29l-0.02,-6.31l-0.01,-6.31l-0.02,-6.32zm0,0c-0.01,-4.12 10.84,-10.07 24.23,-13.27c13.39,-3.2 24.26,-2.45 24.27,1.67l-48.5,11.6z" id="svg_37"/>
   </g>
   <g id="svg_38">
    <path class="fil1" d="m3357.89,1264.04c-10.58,0 -12.51,-4.24 -4.31,-9.46c8.2,-5.22 23.45,-9.46 34.03,-9.46l-29.72,18.92zm176.51,-257.49l48.5,-11.58l0,0l-0.24,13.14l-0.72,12.98l-1.19,12.8l-1.66,12.59l-2.08,12.38l-2.53,12.16l-2.95,11.9l-3.37,11.64l-3.76,11.37l-4.16,11.08l-4.53,10.77l-4.91,10.46l-5.27,10.12l-5.63,9.78l-5.98,9.42l-6.33,9.06l-6.66,8.68l-7.02,8.3l-7.37,7.9l-7.74,7.52l-8.15,7.13l-8.61,6.77l-9.16,6.4l-9.84,6.06l-10.69,5.76l-11.81,5.44l-13.04,5.05l-14.12,4.45l-14.69,3.58l-14.46,2.51l-13.62,1.42l-12.72,0.45l29.72,-18.92l6.42,-0.21l5.26,-0.54l4.14,-0.71l3.63,-0.9l3.86,-1.21l4.6,-1.79l5.47,-2.54l6.19,-3.34l6.64,-4.1l6.86,-4.8l6.97,-5.47l6.93,-6.07l6.84,-6.64l6.67,-7.16l6.48,-7.66l6.24,-8.12l5.99,-8.58l5.7,-9l5.41,-9.4l5.09,-9.78l4.77,-10.14l4.41,-10.47l4.06,-10.82l3.68,-11.11l3.29,-11.42l2.89,-11.68l2.49,-11.94l2.06,-12.18l1.62,-12.41l1.17,-12.6l0.72,-12.8l0.24,-12.98l0,0zm-174.14,-250.11l31.46,-18.9l11.46,0.67l10.77,1.36l10.25,2l9.81,2.6l9.45,3.18l9.15,3.74l8.86,4.28l8.59,4.8l8.33,5.32l8.07,5.81l7.81,6.29l7.54,6.76l7.27,7.21l6.99,7.66l6.7,8.07l6.4,8.49l6.1,8.88l5.78,9.27l5.45,9.62l5.13,9.97l4.76,10.31l4.43,10.63l4.03,10.94l3.68,11.22l3.27,11.49l2.88,11.76l2.47,12l2.04,12.22l1.61,12.44l1.16,12.63l0.7,12.82l0.24,12.99l-48.5,11.58l-0.24,-12.81l-0.7,-12.66l-1.14,-12.47l-1.59,-12.28l-2.02,-12.08l-2.43,-11.84l-2.84,-11.6l-3.23,-11.35l-3.62,-11.06l-3.99,-10.78l-4.35,-10.47l-4.7,-10.15l-5.03,-9.81l-5.37,-9.46l-5.66,-9.09l-5.98,-8.7l-6.26,-8.29l-6.54,-7.89l-6.79,-7.44l-7.05,-6.99l-7.28,-6.52l-7.49,-6.05l-7.69,-5.53l-7.87,-5.02l-8.01,-4.48l-8.14,-3.94l-8.23,-3.36l-8.27,-2.78l-8.23,-2.2l-8.11,-1.58l-7.87,-1l-7.42,-0.43zm0,0c-10.19,-0.24 -11.41,-4.68 -2.73,-9.89c8.68,-5.21 24,-9.25 34.19,-9.01l-31.46,18.9z" id="svg_39"/>
   </g>
   <g id="svg_40">
    <path class="fil1" d="m3379.33,1300c10.58,0 12.51,4.24 4.31,9.46c-8.2,5.22 -23.45,9.46 -34.03,9.46l29.72,-18.92zm-267.2,-266.01l48.5,-11.58l0,0l0.3,14.37l0.87,14.2l1.45,13.99l1.98,13.76l2.54,13.52l3.05,13.27l3.56,12.98l4.06,12.69l4.54,12.37l5,12.05l5.45,11.69l5.89,11.33l6.31,10.93l6.71,10.54l7.1,10.1l7.49,9.68l7.83,9.22l8.17,8.73l8.51,8.23l8.81,7.74l9.1,7.18l9.37,6.64l9.61,6.08l9.83,5.48l10.04,4.87l10.18,4.26l10.3,3.61l10.36,2.95l10.35,2.28l10.26,1.61l10.03,0.94l9.65,0.3l-29.72,18.92l-13.83,-0.44l-13.13,-1.22l-12.58,-1.97l-12.11,-2.66l-11.7,-3.33l-11.36,-3.97l-11,-4.6l-10.68,-5.19l-10.39,-5.78l-10.05,-6.36l-9.73,-6.9l-9.42,-7.44l-9.07,-7.96l-8.73,-8.45l-8.37,-8.95l-8.01,-9.42l-7.63,-9.86l-7.24,-10.3l-6.83,-10.72l-6.41,-11.11l-5.97,-11.49l-5.53,-11.87l-5.08,-12.21l-4.6,-12.55l-4.1,-12.85l-3.62,-13.16l-3.09,-13.43l-2.56,-13.7l-2.02,-13.94l-1.45,-14.15l-0.89,-14.38l-0.3,-14.57l0,0zm262.35,-296.45l-27.96,18.9l-8.56,0.44l-7.55,0.86l-6.59,1.16l-6.1,1.47l-6.13,1.86l-6.59,2.44l-7.26,3.17l-7.79,3.94l-8.17,4.71l-8.39,5.46l-8.43,6.14l-8.38,6.78l-8.24,7.38l-8.03,7.96l-7.8,8.49l-7.51,9l-7.21,9.47l-6.86,9.92l-6.5,10.36l-6.12,10.77l-5.72,11.17l-5.3,11.53l-4.87,11.88l-4.42,12.21l-3.95,12.52l-3.48,12.81l-2.97,13.1l-2.47,13.35l-1.95,13.59l-1.41,13.81l-0.85,14.01l-0.29,14.21l-48.5,11.58l0.29,-14.39l0.87,-14.21l1.43,-14.01l1.97,-13.81l2.51,-13.57l3.03,-13.32l3.54,-13.07l4.03,-12.78l4.52,-12.49l4.99,-12.18l5.46,-11.85l5.9,-11.51l6.34,-11.15l6.76,-10.8l7.2,-10.4l7.61,-10.01l8.03,-9.6l8.44,-9.19l8.87,-8.78l9.32,-8.36l9.8,-7.94l10.35,-7.52l10.95,-7.12l11.71,-6.75l12.59,-6.34l13.6,-5.93l14.73,-5.44l15.61,-4.74l16.04,-3.85l15.93,-2.82l15.31,-1.74l14.62,-0.78zm0,0c10.94,-0.23 13.56,3.81 5.84,9.02c-7.72,5.21 -22.86,9.65 -33.8,9.88l27.96,-18.9z" id="svg_41"/>
   </g>
   <g id="svg_42">
    <path class="fil1" d="m6891.62,1744.93c0.01,4.12 -10.84,10.07 -24.23,13.27c-13.39,3.2 -24.26,2.45 -24.27,-1.67l48.5,-11.6zm-50.15,-637.29l48.5,-11.6l0,0l0.03,13.48l0.04,14.12l0.03,14.75l0.04,15.36l0.04,15.94l0.04,16.51l0.04,17.05l0.05,17.57l0.04,18.08l0.05,18.55l0.05,19.02l0.04,19.45l0.05,19.87l0.06,20.27l0.05,20.64l0.05,21l0.06,21.33l0.05,21.65l0.06,21.94l0.05,22.21l0.06,22.46l0.06,22.69l0.06,22.9l0.06,23.09l0.06,23.25l0.06,23.4l0.06,23.53l0.06,23.63l0.06,23.71l0.06,23.78l0.07,23.82l0.06,23.84l-48.5,11.6l-0.06,-23.84l-0.07,-23.82l-0.06,-23.78l-0.06,-23.71l-0.06,-23.63l-0.06,-23.53l-0.06,-23.4l-0.06,-23.25l-0.06,-23.09l-0.06,-22.9l-0.06,-22.69l-0.06,-22.46l-0.05,-22.21l-0.06,-21.94l-0.05,-21.65l-0.06,-21.33l-0.05,-21l-0.05,-20.64l-0.06,-20.27l-0.05,-19.87l-0.04,-19.45l-0.05,-19.02l-0.05,-18.55l-0.04,-18.08l-0.05,-17.57l-0.04,-17.05l-0.04,-16.51l-0.04,-15.94l-0.04,-15.36l-0.03,-14.75l-0.04,-14.12l-0.03,-13.48l0,0zm-0.58,-213.26l48.5,-11.6l0,0l0.01,4.34l0.01,4.25l0.01,4.17l0.01,4.12l0.01,4.1l0.02,4.1l0.01,4.13l0.01,4.18l0.01,4.26l0.01,4.36l0.01,4.48l0.02,4.63l0.01,4.81l0.01,5l0.02,5.23l0.01,5.48l0.02,5.75l0.02,6.05l0.01,6.37l0.02,6.72l0.02,7.09l0.02,7.49l0.02,7.91l0.03,8.36l0.02,8.83l0.03,9.32l0.02,9.84l0.03,10.39l0.03,10.96l0.03,11.55l0.04,12.17l0.03,12.82l-48.5,11.6l-0.03,-12.82l-0.04,-12.17l-0.03,-11.55l-0.03,-10.96l-0.03,-10.39l-0.02,-9.84l-0.03,-9.32l-0.02,-8.83l-0.03,-8.36l-0.02,-7.91l-0.02,-7.49l-0.02,-7.09l-0.02,-6.72l-0.01,-6.37l-0.02,-6.05l-0.02,-5.75l-0.01,-5.48l-0.02,-5.23l-0.01,-5l-0.01,-4.81l-0.02,-4.63l-0.01,-4.48l-0.01,-4.36l-0.01,-4.26l-0.01,-4.18l-0.01,-4.13l-0.02,-4.1l-0.01,-4.1l-0.01,-4.12l-0.01,-4.17l-0.01,-4.25l-0.01,-4.34l0,0zm-0.46,-182.27l48.5,-11.6l0.02,6.34l0.01,6.35l0.02,6.33l0.01,6.32l0.02,6.31l0.02,6.28l0.01,6.27l0.02,6.24l0.01,6.2l0.02,6.18l0.01,6.13l0.02,6.1l0.01,6.05l0.02,5.99l0.01,5.95l0.02,5.89l0.01,5.82l0.02,5.77l0.01,5.69l0.02,5.62l0.01,5.55l0.01,5.47l0.02,5.38l0.01,5.29l0.01,5.21l0.02,5.1l0.01,5.01l0.01,4.91l0.01,4.8l0.02,4.69l0.01,4.57l0.01,4.46l-48.5,11.6l-0.01,-4.46l-0.01,-4.57l-0.02,-4.69l-0.01,-4.8l-0.01,-4.91l-0.01,-5.01l-0.02,-5.1l-0.01,-5.21l-0.01,-5.29l-0.02,-5.38l-0.01,-5.47l-0.01,-5.55l-0.02,-5.62l-0.01,-5.69l-0.02,-5.77l-0.01,-5.82l-0.02,-5.89l-0.01,-5.95l-0.02,-5.99l-0.01,-6.05l-0.02,-6.1l-0.01,-6.13l-0.02,-6.18l-0.01,-6.2l-0.02,-6.24l-0.01,-6.27l-0.02,-6.28l-0.02,-6.31l-0.01,-6.32l-0.02,-6.33l-0.01,-6.35l-0.02,-6.34zm0,0c-0.01,-4.12 10.84,-10.07 24.23,-13.27c13.39,-3.2 24.26,-2.45 24.27,1.67l-48.5,11.6z" id="svg_43"/>
   </g>
   <g id="svg_44">
    <path class="fil1" d="m7307.52,1746.12c0.01,4.12 -10.84,10.07 -24.23,13.27c-13.39,3.2 -24.26,2.45 -24.27,-1.67l48.5,-11.6zm-50.15,-637.29l48.5,-11.6l0,0l0.03,13.48l0.04,14.12l0.04,14.75l0.03,15.36l0.04,15.94l0.04,16.51l0.05,17.05l0.04,17.57l0.05,18.08l0.04,18.55l0.05,19.02l0.05,19.45l0.05,19.87l0.05,20.27l0.05,20.64l0.06,21l0.05,21.33l0.05,21.65l0.06,21.94l0.06,22.21l0.05,22.46l0.06,22.69l0.06,22.9l0.06,23.09l0.06,23.25l0.06,23.4l0.06,23.53l0.06,23.63l0.06,23.71l0.06,23.78l0.07,23.82l0.06,23.84l-48.5,11.6l-0.06,-23.84l-0.07,-23.82l-0.06,-23.78l-0.06,-23.71l-0.06,-23.63l-0.06,-23.53l-0.06,-23.4l-0.06,-23.25l-0.06,-23.09l-0.06,-22.9l-0.06,-22.69l-0.05,-22.46l-0.06,-22.21l-0.06,-21.94l-0.05,-21.65l-0.05,-21.33l-0.06,-21l-0.05,-20.64l-0.05,-20.27l-0.05,-19.87l-0.05,-19.45l-0.05,-19.02l-0.04,-18.55l-0.05,-18.08l-0.04,-17.57l-0.05,-17.05l-0.04,-16.51l-0.04,-15.94l-0.03,-15.36l-0.04,-14.75l-0.04,-14.12l-0.03,-13.48l0,0zm-0.58,-213.26l48.5,-11.6l0,0l0.01,4.34l0.01,4.24l0.01,4.18l0.01,4.12l0.02,4.1l0.01,4.1l0.01,4.13l0.01,4.18l0.01,4.26l0.01,4.35l0.02,4.49l0.01,4.63l0.01,4.8l0.02,5.01l0.01,5.23l0.02,5.47l0.01,5.76l0.02,6.05l0.02,6.37l0.02,6.72l0.02,7.09l0.02,7.49l0.02,7.91l0.02,8.36l0.02,8.82l0.03,9.33l0.03,9.84l0.02,10.39l0.03,10.96l0.03,11.55l0.04,12.17l0.03,12.82l-48.5,11.6l-0.03,-12.82l-0.04,-12.17l-0.03,-11.55l-0.03,-10.96l-0.02,-10.39l-0.03,-9.84l-0.03,-9.33l-0.02,-8.82l-0.02,-8.36l-0.02,-7.91l-0.02,-7.49l-0.02,-7.09l-0.02,-6.72l-0.02,-6.37l-0.02,-6.05l-0.01,-5.76l-0.02,-5.47l-0.01,-5.23l-0.02,-5.01l-0.01,-4.8l-0.01,-4.63l-0.02,-4.49l-0.01,-4.35l-0.01,-4.26l-0.01,-4.18l-0.01,-4.13l-0.01,-4.1l-0.02,-4.1l-0.01,-4.12l-0.01,-4.18l-0.01,-4.24l-0.01,-4.34l0,0zm-0.46,-182.28l48.5,-11.6l0.02,6.35l0.01,6.34l0.02,6.33l0.01,6.32l0.02,6.31l0.02,6.29l0.01,6.26l0.02,6.24l0.01,6.21l0.02,6.17l0.02,6.14l0.01,6.09l0.02,6.05l0.01,6l0.02,5.94l0.01,5.89l0.02,5.83l0.01,5.76l0.02,5.7l0.01,5.62l0.01,5.54l0.02,5.47l0.01,5.38l0.02,5.3l0.01,5.2l0.01,5.11l0.01,5.01l0.02,4.91l0.01,4.8l0.01,4.69l0.01,4.57l0.01,4.46l-48.5,11.6l-0.01,-4.46l-0.01,-4.57l-0.01,-4.69l-0.01,-4.8l-0.02,-4.91l-0.01,-5.01l-0.01,-5.11l-0.01,-5.2l-0.02,-5.3l-0.01,-5.38l-0.02,-5.47l-0.01,-5.54l-0.01,-5.62l-0.02,-5.7l-0.01,-5.76l-0.02,-5.83l-0.01,-5.89l-0.02,-5.94l-0.01,-6l-0.02,-6.05l-0.01,-6.09l-0.02,-6.14l-0.02,-6.17l-0.01,-6.21l-0.02,-6.24l-0.01,-6.26l-0.02,-6.29l-0.02,-6.31l-0.01,-6.32l-0.02,-6.33l-0.01,-6.34l-0.02,-6.35zm0,0c-0.01,-4.12 10.84,-10.07 24.23,-13.27c13.39,-3.2 24.26,-2.45 24.27,1.67l-48.5,11.6z" id="svg_45"/>
   </g>
   <g id="svg_46">
    <path class="fil1" d="m7476.97,1743.75c-12.65,4.37 -26.47,5.6 -30.85,2.76c-4.38,-2.84 2.32,-8.71 14.97,-13.08l15.88,10.32zm88.2,-65.37l41.7,-2.32l0.01,-0.01l-4.88,3.65l-4.79,3.53l-4.73,3.38l-4.65,3.25l-4.58,3.12l-4.52,2.99l-4.44,2.87l-4.39,2.76l-4.37,2.67l-4.31,2.55l-4.26,2.46l-4.22,2.35l-4.2,2.28l-4.17,2.19l-4.17,2.13l-4.12,2.02l-4,1.91l-4.1,1.9l-4.06,1.82l-3.88,1.69l-4,1.69l-3.94,1.61l-3.73,1.49l-3.85,1.5l-3.73,1.41l-3.6,1.34l-3.55,1.29l-3.53,1.28l-3.48,1.22l-3.29,1.15l-3.19,1.1l-3.18,1.1l-15.88,-10.32l3.04,-1.06l3.05,-1.06l2.95,-1.03l2.78,-0.98l2.75,-0.98l2.77,-1.01l2.74,-1.02l2.67,-1.01l2.61,-1.02l2.77,-1.11l2.64,-1.07l2.64,-1.13l2.84,-1.23l2.74,-1.22l2.8,-1.3l2.98,-1.43l2.98,-1.46l3.01,-1.53l3.15,-1.65l3.24,-1.76l3.34,-1.87l3.44,-1.98l3.53,-2.09l3.61,-2.21l3.75,-2.36l3.86,-2.49l3.96,-2.63l4.06,-2.76l4.17,-2.91l4.27,-3.06l4.41,-3.23l4.52,-3.39l0.01,-0.01zm167.58,-186.61l47.4,-8.16l0,0l-4.92,8.05l-5.02,7.93l-5.11,7.82l-5.19,7.69l-5.26,7.57l-5.32,7.43l-5.39,7.32l-5.45,7.19l-5.5,7.06l-5.53,6.93l-5.59,6.8l-5.6,6.66l-5.64,6.54l-5.65,6.4l-5.67,6.26l-5.66,6.12l-5.68,6l-5.66,5.84l-5.65,5.73l-5.65,5.58l-5.62,5.42l-5.57,5.28l-5.55,5.14l-5.51,5.01l-5.46,4.85l-5.4,4.7l-5.36,4.57l-5.29,4.4l-5.2,4.27l-5.15,4.11l-5.05,3.96l-4.98,3.82l-41.7,2.32l4.62,-3.54l4.75,-3.72l4.83,-3.87l4.94,-4.03l5.03,-4.2l5.08,-4.33l5.16,-4.5l5.24,-4.65l5.29,-4.79l5.33,-4.96l5.39,-5.1l5.42,-5.24l5.45,-5.38l5.47,-5.53l5.5,-5.68l5.5,-5.82l5.52,-5.96l5.51,-6.1l5.51,-6.22l5.48,-6.38l5.48,-6.5l5.45,-6.64l5.41,-6.77l5.38,-6.9l5.33,-7.03l5.27,-7.16l5.22,-7.29l5.16,-7.41l5.09,-7.55l5.01,-7.66l4.92,-7.79l4.84,-7.91l0,0zm105.71,-252.4l48.24,-9.94l-0.01,0l-1.88,5.89l-1.98,6.12l-2.06,6.38l-2.15,6.6l-2.26,6.82l-2.33,7.02l-2.43,7.22l-2.53,7.39l-2.61,7.57l-2.72,7.72l-2.79,7.87l-2.9,8l-2.99,8.11l-3.07,8.23l-3.18,8.33l-3.27,8.41l-3.36,8.48l-3.46,8.55l-3.55,8.59l-3.66,8.63l-3.74,8.67l-3.84,8.67l-3.94,8.67l-4.03,8.66l-4.13,8.65l-4.23,8.61l-4.32,8.56l-4.43,8.51l-4.53,8.45l-4.62,8.35l-4.72,8.28l-4.83,8.17l-47.4,8.16l4.75,-8.03l4.64,-8.14l4.56,-8.25l4.47,-8.33l4.37,-8.41l4.28,-8.48l4.19,-8.51l4.09,-8.57l3.99,-8.58l3.9,-8.61l3.82,-8.61l3.72,-8.59l3.62,-8.57l3.53,-8.55l3.44,-8.49l3.34,-8.44l3.25,-8.37l3.16,-8.27l3.07,-8.19l2.97,-8.09l2.88,-7.96l2.79,-7.83l2.7,-7.7l2.61,-7.53l2.51,-7.37l2.43,-7.2l2.33,-7l2.24,-6.8l2.15,-6.58l2.06,-6.36l1.98,-6.12l1.88,-5.87l-0.01,0zm29.6,-92.09l48.04,-9.4l0,-0.01l-0.51,1.28l-0.51,1.33l-0.52,1.34l-0.51,1.37l-0.51,1.44l-0.54,1.49l-0.52,1.54l-0.55,1.63l-0.58,1.71l-0.58,1.78l-0.61,1.88l-0.63,1.99l-0.67,2.09l-0.69,2.22l-0.74,2.33l-0.77,2.46l-0.81,2.6l-0.85,2.77l-0.91,2.91l-0.95,3.06l-1,3.24l-1.06,3.43l-1.12,3.6l-1.19,3.8l-1.24,4l-1.32,4.21l-1.39,4.42l-1.46,4.65l-1.54,4.88l-1.62,5.13l-1.71,5.36l-1.79,5.62l-48.24,9.94l1.79,-5.62l1.71,-5.36l1.62,-5.11l1.54,-4.88l1.46,-4.65l1.39,-4.42l1.32,-4.19l1.24,-4l1.19,-3.8l1.12,-3.6l1.06,-3.41l1,-3.24l0.95,-3.08l0.91,-2.91l0.85,-2.75l0.81,-2.62l0.77,-2.48l0.74,-2.33l0.69,-2.22l0.67,-2.11l0.65,-2.01l0.61,-1.9l0.6,-1.82l0.58,-1.73l0.55,-1.65l0.56,-1.6l0.54,-1.53l0.53,-1.48l0.53,-1.45l0.54,-1.4l0.53,-1.37l0.55,-1.36l0,-0.01zm20.44,-37.91l47.34,-8.04l-0.67,1.08l-0.68,1.1l-0.67,1.08l-0.66,1.07l-0.67,1.09l-0.65,1.07l-0.66,1.1l-0.67,1.1l-0.65,1.08l-0.65,1.1l-0.66,1.1l-0.64,1.09l-0.64,1.1l-0.64,1.11l-0.62,1.1l-0.63,1.13l-0.63,1.12l-0.61,1.13l-0.63,1.15l-0.6,1.13l-0.6,1.16l-0.61,1.17l-0.58,1.16l-0.59,1.19l-0.58,1.18l-0.56,1.2l-0.58,1.22l-0.56,1.22l-0.54,1.23l-0.55,1.26l-0.53,1.25l-0.53,1.28l-48.04,9.4l0.55,-1.34l0.57,-1.33l0.57,-1.3l0.58,-1.31l0.6,-1.3l0.58,-1.26l0.6,-1.26l0.62,-1.26l0.61,-1.23l0.62,-1.24l0.63,-1.21l0.62,-1.2l0.66,-1.23l0.63,-1.17l0.65,-1.19l0.65,-1.18l0.65,-1.15l0.66,-1.16l0.66,-1.15l0.66,-1.14l0.68,-1.15l0.66,-1.12l0.67,-1.12l0.67,-1.12l0.67,-1.1l0.66,-1.1l0.69,-1.13l0.67,-1.09l0.68,-1.11l0.69,-1.1l0.66,-1.06l0.67,-1.1zm0,0c2.92,-4.72 15.89,-10.36 28.96,-12.58c13.07,-2.22 21.3,-0.18 18.38,4.54l-47.34,8.04z" id="svg_47"/>
   </g>
   <g id="svg_48">
    <path class="fil1" d="m7519.9,1726.53c0.01,4.12 -10.84,10.07 -24.23,13.27c-13.39,3.2 -24.26,2.45 -24.27,-1.67l48.5,-11.6zm-50.14,-637.28l48.5,-11.6l0,0l0.03,13.48l0.04,14.12l0.03,14.75l0.04,15.36l0.04,15.94l0.04,16.51l0.04,17.05l0.05,17.57l0.04,18.08l0.05,18.55l0.05,19.01l0.04,19.46l0.05,19.87l0.06,20.26l0.05,20.65l0.05,21l0.05,21.33l0.06,21.64l0.05,21.94l0.06,22.21l0.06,22.46l0.06,22.69l0.05,22.9l0.06,23.09l0.06,23.26l0.06,23.4l0.06,23.52l0.06,23.63l0.07,23.72l0.06,23.77l0.06,23.82l0.06,23.84l-48.5,11.6l-0.06,-23.84l-0.06,-23.82l-0.06,-23.77l-0.07,-23.72l-0.06,-23.63l-0.06,-23.52l-0.06,-23.4l-0.06,-23.26l-0.06,-23.09l-0.05,-22.9l-0.06,-22.69l-0.06,-22.46l-0.06,-22.21l-0.05,-21.94l-0.06,-21.64l-0.05,-21.33l-0.05,-21l-0.05,-20.65l-0.06,-20.26l-0.05,-19.87l-0.04,-19.46l-0.05,-19.01l-0.05,-18.55l-0.04,-18.08l-0.05,-17.57l-0.04,-17.05l-0.04,-16.51l-0.04,-15.94l-0.04,-15.36l-0.03,-14.75l-0.04,-14.12l-0.03,-13.48l0,0zm-0.58,-213.26l48.5,-11.6l0,0l0.01,4.34l0.01,4.24l0.01,4.18l0.01,4.12l0.01,4.1l0.02,4.1l0.01,4.13l0.01,4.18l0.01,4.26l0.01,4.35l0.01,4.49l0.02,4.63l0.01,4.8l0.01,5.01l0.02,5.23l0.01,5.47l0.02,5.76l0.02,6.05l0.01,6.37l0.02,6.72l0.02,7.09l0.02,7.49l0.02,7.91l0.03,8.36l0.02,8.82l0.03,9.33l0.02,9.84l0.03,10.39l0.03,10.96l0.03,11.55l0.04,12.17l0.03,12.82l-48.5,11.6l-0.03,-12.82l-0.04,-12.17l-0.03,-11.55l-0.03,-10.96l-0.03,-10.39l-0.02,-9.84l-0.03,-9.33l-0.02,-8.82l-0.03,-8.36l-0.02,-7.91l-0.02,-7.49l-0.02,-7.09l-0.02,-6.72l-0.01,-6.37l-0.02,-6.05l-0.02,-5.76l-0.01,-5.47l-0.02,-5.23l-0.01,-5.01l-0.01,-4.8l-0.02,-4.63l-0.01,-4.49l-0.01,-4.35l-0.01,-4.26l-0.01,-4.18l-0.01,-4.13l-0.02,-4.1l-0.01,-4.1l-0.01,-4.12l-0.01,-4.18l-0.01,-4.24l-0.01,-4.34l0,0zm-0.46,-182.28l48.5,-11.6l0.02,6.35l0.01,6.34l0.02,6.33l0.01,6.32l0.02,6.31l0.02,6.29l0.01,6.26l0.02,6.24l0.01,6.21l0.02,6.17l0.01,6.14l0.02,6.09l0.01,6.05l0.02,6l0.01,5.94l0.02,5.89l0.01,5.83l0.02,5.76l0.01,5.7l0.02,5.62l0.01,5.54l0.01,5.47l0.02,5.38l0.01,5.3l0.01,5.2l0.02,5.11l0.01,5.01l0.01,4.91l0.01,4.8l0.02,4.69l0.01,4.57l0.01,4.46l-48.5,11.6l-0.01,-4.46l-0.01,-4.57l-0.02,-4.69l-0.01,-4.8l-0.01,-4.91l-0.01,-5.01l-0.02,-5.11l-0.01,-5.2l-0.01,-5.3l-0.02,-5.38l-0.01,-5.47l-0.01,-5.54l-0.02,-5.62l-0.01,-5.7l-0.02,-5.76l-0.01,-5.83l-0.02,-5.89l-0.01,-5.94l-0.02,-6l-0.01,-6.05l-0.02,-6.09l-0.01,-6.14l-0.02,-6.17l-0.01,-6.21l-0.02,-6.24l-0.01,-6.26l-0.02,-6.29l-0.02,-6.31l-0.01,-6.32l-0.02,-6.33l-0.01,-6.34l-0.02,-6.35zm0,0c-0.01,-4.12 10.84,-10.07 24.23,-13.27c13.39,-3.2 24.26,-2.45 24.27,1.67l-48.5,11.6z" id="svg_49"/>
   </g>
   <g id="svg_50">
    <path class="fil1" d="m7935.81,1727.72c0.01,4.12 -10.84,10.07 -24.23,13.27c-13.39,3.2 -24.26,2.45 -24.27,-1.67l48.5,-11.6zm-50.15,-637.28l48.5,-11.6l0,0l0.03,13.48l0.04,14.12l0.04,14.75l0.03,15.36l0.04,15.94l0.04,16.51l0.05,17.05l0.04,17.57l0.05,18.07l0.04,18.55l0.05,19.02l0.05,19.45l0.05,19.87l0.05,20.27l0.05,20.64l0.06,21l0.05,21.33l0.05,21.65l0.06,21.94l0.06,22.21l0.05,22.46l0.06,22.69l0.06,22.9l0.06,23.09l0.06,23.25l0.06,23.4l0.06,23.53l0.06,23.63l0.06,23.71l0.06,23.78l0.07,23.82l0.06,23.84l-48.5,11.6l-0.06,-23.84l-0.07,-23.82l-0.06,-23.78l-0.06,-23.71l-0.06,-23.63l-0.06,-23.53l-0.06,-23.4l-0.06,-23.25l-0.06,-23.09l-0.06,-22.9l-0.06,-22.69l-0.05,-22.46l-0.06,-22.21l-0.06,-21.94l-0.05,-21.65l-0.05,-21.33l-0.06,-21l-0.05,-20.64l-0.05,-20.27l-0.05,-19.87l-0.05,-19.45l-0.05,-19.02l-0.04,-18.55l-0.05,-18.07l-0.04,-17.57l-0.05,-17.05l-0.04,-16.51l-0.04,-15.94l-0.03,-15.36l-0.04,-14.75l-0.04,-14.12l-0.03,-13.48l0,0zm-0.58,-213.26l48.5,-11.6l0,0l0.01,4.34l0.01,4.24l0.01,4.17l0.01,4.13l0.01,4.1l0.02,4.1l0.01,4.13l0.01,4.18l0.01,4.25l0.01,4.36l0.01,4.48l0.02,4.63l0.01,4.81l0.01,5l0.02,5.23l0.01,5.48l0.02,5.75l0.02,6.05l0.01,6.37l0.02,6.72l0.02,7.1l0.02,7.49l0.02,7.91l0.03,8.35l0.02,8.83l0.03,9.33l0.02,9.84l0.03,10.39l0.03,10.96l0.03,11.55l0.04,12.17l0.03,12.82l-48.5,11.6l-0.03,-12.82l-0.04,-12.17l-0.03,-11.55l-0.03,-10.96l-0.03,-10.39l-0.02,-9.84l-0.03,-9.33l-0.02,-8.83l-0.03,-8.35l-0.02,-7.91l-0.02,-7.49l-0.02,-7.1l-0.02,-6.72l-0.01,-6.37l-0.02,-6.05l-0.02,-5.75l-0.01,-5.48l-0.02,-5.23l-0.01,-5l-0.01,-4.81l-0.02,-4.63l-0.01,-4.48l-0.01,-4.36l-0.01,-4.25l-0.01,-4.18l-0.01,-4.13l-0.02,-4.1l-0.01,-4.1l-0.01,-4.13l-0.01,-4.17l-0.01,-4.24l-0.01,-4.34l0,0zm-0.46,-182.28l48.5,-11.6l0.02,6.35l0.01,6.34l0.02,6.33l0.01,6.32l0.02,6.31l0.02,6.29l0.01,6.26l0.02,6.24l0.01,6.21l0.02,6.17l0.02,6.14l0.01,6.09l0.02,6.05l0.01,6l0.02,5.94l0.01,5.89l0.02,5.83l0.01,5.76l0.02,5.7l0.01,5.62l0.01,5.54l0.02,5.47l0.01,5.38l0.02,5.3l0.01,5.2l0.01,5.11l0.01,5.01l0.02,4.91l0.01,4.8l0.01,4.69l0.01,4.57l0.01,4.46l-48.5,11.6l-0.01,-4.46l-0.01,-4.57l-0.01,-4.69l-0.01,-4.8l-0.02,-4.91l-0.01,-5.01l-0.01,-5.11l-0.01,-5.2l-0.02,-5.3l-0.01,-5.38l-0.02,-5.47l-0.01,-5.54l-0.01,-5.62l-0.02,-5.7l-0.01,-5.76l-0.02,-5.83l-0.01,-5.89l-0.02,-5.94l-0.01,-6l-0.02,-6.05l-0.01,-6.09l-0.02,-6.14l-0.02,-6.17l-0.01,-6.21l-0.02,-6.24l-0.01,-6.26l-0.02,-6.29l-0.02,-6.31l-0.01,-6.32l-0.02,-6.33l-0.01,-6.34l-0.02,-6.35zm0,0c-0.01,-4.12 10.84,-10.07 24.23,-13.27c13.39,-3.2 24.26,-2.45 24.27,1.67l-48.5,11.6z" id="svg_51"/>
   </g>
   <g id="svg_52">
    <path class="fil1" d="m8476.91,935.79c2.2,3.54 -6.72,9.53 -19.93,13.36c-13.21,3.83 -25.71,4.06 -27.91,0.52l47.84,-13.88zm-125.62,-92.61l47.14,-14.78l0,0l3.01,3.13l2.96,3.16l2.9,3.19l2.86,3.19l2.81,3.22l2.76,3.24l2.72,3.25l2.68,3.27l2.63,3.29l2.6,3.3l2.55,3.32l2.53,3.33l2.49,3.34l2.45,3.36l2.42,3.38l2.4,3.37l2.36,3.4l2.35,3.4l2.32,3.41l2.29,3.41l2.28,3.43l2.25,3.43l2.24,3.44l2.22,3.45l2.21,3.44l2.19,3.46l2.18,3.47l2.18,3.45l2.17,3.46l2.16,3.46l2.16,3.48l2.15,3.46l-47.84,13.88l-2.15,-3.46l-2.16,-3.46l-2.16,-3.46l-2.17,-3.46l-2.16,-3.45l-2.18,-3.45l-2.19,-3.44l-2.19,-3.44l-2.22,-3.43l-2.22,-3.42l-2.25,-3.41l-2.26,-3.41l-2.27,-3.39l-2.3,-3.39l-2.33,-3.38l-2.34,-3.36l-2.38,-3.35l-2.4,-3.34l-2.43,-3.32l-2.47,-3.32l-2.49,-3.29l-2.53,-3.28l-2.56,-3.26l-2.61,-3.25l-2.64,-3.23l-2.68,-3.21l-2.72,-3.18l-2.77,-3.18l-2.82,-3.15l-2.86,-3.13l-2.9,-3.1l-2.97,-3.09l0,0zm-116.64,-82.15l44.44,-16.6l0,0l4.24,2l4.22,2.05l4.18,2.11l4.17,2.15l4.14,2.19l4.11,2.24l4.07,2.28l4.07,2.32l4.02,2.37l4,2.41l3.95,2.44l3.94,2.49l3.89,2.53l3.86,2.57l3.83,2.61l3.79,2.63l3.76,2.68l3.71,2.71l3.68,2.75l3.63,2.78l3.59,2.81l3.56,2.85l3.5,2.86l3.46,2.91l3.43,2.94l3.36,2.96l3.32,2.99l3.27,3.02l3.22,3.03l3.18,3.08l3.12,3.09l3.07,3.12l-47.14,14.78l-3.01,-3.06l-3.06,-3.03l-3.12,-3.02l-3.16,-2.99l-3.21,-2.96l-3.28,-2.93l-3.3,-2.92l-3.35,-2.88l-3.4,-2.85l-3.44,-2.82l-3.48,-2.79l-3.53,-2.75l-3.57,-2.74l-3.6,-2.69l-3.63,-2.65l-3.68,-2.62l-3.71,-2.59l-3.75,-2.55l-3.78,-2.51l-3.81,-2.47l-3.84,-2.43l-3.87,-2.4l-3.9,-2.35l-3.92,-2.31l-3.95,-2.26l-3.99,-2.22l-3.99,-2.18l-4.02,-2.13l-4.05,-2.09l-4.06,-2.03l-4.08,-1.99l-4.1,-1.94l0,0zm-115.22,-40.15l42.3,-17.42l0,0l2.26,0.69l2.41,0.73l2.54,0.77l2.69,0.79l2.81,0.84l2.93,0.85l3.06,0.91l3.16,0.93l3.28,0.98l3.35,1l3.45,1.04l3.58,1.08l3.64,1.12l3.71,1.16l3.78,1.19l3.87,1.24l3.92,1.27l3.98,1.32l4.02,1.35l4.09,1.4l4.13,1.45l4.15,1.48l4.2,1.53l4.21,1.57l4.25,1.62l4.26,1.67l4.27,1.71l4.28,1.76l4.28,1.8l4.29,1.86l4.26,1.91l4.25,1.95l-44.44,16.6l-4.13,-1.89l-4.12,-1.85l-4.13,-1.78l-4.16,-1.76l-4.14,-1.7l-4.15,-1.67l-4.12,-1.61l-4.11,-1.56l-4.11,-1.53l-4.08,-1.49l-4.05,-1.44l-4.01,-1.41l-3.97,-1.36l-3.94,-1.33l-3.88,-1.28l-3.82,-1.25l-3.77,-1.2l-3.72,-1.17l-3.65,-1.14l-3.56,-1.1l-3.48,-1.06l-3.43,-1.02l-3.33,-1l-3.24,-0.96l-3.14,-0.93l-3.04,-0.89l-2.93,-0.87l-2.85,-0.84l-2.71,-0.81l-2.6,-0.77l-2.49,-0.75l-2.36,-0.73l0,0zm22.84,147.48l-48.5,11.62l0,0l-0.12,-15.61l-0.11,-14.62l-0.1,-13.66l-0.07,-12.74l-0.05,-11.83l-0.02,-10.97l0.01,-10.13l0.05,-9.35l0.09,-8.56l0.14,-7.83l0.18,-7.12l0.24,-6.45l0.3,-5.81l0.36,-5.2l0.43,-4.62l0.5,-4.1l0.58,-3.6l0.69,-3.16l0.8,-2.75l0.95,-2.45l1.22,-2.28l1.82,-2.38l3.48,-3.04l9.04,-4.92l17.06,-5.17l11.84,-1.43l5.83,0.18l3.51,0.51l2.6,0.59l2.27,0.62l2.23,0.67l2.21,0.69l-42.3,17.42l-2.13,-0.67l-1.85,-0.55l-1.53,-0.42l-0.96,-0.23l0.21,0.01l2.75,0.06l9.02,-1.13l14.44,-4.39l6.64,-3.56l1.28,-1.08l-0.18,0.26l-0.58,1.1l-0.67,1.73l-0.66,2.29l-0.61,2.82l-0.54,3.36l-0.48,3.92l-0.43,4.5l-0.34,5.1l-0.3,5.73l-0.24,6.39l-0.18,7.08l-0.14,7.79l-0.09,8.54l-0.05,9.31l-0.01,10.13l0.02,10.95l0.05,11.83l0.07,12.72l0.1,13.66l0.11,14.62l0.12,15.61l0,0zm6.87,864.51l-48.5,11.62l-0.26,-32.46l-0.25,-32.43l-0.26,-32.36l-0.25,-32.27l-0.26,-32.14l-0.25,-31.98l-0.25,-31.79l-0.25,-31.56l-0.25,-31.31l-0.25,-31.03l-0.24,-30.7l-0.24,-30.35l-0.24,-29.97l-0.23,-29.55l-0.23,-29.11l-0.23,-28.63l-0.22,-28.12l-0.22,-27.57l-0.22,-27l-0.21,-26.4l-0.2,-25.75l-0.2,-25.08l-0.2,-24.39l-0.19,-23.64l-0.18,-22.89l-0.18,-22.08l-0.17,-21.25l-0.16,-20.39l-0.16,-19.5l-0.15,-18.57l-0.14,-17.62l-0.13,-16.62l48.5,-11.62l0.13,16.62l0.14,17.62l0.15,18.57l0.16,19.5l0.16,20.39l0.17,21.25l0.18,22.08l0.18,22.89l0.19,23.64l0.2,24.39l0.2,25.08l0.2,25.75l0.21,26.4l0.22,27l0.22,27.57l0.22,28.12l0.23,28.63l0.23,29.11l0.23,29.55l0.24,29.97l0.24,30.35l0.24,30.7l0.25,31.03l0.25,31.31l0.25,31.56l0.25,31.79l0.25,31.98l0.26,32.14l0.25,32.27l0.26,32.36l0.25,32.43l0.26,32.46zm0,0c0.03,4.12 -10.8,10.07 -24.19,13.27c-13.39,3.2 -24.28,2.47 -24.31,-1.65l48.5,-11.62z" id="svg_53"/>
   </g>
   <g id="svg_54">
    <path class="fil1" d="m8429.33,1509.57c2.93,-4.72 15.92,-10.36 28.98,-12.57c13.06,-2.21 21.27,-0.17 18.34,4.55l-47.32,8.02zm-31.88,100.26l-45.18,5.36l-0.01,0l2.9,-3.01l2.84,-3.03l2.81,-3.08l2.77,-3.09l2.71,-3.12l2.68,-3.14l2.65,-3.16l2.6,-3.19l2.57,-3.2l2.54,-3.22l2.49,-3.25l2.48,-3.28l2.44,-3.26l2.4,-3.3l2.39,-3.32l2.36,-3.33l2.33,-3.33l2.32,-3.36l2.28,-3.36l2.26,-3.39l2.26,-3.39l2.23,-3.4l2.22,-3.41l2.21,-3.42l2.18,-3.42l2.19,-3.44l2.17,-3.44l2.16,-3.45l2.17,-3.45l2.15,-3.46l2.16,-3.46l2.15,-3.46l47.32,-8.02l-2.15,3.46l-2.16,3.48l-2.17,3.46l-2.17,3.47l-2.18,3.47l-2.19,3.46l-2.19,3.46l-2.22,3.46l-2.23,3.46l-2.24,3.45l-2.27,3.46l-2.28,3.43l-2.3,3.43l-2.34,3.44l-2.36,3.42l-2.37,3.41l-2.42,3.41l-2.43,3.38l-2.48,3.4l-2.52,3.38l-2.54,3.36l-2.59,3.35l-2.62,3.34l-2.67,3.34l-2.72,3.31l-2.75,3.3l-2.8,3.28l-2.87,3.28l-2.91,3.25l-2.95,3.24l-3.02,3.23l-3.08,3.21l-0.01,0zm-126.2,88.32l-28.76,-5.16l-0.03,0.01l3.61,-1.7l3.59,-1.76l3.7,-1.86l3.67,-1.88l3.59,-1.91l3.65,-1.98l3.66,-2.05l3.63,-2.08l3.64,-2.15l3.64,-2.19l3.61,-2.24l3.61,-2.28l3.58,-2.32l3.57,-2.37l3.56,-2.43l3.53,-2.46l3.5,-2.49l3.47,-2.53l3.45,-2.58l3.42,-2.61l3.39,-2.66l3.36,-2.68l3.3,-2.72l3.3,-2.77l3.24,-2.77l3.2,-2.82l3.18,-2.86l3.11,-2.86l3.08,-2.92l3.05,-2.94l2.98,-2.95l2.94,-2.99l45.18,-5.36l-3.14,3.19l-3.2,3.17l-3.25,3.14l-3.3,3.12l-3.37,3.12l-3.42,3.06l-3.46,3.06l-3.54,3.03l-3.56,2.99l-3.64,2.98l-3.68,2.94l-3.73,2.92l-3.78,2.89l-3.83,2.86l-3.87,2.83l-3.94,2.81l-3.97,2.76l-4.02,2.73l-4.07,2.71l-4.12,2.68l-4.17,2.64l-4.21,2.6l-4.26,2.57l-4.3,2.53l-4.39,2.52l-4.4,2.45l-4.45,2.44l-4.57,2.41l-4.55,2.34l-4.54,2.28l-4.71,2.3l-4.73,2.24l-0.03,0.01zm-125.22,43.95l-10.9,-11.96l-0.06,0.02l2.76,-0.85l2.73,-0.83l2.79,-0.83l2.8,-0.83l2.93,-0.87l2.99,-0.88l2.99,-0.88l3.06,-0.9l3.1,-0.93l3.27,-0.98l3.3,-0.98l3.21,-0.97l3.25,-1.01l3.45,-1.08l3.51,-1.1l3.43,-1.1l3.47,-1.12l3.54,-1.18l3.59,-1.2l3.62,-1.24l3.54,-1.24l3.67,-1.32l3.62,-1.31l3.62,-1.35l3.7,-1.41l3.66,-1.43l3.67,-1.47l3.61,-1.48l3.63,-1.53l3.63,-1.58l3.66,-1.64l3.62,-1.65l28.76,5.16l-4.76,2.19l-4.72,2.1l-4.79,2.08l-4.81,2.03l-4.81,1.98l-4.75,1.89l-4.72,1.85l-4.66,1.77l-4.7,1.77l-4.66,1.69l-4.53,1.62l-4.6,1.6l-4.44,1.52l-4.37,1.48l-4.32,1.42l-4.27,1.4l-4.21,1.34l-3.99,1.26l-3.91,1.22l-3.95,1.21l-3.85,1.17l-3.58,1.08l-3.41,1.02l-3.42,1.01l-3.24,0.96l-3.11,0.92l-2.87,0.84l-2.73,0.81l-2.6,0.77l-2.35,0.71l-2.17,0.65l-1.86,0.57l-0.06,0.02zm-52.26,-162.21l48.5,-11.54l0,0l-0.12,15.6l-0.11,14.62l-0.1,13.66l-0.07,12.73l-0.05,11.82l-0.02,10.96l0.01,10.12l0.05,9.32l0.09,8.54l0.14,7.79l0.18,7.08l0.24,6.39l0.3,5.73l0.34,5.11l0.43,4.5l0.48,3.94l0.55,3.38l0.62,2.87l0.68,2.36l0.73,1.89l0.75,1.41l0.72,0.95l0.56,0.51l0.11,0.08l-0.86,-0.25l-2.46,-0.25l-4.29,0.17l-4.87,0.71l-2.92,0.63l-0.74,0.2l0.58,-0.18l1.91,-0.6l10.9,11.96l-2.43,0.76l-3.5,1.04l-4.54,1.24l-6.48,1.45l-8.17,1.21l-7.37,0.29l-5.28,-0.55l-3.48,-1.03l-2.29,-1.28l-1.64,-1.45l-1.28,-1.69l-1.05,-1.97l-0.89,-2.29l-0.78,-2.68l-0.68,-3.11l-0.57,-3.58l-0.5,-4.08l-0.43,-4.62l-0.36,-5.19l-0.3,-5.81l-0.24,-6.45l-0.18,-7.12l-0.14,-7.83l-0.09,-8.56l-0.05,-9.34l-0.01,-10.14l0.02,-10.96l0.05,-11.84l0.07,-12.73l0.1,-13.66l0.11,-14.62l0.12,-15.62l0,0zm6.87,-864.51l48.5,-11.54l-0.26,32.46l-0.25,32.43l-0.26,32.36l-0.25,32.27l-0.26,32.14l-0.25,31.98l-0.25,31.79l-0.25,31.56l-0.25,31.31l-0.25,31.03l-0.24,30.7l-0.24,30.35l-0.24,29.97l-0.23,29.56l-0.23,29.11l-0.23,28.62l-0.22,28.12l-0.22,27.58l-0.22,27l-0.21,26.39l-0.2,25.75l-0.2,25.09l-0.2,24.38l-0.19,23.65l-0.18,22.88l-0.18,22.08l-0.17,21.26l-0.16,20.39l-0.16,19.49l-0.15,18.57l-0.14,17.62l-0.13,16.62l-48.5,11.54l0.13,-16.62l0.14,-17.62l0.15,-18.57l0.16,-19.49l0.16,-20.39l0.17,-21.26l0.18,-22.08l0.18,-22.88l0.19,-23.65l0.2,-24.38l0.2,-25.09l0.2,-25.75l0.21,-26.39l0.22,-27l0.22,-27.58l0.22,-28.12l0.23,-28.62l0.23,-29.11l0.23,-29.56l0.24,-29.97l0.24,-30.35l0.24,-30.7l0.25,-31.03l0.25,-31.31l0.25,-31.56l0.25,-31.79l0.25,-31.98l0.26,-32.14l0.25,-32.27l0.26,-32.36l0.25,-32.43l0.26,-32.46zm0,0c0.03,-4.13 10.92,-10.08 24.31,-13.26c13.39,-3.18 24.22,-2.41 24.19,1.72l-48.5,11.54z" id="svg_55"/>
   </g>
   <g id="svg_56">
    <path class="fil1" d="m8072.67,1233.61c-10.58,0 -12.51,-4.24 -4.31,-9.46c8.2,-5.22 23.45,-9.46 34.03,-9.46l-29.72,18.92zm290.06,-18.92l-29.72,18.92l-8.13,0l-8.14,0l-8.13,0l-8.14,0l-8.13,0l-8.14,0l-8.14,0l-8.13,0l-8.14,0l-8.13,0l-8.14,0l-8.13,0l-8.14,0l-8.13,0l-8.14,0l-8.14,0l-8.13,0l-8.14,0l-8.13,0l-8.14,0l-8.14,0l-8.13,0l-8.14,0l-8.13,0l-8.14,0l-8.14,0l-8.13,0l-8.14,0l-8.13,0l-8.14,0l-8.13,0l-8.14,0l29.72,-18.92l8.14,0l8.13,0l8.14,0l8.13,0l8.14,0l8.13,0l8.14,0l8.14,0l8.13,0l8.14,0l8.13,0l8.14,0l8.14,0l8.13,0l8.14,0l8.13,0l8.14,0l8.14,0l8.13,0l8.14,0l8.13,0l8.14,0l8.13,0l8.14,0l8.13,0l8.14,0l8.14,0l8.13,0l8.14,0l8.13,0l8.14,0l8.13,0zm0,0c10.58,0 12.51,4.24 4.31,9.46c-8.2,5.22 -23.45,9.46 -34.03,9.46l29.72,-18.92z" id="svg_57"/>
   </g>
  </g>
 </g>
</svg>