<?xml version="1.0" encoding="UTF-8"?>
<!DOCTYPE svg PUBLIC "-//W3C//DTD SVG 1.1//EN" "http://www.w3.org/Graphics/SVG/1.1/DTD/svg11.dtd">
<!-- Creator: CorelDRAW 2020 (64-Bit) -->
<svg xmlns="http://www.w3.org/2000/svg" xml:space="preserve" width="88.9mm" height="50.8mm" version="1.1" style="shape-rendering:geometricPrecision; text-rendering:geometricPrecision; image-rendering:optimizeQuality; fill-rule:evenodd; clip-rule:evenodd"
viewBox="0 2000 8890 1500"
 xmlns:xlink="http://www.w3.org/1999/xlink"
 xmlns:xodm="http://www.corel.com/coreldraw/odm/2003">
 <defs>
  <style type="text/css">
   <![CDATA[
    .fil0 {fill:#402A54}
    .fil1 {fill:#402A54;fill-rule:nonzero}
   ]]>
  </style>
 </defs>
 <g id="Слой_x0020_1">
  <metadata id="CorelCorpID_0Corel-Layer"/>
  <path class="fil0" d="M868.3 637.14c-174.38,0 -309.94,51.08 -401.55,146.02 29.17,-12.8 52.67,-20.29 74.58,-28.71 29.15,-11.2 55.48,-24.05 79.85,-35.46 24.37,-11.42 46.78,-21.4 63.55,-26.92 16.78,-5.52 27.93,-6.58 41.35,-5.2 13.44,1.38 29.16,5.2 44.44,7.96 15.3,2.76 30.17,4.46 44.39,4.83 14.23,0.38 27.82,-0.58 37.58,-0.74 9.78,-0.16 15.73,0.48 22.15,2.02 6.42,1.54 13.33,3.98 21.28,7.96 7.97,3.98 16.99,9.5 25.65,14.02 8.65,4.51 16.94,8.01 24.53,11.09 7.6,3.08 14.49,5.73 20.38,9.4 5.9,3.66 10.78,8.34 15.67,14.34 4.88,5.99 9.77,13.32 14.34,18.31 4.56,4.99 8.8,7.65 12.84,10.09 4.04,2.44 7.86,4.67 8.97,7.54 1.12,2.86 -0.47,6.37 -2.38,8.76 -1.92,2.39 -4.15,3.66 -6.22,4.35 -2.07,0.69 -3.98,0.79 -4.2,1.65 -0.21,0.84 1.28,2.44 4.94,5.94 3.66,3.51 9.51,8.92 15.08,14.87 5.58,5.94 10.89,12.43 17.31,20.08 6.42,7.64 13.96,16.44 21.28,24.52 7.33,8.06 14.45,15.39 20.82,21.34 6.38,5.94 12,10.51 15.51,14.81 3.5,4.3 4.88,8.33 4.93,11.15 0.06,2.81 -1.21,4.4 -2.23,5.47 -1,1.06 -1.75,1.59 0.48,4.08 2.23,2.49 7.43,6.96 11.15,10.3 3.72,3.35 5.95,5.58 7.06,8.55 1.12,2.98 1.12,6.69 -0.43,9.88 -1.53,3.18 -4.62,5.84 -7.85,7.38 -3.24,1.54 -6.63,1.96 -9.29,1.54 -2.65,-0.43 -4.57,-1.7 -5.89,-2.76 -1.33,-1.06 -2.08,-1.92 -2.44,-1.33 -0.38,0.59 -0.38,2.6 -1.34,5.15 -0.95,2.55 -2.85,5.63 -5.62,7.65 -2.76,2.01 -6.37,2.97 -12.48,2.12 -6.11,-0.85 -14.7,-3.51 -22.24,-6.53 -7.54,-3.03 -14.02,-6.43 -18.1,-8.76 -4.1,-2.34 -5.79,-3.61 -7.81,-2.97 -2.02,0.63 -4.36,3.18 -8.93,4.03 -4.56,0.85 -11.35,0 -21.23,-2.44 -9.87,-2.44 -22.83,-6.48 -36.95,-11.99 -14.12,-5.53 -29.41,-12.54 -43.11,-19.12 -13.69,-6.58 -25.8,-12.75 -36.11,-16.57 -10.29,-3.82 -18.79,-5.3 -31.21,-8.92 -12.42,-3.61 -28.77,-9.34 -44.28,-15.92 -15.5,-6.59 -30.15,-14.02 -42.68,-21.77 -12.53,-7.75 -22.93,-15.82 -31,-23.15 -8.08,-7.32 -13.81,-13.91 -19.33,-18.47 -5.52,-4.57 -10.84,-7.12 -17.52,-5.42 -6.69,1.7 -14.76,7.64 -25.48,15.71 -10.73,8.08 -24.11,18.27 -39.61,32.81 -15.51,14.55 -33.13,33.46 -48.95,47.58 -15.82,14.12 -29.83,23.46 -50.54,32.81 -20.7,9.34 -48.1,18.68 -79.47,31.35 -31.37,12.67 -66.71,28.66 -87.35,39.09 -10.15,5.13 -16.75,8.92 -21.52,11.7 -9.41,47.07 -14.2,97.94 -14.2,152.4 0,346.23 199.69,572.91 545.91,572.91 299.88,0 494.3,-165.6 540.97,-434.9 -8.85,12.98 -17.11,25.16 -26.17,36.91 -19.31,25.06 -42.23,48.18 -58.59,63.94 -16.35,15.75 -26.15,24.14 -38.52,38.07 -12.38,13.93 -27.32,33.4 -39.44,51.38 -12.11,17.98 -21.39,34.46 -36.17,45.68 -14.77,11.23 -35.05,17.2 -57.85,26.04 -22.8,8.84 -48.12,20.55 -75.4,31.62 -27.27,11.06 -56.49,21.49 -82.67,28.41 -26.17,6.93 -49.32,10.38 -75.05,15.13 -25.73,4.73 -54.06,10.78 -73.26,15.07 -19.21,4.3 -29.3,6.84 -35.54,6.15 -6.24,-0.69 -8.63,-4.63 -10.08,-8.13 -1.46,-3.49 -1.99,-6.56 -1.52,-9.14 0.46,-2.58 1.9,-4.67 3.61,-6.45 1.73,-1.78 3.72,-3.25 5.37,-4.11 1.65,-0.87 2.97,-1.13 3.56,-1.23 0.6,-0.11 0.48,-0.07 -0.35,-0.15 -0.83,-0.09 -2.37,-0.3 -5.28,-0.48 -2.92,-0.19 -7.2,-0.34 -11.44,-0.13 -4.24,0.2 -8.44,0.78 -13.63,1.4 -5.21,0.61 -11.42,1.25 -18.64,2.5 -7.22,1.24 -15.45,3.09 -21.39,3.99 -5.93,0.9 -9.55,0.86 -12.49,-0.13 -2.95,-1 -5.2,-2.97 -6.96,-5.44 -1.75,-2.47 -3.02,-5.44 -3.11,-8.11 -0.09,-2.65 0.99,-5.01 2.01,-6.86 1.04,-1.85 2.01,-3.2 2.33,-3.89 0.33,-0.7 -0.01,-0.73 -1.41,-0.73 -1.39,0 -3.85,0.02 -7.55,0.62 -3.68,0.61 -8.61,1.77 -12.83,2.83 -4.21,1.05 -7.7,1.97 -10.59,2.04 -2.89,0.07 -5.15,-0.72 -7.35,-2.12 -2.21,-1.4 -4.35,-3.4 -5.6,-5.91 -1.25,-2.5 -1.62,-5.5 -1.57,-8.48 0.06,-2.99 0.53,-5.95 1.27,-7.71 0.74,-1.77 1.75,-2.34 2.19,-2.85 0.45,-0.52 0.32,-0.98 -0.24,-2.38 -0.55,-1.39 -1.54,-3.73 -1.88,-5.8 -0.35,-2.08 -0.05,-3.89 0.86,-6.28 0.92,-2.4 2.45,-5.37 4.25,-7.83 1.82,-2.47 3.93,-4.43 7.94,-7.63 4.01,-3.19 9.94,-7.61 15.8,-10.87 5.87,-3.25 11.67,-5.34 16.3,-6.68 4.64,-1.35 8.11,-1.94 11.52,-3.16 3.42,-1.21 6.79,-3.05 11.91,-5.01 5.12,-1.96 11.98,-4.05 18.48,-5.68 6.51,-1.62 12.66,-2.78 16.65,-3.32 4,-0.54 5.84,-0.47 8.33,-1.69 2.5,-1.23 5.66,-3.76 6.81,-5.4 1.14,-1.64 0.27,-2.4 -1.59,-4.13 -1.86,-1.72 -4.71,-4.42 -6.75,-7.14 -2.05,-2.72 -3.27,-5.47 -3.59,-9.22 -0.31,-3.74 0.29,-8.49 1.3,-12.15 1.02,-3.67 2.46,-6.26 5.82,-9.13 3.37,-2.87 8.66,-6.01 16.13,-9.68 7.47,-3.69 17.12,-7.9 27.07,-10.98 9.95,-3.09 20.2,-5.06 28.93,-6.8 8.73,-1.73 15.92,-3.23 24.31,-5.89 8.4,-2.66 18.01,-6.48 26.59,-10.94 8.58,-4.46 16.15,-9.55 23.86,-13.92 7.7,-4.39 15.56,-8.05 25.42,-10.53 9.87,-2.49 21.73,-3.79 32.93,-5.97 11.2,-2.18 21.73,-5.24 34.21,-6.86 12.49,-1.64 26.92,-1.83 36.36,-1.51 9.43,0.32 13.87,1.16 18.63,3.5 4.76,2.33 9.85,6.14 13.94,9.04 4.08,2.91 7.18,4.9 12.04,5.7 4.86,0.8 11.49,0.42 17.39,-1.07 5.91,-1.49 11.09,-4.09 16.29,-7.19 5.21,-3.1 10.44,-6.69 18.74,-15.56 8.31,-8.88 19.7,-23.02 32.71,-43.25 13.02,-20.23 27.66,-46.55 57.42,-88.32 29.77,-41.77 74.65,-98.99 101.53,-137.25 26.89,-38.27 35.79,-57.58 45.83,-74.93 2.83,-4.88 5.73,-9.6 8.69,-14.08 -27.17,-168.2 -111.13,-282.42 -276.42,-364.1 -83.6,-41.31 -172.26,-51.15 -271.86,-51.15z"/>
  <g>
   <path class="fil1" d="M2914.29 1282.59c13.32,-3.61 25.26,-3.48 26.66,0.29 1.4,3.77 -8.26,9.76 -21.58,13.37l-5.08 -13.66zm-91.61 53.58l-36.64 -1.04 0 0 4.83 -2.83 4.73 -2.72 4.68 -2.63 4.61 -2.52 4.57 -2.45 4.53 -2.34 4.43 -2.25 4.46 -2.19 4.39 -2.09 4.29 -2 4.28 -1.93 4.25 -1.86 4.2 -1.78 4.18 -1.73 4.25 -1.69 4.1 -1.58 4.02 -1.51 4.04 -1.46 3.99 -1.4 3.91 -1.34 3.89 -1.29 3.8 -1.21 3.64 -1.14 3.75 -1.15 3.63 -1.07 3.4 -1 3.43 -0.98 3.42 -0.96 3.32 -0.92 3.06 -0.83 3.08 -0.85 3.09 -0.84 5.08 13.66 -2.89 0.78 -2.9 0.79 -2.94 0.81 -2.7 0.74 -2.62 0.74 -2.65 0.76 -2.7 0.78 -2.53 0.75 -2.45 0.75 -2.62 0.82 -2.5 0.81 -2.51 0.83 -2.55 0.86 -2.55 0.9 -2.58 0.94 -2.7 1.01 -2.72 1.04 -2.67 1.07 -2.84 1.17 -2.96 1.26 -3.01 1.32 -3.12 1.41 -3.25 1.5 -3.29 1.57 -3.38 1.67 -3.55 1.79 -3.61 1.88 -3.73 1.99 -3.87 2.12 -3.98 2.23 -4.11 2.36 -4.21 2.47 0 0zm-158.88 138.77l-46.6 6.98 0 0 4.77 -6.11 4.87 -6.03 4.95 -5.93 5.02 -5.84 5.11 -5.75 5.16 -5.66 5.23 -5.55 5.29 -5.47 5.34 -5.37 5.37 -5.27 5.42 -5.18 5.46 -5.08 5.47 -4.97 5.49 -4.87 5.51 -4.77 5.53 -4.69 5.52 -4.55 5.5 -4.47 5.52 -4.36 5.49 -4.26 5.49 -4.15 5.45 -4.04 5.42 -3.94 5.37 -3.81 5.33 -3.72 5.31 -3.63 5.23 -3.49 5.17 -3.38 5.11 -3.28 5.05 -3.17 5 -3.07 4.89 -2.93 36.64 1.04 -4.35 2.61 -4.42 2.71 -4.53 2.85 -4.65 2.98 -4.73 3.1 -4.81 3.21 -4.87 3.31 -4.93 3.44 -5.01 3.57 -5.06 3.66 -5.09 3.78 -5.13 3.89 -5.17 4 -5.18 4.1 -5.22 4.23 -5.24 4.33 -5.23 4.43 -5.23 4.53 -5.23 4.65 -5.23 4.75 -5.2 4.84 -5.18 4.94 -5.15 5.05 -5.12 5.15 -5.07 5.25 -5.03 5.35 -4.98 5.44 -4.91 5.53 -4.84 5.64 -4.79 5.73 -4.69 5.81 -4.61 5.91 0 0zm-101.31 189.58l-48.04 9.42 0 0 1.81 -4.44 1.91 -4.62 1.98 -4.81 2.07 -4.97 2.17 -5.14 2.25 -5.3 2.34 -5.44 2.43 -5.58 2.52 -5.71 2.61 -5.83 2.7 -5.93 2.78 -6.03 2.88 -6.13 2.96 -6.22 3.07 -6.28 3.14 -6.35 3.25 -6.4 3.33 -6.45 3.43 -6.5 3.51 -6.52 3.61 -6.54 3.71 -6.55 3.79 -6.56 3.89 -6.55 3.99 -6.54 4.08 -6.51 4.18 -6.48 4.28 -6.44 4.37 -6.39 4.47 -6.35 4.57 -6.27 4.67 -6.19 46.6 -6.98 -4.53 6.01 -4.45 6.09 -4.35 6.17 -4.27 6.25 -4.18 6.3 -4.1 6.36 -4 6.39 -3.93 6.42 -3.83 6.45 -3.73 6.46 -3.65 6.47 -3.57 6.44 -3.47 6.44 -3.39 6.42 -3.29 6.39 -3.21 6.34 -3.12 6.29 -3.03 6.22 -2.94 6.16 -2.86 6.07 -2.76 5.99 -2.68 5.89 -2.59 5.79 -2.5 5.67 -2.41 5.54 -2.34 5.4 -2.23 5.28 -2.15 5.12 -2.07 4.95 -1.98 4.79 -1.89 4.6 -1.81 4.42 0 0zm-28.54 69.53l-47.7 8.7 -0.01 0.01 0.49 -0.95 0.48 -0.97 0.48 -1 0.49 -1.03 0.48 -1.04 0.5 -1.13 0.52 -1.15 0.51 -1.2 0.55 -1.28 0.56 -1.34 0.58 -1.41 0.61 -1.49 0.64 -1.58 0.67 -1.66 0.7 -1.74 0.74 -1.86 0.78 -1.97 0.82 -2.07 0.87 -2.2 0.92 -2.31 0.95 -2.43 1.03 -2.59 1.08 -2.72 1.14 -2.86 1.2 -3 1.26 -3.18 1.34 -3.34 1.41 -3.5 1.48 -3.68 1.57 -3.86 1.64 -4.05 1.72 -4.23 48.04 -9.42 -1.72 4.23 -1.64 4.05 -1.55 3.84 -1.48 3.68 -1.41 3.5 -1.34 3.32 -1.26 3.16 -1.2 3.02 -1.14 2.86 -1.08 2.7 -1.01 2.57 -0.97 2.45 -0.92 2.31 -0.87 2.2 -0.82 2.07 -0.78 1.97 -0.74 1.86 -0.7 1.78 -0.69 1.68 -0.64 1.58 -0.61 1.51 -0.6 1.45 -0.58 1.38 -0.55 1.3 -0.55 1.28 -0.54 1.21 -0.52 1.15 -0.52 1.14 -0.53 1.11 -0.52 1.06 -0.52 1.05 -0.53 1.05 -0.01 0.01zm-53.56 -47.11l48.48 -11.16 0 0 -0.61 6.9 -0.53 6.42 -0.45 5.94 -0.39 5.49 -0.31 5.05 -0.25 4.62 -0.18 4.21 -0.12 3.82 -0.06 3.44 -0.01 3.07 0.05 2.72 0.1 2.38 0.13 2.05 0.18 1.72 0.22 1.41 0.25 1.12 0.23 0.81 0.21 0.46 0.06 0.1 -0.58 -0.44 -3.97 -1.08 -19.8 2.26 -15.41 5.97 -3.25 2.2 -0.67 0.61 0.03 -0.04 0.26 -0.35 0.37 -0.57 0.45 -0.73 0.46 -0.78 0.47 -0.88 0.5 -0.93 47.7 -8.7 -0.54 1.03 -0.57 1.04 -0.6 1.04 -0.61 0.99 -0.67 1.01 -0.78 1.05 -0.99 1.16 -1.67 1.57 -4.23 2.9 -16.35 6.37 -20.68 2.34 -4.83 -1.36 -1.38 -1.12 -0.68 -0.98 -0.49 -1.08 -0.37 -1.21 -0.31 -1.4 -0.24 -1.65 -0.2 -1.9 -0.15 -2.19 -0.1 -2.48 -0.05 -2.82 0.01 -3.15 0.06 -3.5 0.12 -3.88 0.18 -4.27 0.25 -4.66 0.31 -5.09 0.39 -5.53 0.47 -5.98 0.53 -6.44 0.61 -6.92 0 0zm65.86 -387.29l48.34 -10.3 0 0 -3.53 13.99 -3.41 14.04 -3.32 14.08 -3.22 14.1 -3.12 14.1 -3.02 14.08 -2.92 14.05 -2.83 14.01 -2.74 13.92 -2.62 13.85 -2.54 13.74 -2.45 13.61 -2.35 13.48 -2.25 13.31 -2.17 13.13 -2.07 12.95 -1.98 12.73 -1.89 12.5 -1.79 12.25 -1.72 11.98 -1.62 11.7 -1.53 11.4 -1.45 11.08 -1.36 10.74 -1.27 10.39 -1.18 10.01 -1.1 9.62 -1.02 9.21 -0.94 8.78 -0.85 8.34 -0.77 7.86 -0.69 7.4 -48.48 11.16 0.69 -7.42 0.77 -7.9 0.85 -8.36 0.94 -8.8 1.02 -9.23 1.1 -9.64 1.2 -10.03 1.27 -10.41 1.36 -10.76 1.45 -11.1 1.53 -11.42 1.62 -11.72 1.72 -12 1.81 -12.27 1.89 -12.52 1.98 -12.75 2.07 -12.97 2.17 -13.17 2.27 -13.33 2.35 -13.5 2.45 -13.65 2.54 -13.76 2.64 -13.87 2.74 -13.96 2.83 -14.03 2.92 -14.09 3.04 -14.12 3.12 -14.14 3.24 -14.14 3.32 -14.12 3.43 -14.08 3.53 -14.03 0 0zm153.04 -383.2l47.36 -8.1 0 0 -5.47 9.09 -5.46 9.33 -5.43 9.56 -5.41 9.78 -5.37 10 -5.35 10.22 -5.32 10.41 -5.28 10.62 -5.24 10.82 -5.2 11.01 -5.15 11.2 -5.11 11.37 -5.06 11.56 -5.01 11.73 -4.94 11.88 -4.9 12.05 -4.83 12.2 -4.78 12.36 -4.7 12.5 -4.64 12.64 -4.57 12.77 -4.49 12.9 -4.42 13.04 -4.34 13.14 -4.26 13.25 -4.17 13.37 -4.1 13.47 -4 13.57 -3.9 13.67 -3.83 13.75 -3.71 13.83 -3.62 13.91 -48.34 10.3 3.64 -13.97 3.73 -13.87 3.83 -13.81 3.92 -13.71 4.02 -13.61 4.1 -13.53 4.19 -13.41 4.28 -13.31 4.36 -13.2 4.44 -13.08 4.51 -12.96 4.59 -12.83 4.66 -12.68 4.72 -12.56 4.8 -12.42 4.85 -12.26 4.92 -12.11 4.98 -11.96 5.03 -11.79 5.1 -11.62 5.13 -11.45 5.19 -11.26 5.24 -11.09 5.28 -10.9 5.32 -10.7 5.36 -10.51 5.39 -10.3 5.43 -10.1 5.47 -9.88 5.49 -9.66 5.52 -9.45 5.55 -9.21 0 0zm153.78 -182.6l44 -4.22 0 0 -2.99 2.71 -3.17 2.86 -3.31 3.02 -3.48 3.19 -3.62 3.35 -3.76 3.52 -3.91 3.7 -4.05 3.87 -4.16 4.04 -4.3 4.24 -4.41 4.42 -4.53 4.6 -4.63 4.79 -4.73 4.98 -4.82 5.19 -4.92 5.39 -5 5.58 -5.07 5.77 -5.14 5.99 -5.21 6.19 -5.26 6.41 -5.33 6.61 -5.35 6.82 -5.41 7.06 -5.42 7.26 -5.47 7.48 -5.48 7.71 -5.49 7.94 -5.51 8.16 -5.5 8.39 -5.49 8.62 -5.5 8.86 -47.36 8.1 5.56 -8.98 5.57 -8.76 5.6 -8.51 5.59 -8.3 5.59 -8.06 5.58 -7.85 5.55 -7.62 5.54 -7.4 5.51 -7.18 5.47 -6.98 5.43 -6.75 5.38 -6.55 5.33 -6.33 5.26 -6.13 5.21 -5.93 5.12 -5.72 5.04 -5.51 4.96 -5.33 4.87 -5.14 4.77 -4.93 4.65 -4.74 4.55 -4.54 4.42 -4.36 4.3 -4.18 4.17 -3.99 4.01 -3.8 3.88 -3.62 3.72 -3.45 3.56 -3.25 3.37 -3.08 3.21 -2.9 3.01 -2.73 0 0zm77.34 -24.63l-48.5 11.58 0 0 0 -1.02 -0.01 -0.93 -0.02 -0.86 -0.03 -0.75 -0.05 -0.63 -0.06 -0.5 -0.08 -0.37 -0.08 -0.23 0.02 0.02 0.26 0.28 1.07 0.62 3.42 0.78 9.33 -0.26 12.2 -2.59 8.06 -2.89 3.31 -1.59 1.15 -0.66 0.13 -0.08 -0.36 0.25 -0.65 0.49 -0.85 0.67 -1.11 0.91 -1.33 1.11 -1.45 1.24 -1.62 1.41 -1.82 1.59 -1.93 1.71 -2.12 1.9 -2.3 2.07 -2.47 2.21 -2.63 2.38 -2.82 2.55 -44 4.22 2.82 -2.55 2.67 -2.4 2.49 -2.25 2.32 -2.07 2.18 -1.96 2.07 -1.83 1.9 -1.67 1.78 -1.55 1.71 -1.46 1.55 -1.29 1.51 -1.25 1.55 -1.21 1.51 -1.13 1.6 -1.13 1.87 -1.22 2.69 -1.56 4.69 -2.27 9.26 -3.33 13.24 -2.81 10.21 -0.28 4.18 0.98 1.69 1 0.78 0.88 0.42 0.78 0.24 0.73 0.18 0.77 0.1 0.8 0.07 0.83 0.03 0.87 0.02 0.92 0.01 0.99 0 1.04 0 0zm0.17 211.34l-48.5 11.58 0 0 -0.02 -16.17 -0.01 -15.3 -0.01 -14.42 -0.02 -13.62 -0.01 -12.82 -0.01 -12.03 -0.01 -11.29 -0.01 -10.57 -0.01 -9.87 0 -9.2 -0.01 -8.54 -0.01 -7.95 0 -7.35 -0.01 -6.78 0 -6.25 -0.01 -5.73 0 -5.25 -0.01 -4.77 0 -4.37 0 -3.94 0 -3.56 0 -3.2 -0.01 -2.88 0 -2.59 0 -2.3 0 -2.06 0 -1.83 0 -1.63 0 -1.46 0 -1.31 0 -1.2 0 -1.1 48.5 -11.58 0 1.1 0 1.2 0 1.31 0 1.46 0 1.63 0 1.83 0 2.06 0 2.3 0 2.57 0.01 2.88 0 3.22 0 3.56 0 3.94 0 4.35 0.01 4.79 0 5.25 0.01 5.73 0 6.25 0.01 6.78 0 7.35 0.01 7.93 0.01 8.56 0 9.2 0.01 9.87 0.01 10.57 0.01 11.29 0.01 12.03 0.01 12.8 0.02 13.62 0.01 14.44 0.01 15.3 0.02 16.17 0 0zm0.75 841.09l-48.5 11.58 -0.03 -31.11 -0.03 -31.08 -0.02 -31.03 -0.03 -30.94 -0.03 -30.83 -0.03 -30.68 -0.03 -30.52 -0.02 -30.32 -0.03 -30.09 -0.03 -29.83 -0.03 -29.56 -0.02 -29.24 -0.03 -28.9 -0.02 -28.54 -0.03 -28.12 -0.03 -27.73 -0.02 -27.26 -0.02 -26.78 -0.03 -26.27 -0.02 -25.73 -0.02 -25.16 -0.02 -24.56 -0.03 -23.95 -0.02 -23.31 -0.02 -22.62 -0.01 -21.91 -0.02 -21.17 -0.02 -20.42 -0.02 -19.61 -0.01 -18.8 -0.02 -17.95 -0.01 -17.07 48.5 -11.58 0.01 17.07 0.02 17.95 0.01 18.8 0.02 19.61 0.02 20.42 0.02 21.17 0.01 21.91 0.02 22.62 0.02 23.29 0.03 23.95 0.02 24.58 0.02 25.16 0.02 25.73 0.03 26.27 0.02 26.78 0.02 27.26 0.03 27.71 0.03 28.14 0.02 28.54 0.03 28.9 0.02 29.24 0.03 29.56 0.03 29.83 0.03 30.09 0.02 30.32 0.03 30.52 0.03 30.68 0.03 30.83 0.03 30.94 0.02 31.03 0.03 31.08 0.03 31.11zm0 0c0,4.12 -10.85,10.07 -24.24,13.26 -13.39,3.19 -24.26,2.44 -24.26,-1.68l48.5 -11.58z"/>
  </g>
  <g>
   <path class="fil1" d="M4086.47 839.53c-10.58,0 -12.51,-4.24 -4.31,-9.46 8.2,-5.22 23.45,-9.46 34.03,-9.46l-29.72 18.92zm373.44 441.22l-48.5 11.58 0 0 -0.44 -23.4 -1.29 -23.1 -2.11 -22.77 -2.93 -22.39 -3.72 -22.01 -4.49 -21.58 -5.24 -21.14 -5.96 -20.65 -6.67 -20.14 -7.35 -19.6 -8.02 -19.04 -8.66 -18.44 -9.28 -17.81 -9.88 -17.16 -10.44 -16.47 -11.02 -15.76 -11.53 -15.03 -12.05 -14.23 -12.53 -13.46 -12.99 -12.6 -13.42 -11.75 -13.84 -10.87 -14.21 -9.94 -14.57 -8.99 -14.87 -8.01 -15.14 -7 -15.38 -5.96 -15.51 -4.89 -15.6 -3.8 -15.54 -2.7 -15.34 -1.6 -14.92 -0.51 29.72 -18.92 19.48 0.67 18.62 1.94 17.92 3.1 17.34 4.22 16.83 5.31 16.36 6.34 15.92 7.36 15.49 8.33 15.05 9.29 14.63 10.22 14.16 11.13 13.7 11.99 13.23 12.84 12.73 13.66 12.21 14.45 11.69 15.21 11.14 15.94 10.56 16.65 9.98 17.34 9.36 17.97 8.74 18.6 8.08 19.2 7.41 19.76 6.73 20.3 6 20.81 5.28 21.28 4.51 21.74 3.76 22.17 2.95 22.55 2.13 22.93 1.29 23.26 0.44 23.58 0 0zm-366.64 471.64l27.76 -18.88 13.53 -0.78 12.28 -1.56 11.24 -2.19 10.75 -2.85 11.09 -3.75 11.75 -4.8 12.43 -6.02 12.91 -7.21 13.1 -8.36 13.13 -9.47 13 -10.48 12.77 -11.45 12.44 -12.34 12.07 -13.23 11.66 -14.05 11.18 -14.82 10.69 -15.57 10.17 -16.3 9.63 -16.97 9.04 -17.62 8.44 -18.25 7.83 -18.84 7.17 -19.39 6.51 -19.91 5.83 -20.43 5.11 -20.89 4.38 -21.34 3.64 -21.75 2.86 -22.13 2.06 -22.49 1.27 -22.82 0.42 -23.12 48.5 -11.58 -0.42 23.28 -1.27 23 -2.08 22.67 -2.9 22.33 -3.66 21.95 -4.42 21.54 -5.17 21.11 -5.89 20.65 -6.59 20.17 -7.27 19.65 -7.95 19.12 -8.58 18.55 -9.22 17.96 -9.83 17.35 -10.43 16.7 -11.01 16.05 -11.6 15.36 -12.16 14.65 -12.71 13.93 -13.3 13.2 -13.89 12.45 -14.52 11.7 -15.21 10.95 -16.02 10.22 -16.97 9.49 -18.15 8.76 -19.49 7.96 -20.79 6.99 -21.71 5.77 -21.76 4.25 -21.22 2.7 -20.45 1.18zm0 0c-10.98,0.25 -13.67,-3.76 -6.01,-8.97 7.66,-5.21 22.79,-9.66 33.77,-9.91l-27.76 18.88z"/>
  </g>
  <g>
   <path class="fil1" d="M4101.3 721.9c10.58,0 12.51,4.24 4.31,9.46 -8.2,5.22 -23.45,9.46 -34.03,9.46l29.72 -18.92zm-400.83 509.5l-48.5 11.58 0 0 0.53 -26.12 1.6 -25.79 2.62 -25.42 3.61 -25.01 4.6 -24.58 5.56 -24.13 6.48 -23.63 7.4 -23.1 8.26 -22.55 9.12 -21.96 9.96 -21.35 10.76 -20.7 11.56 -20.04 12.31 -19.32 13.07 -18.6 13.8 -17.85 14.52 -17.06 15.22 -16.26 15.94 -15.45 16.66 -14.61 17.42 -13.76 18.2 -12.92 19.1 -12.05 20.1 -11.2 21.25 -10.34 22.55 -9.39 23.8 -8.32 24.75 -7.05 25.17 -5.54 25.01 -3.93 24.49 -2.29 23.91 -0.76 -29.72 18.92 -18.31 0.56 -17.17 1.61 -16.05 2.51 -15.23 3.36 -14.95 4.25 -15.14 5.3 -15.57 6.51 -16.01 7.78 -16.24 9.06 -16.28 10.29 -16.14 11.44 -15.88 12.56 -15.5 13.59 -15.06 14.59 -14.54 15.54 -13.98 16.42 -13.36 17.29 -12.73 18.12 -12.03 18.88 -11.32 19.64 -10.58 20.34 -9.8 21.01 -9 21.66 -8.16 22.27 -7.3 22.84 -6.42 23.37 -5.5 23.89 -4.56 24.36 -3.59 24.81 -2.6 25.2 -1.58 25.59 -0.53 25.94 0 0zm394.47 502.1l-31.3 18.9 -22.71 -1.19 -21.96 -2.51 -21.29 -3.76 -20.7 -4.97 -20.18 -6.12 -19.65 -7.26 -19.14 -8.35 -18.64 -9.4 -18.13 -10.45 -17.59 -11.45 -17.05 -12.41 -16.5 -13.36 -15.92 -14.27 -15.32 -15.16 -14.7 -16 -14.05 -16.82 -13.39 -17.61 -12.71 -18.38 -11.98 -19.1 -11.26 -19.81 -10.5 -20.48 -9.71 -21.1 -8.89 -21.72 -8.07 -22.3 -7.22 -22.84 -6.32 -23.35 -5.43 -23.85 -4.49 -24.29 -3.54 -24.72 -2.55 -25.11 -1.56 -25.48 -0.52 -25.8 48.5 -11.58 0.52 25.62 1.54 25.3 2.55 24.93 3.5 24.54 4.47 24.13 5.39 23.67 6.28 23.19 7.16 22.68 8.01 22.12 8.83 21.56 9.63 20.94 10.4 20.3 11.16 19.63 11.88 18.92 12.57 18.2 13.25 17.43 13.89 16.62 14.5 15.8 15.12 14.94 15.66 14.03 16.2 13.12 16.71 12.17 17.17 11.17 17.61 10.15 18.02 9.1 18.38 8.01 18.69 6.9 18.94 5.76 19.12 4.59 19.19 3.4 19.16 2.19 18.97 0.99zm0 0c10.23,0.22 11.52,4.64 2.88,9.85 -8.64,5.21 -23.95,9.27 -34.18,9.05l31.3 -18.9z"/>
  </g>
  <g>
   <path class="fil1" d="M4976.95 1744.34c0.01,4.12 -10.84,10.07 -24.23,13.27 -13.39,3.2 -24.26,2.45 -24.27,-1.67l48.5 -11.6zm-50.05 -598.24l48.5 -11.6 0 0 0.03 12.67 0.03 13.27 0.04 13.86 0.03 14.44 0.04 14.98 0.04 15.51 0.04 16.03 0.04 16.51 0.04 16.99 0.04 17.44 0.05 17.87 0.04 18.28 0.05 18.67 0.05 19.05 0.05 19.4 0.05 19.73 0.05 20.05 0.05 20.35 0.05 20.62 0.06 20.87 0.05 21.11 0.06 21.32 0.05 21.53 0.06 21.69 0.05 21.86 0.06 21.99 0.06 22.11 0.06 22.21 0.05 22.29 0.06 22.35 0.06 22.38 0.06 22.41 -48.5 11.6 -0.06 -22.41 -0.06 -22.38 -0.06 -22.35 -0.05 -22.29 -0.06 -22.21 -0.06 -22.11 -0.06 -21.99 -0.05 -21.86 -0.06 -21.69 -0.05 -21.53 -0.06 -21.32 -0.05 -21.11 -0.06 -20.87 -0.05 -20.62 -0.05 -20.35 -0.05 -20.05 -0.05 -19.73 -0.05 -19.4 -0.05 -19.05 -0.05 -18.67 -0.04 -18.28 -0.05 -17.87 -0.04 -17.44 -0.04 -16.99 -0.04 -16.51 -0.04 -16.03 -0.04 -15.51 -0.04 -14.98 -0.03 -14.44 -0.04 -13.86 -0.03 -13.27 -0.03 -12.67 0 0zm-0.55 -200.43l48.5 -11.6 0 0 0.01 4.08 0.01 3.99 0.01 3.92 0.01 3.87 0.01 3.86 0.01 3.85 0.01 3.88 0.01 3.93 0.01 4 0.01 4.09 0.02 4.21 0.01 4.36 0.01 4.51 0.01 4.71 0.02 4.91 0.01 5.15 0.02 5.41 0.01 5.68 0.02 5.99 0.02 6.32 0.02 6.66 0.02 7.04 0.02 7.43 0.02 7.86 0.02 8.3 0.02 8.76 0.03 9.25 0.03 9.76 0.03 10.3 0.03 10.86 0.03 11.44 0.03 12.05 -48.5 11.6 -0.03 -12.05 -0.03 -11.44 -0.03 -10.86 -0.03 -10.3 -0.03 -9.76 -0.03 -9.25 -0.02 -8.76 -0.02 -8.3 -0.02 -7.86 -0.02 -7.43 -0.02 -7.04 -0.02 -6.66 -0.02 -6.32 -0.02 -5.99 -0.01 -5.68 -0.02 -5.41 -0.01 -5.15 -0.02 -4.91 -0.01 -4.71 -0.01 -4.51 -0.01 -4.36 -0.02 -4.21 -0.01 -4.09 -0.01 -4 -0.01 -3.93 -0.01 -3.88 -0.01 -3.85 -0.01 -3.86 -0.01 -3.87 -0.01 -3.92 -0.01 -3.99 -0.01 -4.08 0 0zm-0.44 -171.32l48.5 -11.6 0.02 5.96 0.01 5.96 0.02 5.96 0.01 5.94 0.02 5.93 0.01 5.91 0.02 5.88 0.02 5.87 0.01 5.83 0.02 5.81 0.01 5.76 0.01 5.73 0.02 5.68 0.01 5.64 0.02 5.59 0.01 5.53 0.02 5.48 0.01 5.42 0.01 5.35 0.02 5.28 0.01 5.21 0.01 5.14 0.02 5.06 0.01 4.98 0.01 4.89 0.01 4.8 0.01 4.71 0.02 4.61 0.01 4.51 0.01 4.41 0.01 4.3 0.01 4.19 -48.5 11.6 -0.01 -4.19 -0.01 -4.3 -0.01 -4.41 -0.01 -4.51 -0.02 -4.61 -0.01 -4.71 -0.01 -4.8 -0.01 -4.89 -0.01 -4.98 -0.02 -5.06 -0.01 -5.14 -0.01 -5.21 -0.02 -5.28 -0.01 -5.35 -0.01 -5.42 -0.02 -5.48 -0.01 -5.53 -0.02 -5.59 -0.01 -5.64 -0.02 -5.68 -0.01 -5.73 -0.01 -5.76 -0.02 -5.81 -0.01 -5.83 -0.02 -5.87 -0.02 -5.88 -0.01 -5.91 -0.02 -5.93 -0.01 -5.94 -0.02 -5.96 -0.01 -5.96 -0.02 -5.96zm0 0c-0.01,-4.12 10.84,-10.07 24.23,-13.27 13.39,-3.2 24.26,-2.45 24.27,1.67l-48.5 11.6z"/>
  </g>
  <g>
   <path class="fil1" d="M5374.47 758.53c13.18,-3.88 25.8,-4.19 28.17,-0.7 2.37,3.49 -6.39,9.48 -19.57,13.36l-8.6 -12.66zm-86.75 55.48l-38.62 0.18 -0.01 0.01 4.69 -3 4.62 -2.88 4.55 -2.76 4.5 -2.68 4.44 -2.56 4.37 -2.47 4.3 -2.36 4.28 -2.29 4.25 -2.21 4.23 -2.14 4.17 -2.03 4.08 -1.94 4.14 -1.91 4.07 -1.82 4.07 -1.77 4.02 -1.67 3.93 -1.61 4.01 -1.58 3.94 -1.49 3.76 -1.39 3.78 -1.37 3.84 -1.33 3.65 -1.24 3.62 -1.2 3.52 -1.13 3.49 -1.11 3.44 -1.06 3.25 -0.99 3.14 -0.94 3.12 -0.94 3.15 -0.93 2.96 -0.87 8.6 12.66 -2.9 0.85 -2.73 0.81 -2.76 0.82 -2.78 0.84 -2.67 0.81 -2.52 0.78 -2.51 0.79 -2.5 0.81 -2.48 0.82 -2.49 0.84 -2.36 0.83 -2.48 0.89 -2.58 0.95 -2.48 0.95 -2.49 0.98 -2.65 1.07 -2.68 1.13 -2.71 1.17 -2.83 1.26 -2.88 1.33 -3.06 1.46 -3.09 1.51 -3.17 1.6 -3.27 1.69 -3.4 1.83 -3.54 1.94 -3.61 2.03 -3.72 2.16 -3.82 2.26 -3.95 2.42 -4.06 2.52 -4.17 2.66 -0.01 0.01zm-156.62 148.47l-46.92 7.42 0 0 4.67 -6.49 4.76 -6.4 4.84 -6.3 4.92 -6.21 4.99 -6.1 5.05 -6 5.12 -5.91 5.17 -5.81 5.22 -5.7 5.26 -5.59 5.29 -5.49 5.32 -5.39 5.36 -5.28 5.37 -5.18 5.39 -5.06 5.39 -4.96 5.4 -4.84 5.38 -4.74 5.38 -4.62 5.37 -4.52 5.35 -4.39 5.31 -4.28 5.3 -4.18 5.26 -4.06 5.2 -3.93 5.14 -3.81 5.12 -3.72 5.07 -3.59 4.97 -3.46 4.92 -3.35 4.85 -3.24 4.78 -3.11 38.62 -0.18 -4.28 2.79 -4.39 2.92 -4.5 3.07 -4.59 3.18 -4.65 3.31 -4.74 3.44 -4.82 3.57 -4.88 3.69 -4.94 3.8 -4.96 3.92 -5.03 4.06 -5.07 4.17 -5.09 4.28 -5.12 4.4 -5.14 4.52 -5.16 4.62 -5.15 4.74 -5.17 4.86 -5.15 4.96 -5.14 5.08 -5.12 5.17 -5.11 5.31 -5.08 5.39 -5.02 5.5 -5.01 5.61 -4.94 5.71 -4.89 5.82 -4.85 5.92 -4.76 6.01 -4.7 6.12 -4.64 6.22 -4.53 6.31 0 0zm-99.51 202.15l-48.12 9.6 0 0 1.78 -4.71 1.87 -4.93 1.94 -5.11 2.03 -5.31 2.13 -5.47 2.2 -5.64 2.3 -5.8 2.39 -5.93 2.46 -6.08 2.56 -6.21 2.65 -6.32 2.73 -6.42 2.82 -6.52 2.91 -6.62 3 -6.68 3.09 -6.76 3.18 -6.82 3.26 -6.87 3.36 -6.91 3.45 -6.93 3.53 -6.97 3.64 -6.97 3.72 -6.98 3.81 -6.96 3.9 -6.96 4.01 -6.93 4.09 -6.88 4.19 -6.86 4.28 -6.79 4.38 -6.74 4.48 -6.67 4.57 -6.58 46.92 -7.42 -4.45 6.42 -4.38 6.51 -4.28 6.58 -4.2 6.67 -4.11 6.72 -4.03 6.78 -3.93 6.81 -3.84 6.86 -3.77 6.88 -3.68 6.88 -3.58 6.89 -3.51 6.89 -3.41 6.87 -3.32 6.83 -3.24 6.81 -3.14 6.76 -3.07 6.7 -2.98 6.64 -2.89 6.56 -2.8 6.48 -2.71 6.38 -2.63 6.28 -2.54 6.17 -2.46 6.04 -2.37 5.91 -2.28 5.76 -2.2 5.62 -2.11 5.45 -2.03 5.27 -1.94 5.11 -1.85 4.91 -1.78 4.71 0 0zm-27.98 74l-47.84 8.96 0 0.01 0.47 -1.01 0.48 -1.06 0.48 -1.06 0.48 -1.1 0.49 -1.14 0.48 -1.18 0.5 -1.24 0.52 -1.29 0.52 -1.36 0.56 -1.43 0.57 -1.5 0.6 -1.59 0.63 -1.68 0.66 -1.78 0.68 -1.86 0.73 -1.99 0.77 -2.09 0.8 -2.2 0.85 -2.33 0.9 -2.47 0.95 -2.61 1 -2.74 1.06 -2.89 1.11 -3.05 1.18 -3.21 1.24 -3.38 1.32 -3.55 1.39 -3.73 1.45 -3.91 1.53 -4.12 1.61 -4.3 1.69 -4.52 48.12 -9.6 -1.69 4.5 -1.61 4.3 -1.53 4.1 -1.45 3.91 -1.39 3.73 -1.3 3.55 -1.24 3.36 -1.18 3.21 -1.11 3.05 -1.06 2.89 -1 2.74 -0.95 2.59 -0.9 2.47 -0.85 2.33 -0.8 2.22 -0.77 2.09 -0.73 1.99 -0.7 1.88 -0.66 1.78 -0.63 1.7 -0.6 1.61 -0.59 1.54 -0.56 1.45 -0.54 1.4 -0.54 1.35 -0.52 1.28 -0.52 1.24 -0.51 1.2 -0.5 1.18 -0.52 1.14 -0.5 1.1 -0.53 1.11 0 0.01zm-19.46 30.71l-46.82 7.28 0.64 -0.89 0.63 -0.85 0.61 -0.86 0.65 -0.89 0.63 -0.86 0.61 -0.86 0.62 -0.86 0.61 -0.87 0.63 -0.89 0.59 -0.84 0.61 -0.89 0.62 -0.88 0.59 -0.87 0.6 -0.88 0.59 -0.89 0.59 -0.88 0.57 -0.87 0.58 -0.92 0.58 -0.9 0.55 -0.9 0.58 -0.92 0.54 -0.91 0.56 -0.93 0.53 -0.93 0.55 -0.96 0.54 -0.94 0.51 -0.94 0.52 -0.99 0.52 -0.98 0.5 -0.97 0.5 -1 0.49 -1.01 47.84 -8.96 -0.53 1.09 -0.54 1.08 -0.54 1.07 -0.56 1.06 -0.56 1.03 -0.57 1.04 -0.58 1.04 -0.57 1 -0.59 1.01 -0.6 1.01 -0.6 0.99 -0.6 0.98 -0.61 0.98 -0.62 0.96 -0.6 0.94 -0.63 0.97 -0.63 0.96 -0.63 0.93 -0.62 0.92 -0.65 0.95 -0.62 0.9 -0.63 0.91 -0.65 0.92 -0.63 0.89 -0.63 0.89 -0.64 0.9 -0.65 0.9 -0.65 0.9 -0.61 0.85 -0.65 0.9 -0.65 0.89 -0.62 0.85zm0 0c-3.5,4.82 -16.83,10.36 -29.75,12.37 -12.92,2.01 -20.57,-0.27 -17.07,-5.09l46.82 -7.28z"/>
  </g>
  <g>
   <path class="fil1" d="M5421.42 1744.67c6.7,1.97 2.73,7.5 -8.86,12.33 -11.59,4.83 -26.44,7.16 -33.14,5.19l42 -17.52zm-154.26 -32.55l45.8 -15.86 0 0 4.39 2.8 4.29 2.68 4.21 2.56 4.11 2.44 4.02 2.33 3.94 2.22 3.86 2.12 3.78 2.02 3.71 1.93 3.63 1.83 3.56 1.74 3.51 1.67 3.42 1.58 3.37 1.5 3.32 1.44 3.26 1.37 3.22 1.31 3.17 1.24 3.12 1.19 3.1 1.14 3.05 1.11 3.02 1.04 3 1.02 2.97 0.99 2.95 0.95 2.94 0.93 2.92 0.9 2.93 0.89 2.92 0.88 2.92 0.87 2.92 0.87 2.93 0.85 -42 17.52 -2.93 -0.87 -2.96 -0.87 -2.98 -0.89 -2.98 -0.9 -2.99 -0.91 -3.04 -0.94 -3.06 -0.97 -3.09 -0.99 -3.11 -1.03 -3.14 -1.06 -3.18 -1.12 -3.21 -1.15 -3.24 -1.2 -3.3 -1.25 -3.33 -1.32 -3.38 -1.37 -3.42 -1.43 -3.48 -1.5 -3.53 -1.58 -3.58 -1.66 -3.63 -1.73 -3.7 -1.8 -3.77 -1.91 -3.83 -1.99 -3.9 -2.08 -3.96 -2.18 -4.06 -2.28 -4.12 -2.39 -4.21 -2.5 -4.29 -2.62 -4.39 -2.72 -4.47 -2.86 0 0zm-161.71 -152.96l47.68 -14.12 0 0 4.58 6.36 4.66 6.28 4.75 6.18 4.82 6.08 4.89 5.98 4.95 5.87 5.01 5.79 5.05 5.67 5.1 5.58 5.14 5.46 5.17 5.36 5.2 5.26 5.23 5.16 5.23 5.03 5.24 4.93 5.25 4.83 5.24 4.71 5.24 4.6 5.23 4.49 5.2 4.37 5.17 4.26 5.14 4.14 5.1 4.02 5.06 3.91 5.02 3.79 4.95 3.67 4.89 3.54 4.83 3.43 4.75 3.31 4.67 3.18 4.58 3.05 4.49 2.93 -45.8 15.86 -4.57 -2.97 -4.66 -3.11 -4.75 -3.24 -4.81 -3.35 -4.89 -3.47 -4.97 -3.6 -5.01 -3.71 -5.08 -3.85 -5.12 -3.95 -5.16 -4.08 -5.22 -4.18 -5.23 -4.32 -5.26 -4.41 -5.27 -4.55 -5.3 -4.64 -5.3 -4.77 -5.31 -4.87 -5.3 -4.99 -5.29 -5.09 -5.27 -5.2 -5.26 -5.32 -5.23 -5.42 -5.18 -5.52 -5.16 -5.64 -5.11 -5.73 -5.05 -5.83 -5.01 -5.95 -4.93 -6.04 -4.88 -6.14 -4.79 -6.24 -4.72 -6.34 -4.62 -6.44 0 0zm-100.4 -203.75l48.24 -13.1 0 0 1.77 4.71 1.86 4.91 1.94 5.11 2.04 5.28 2.11 5.46 2.2 5.62 2.29 5.77 2.37 5.91 2.46 6.05 2.55 6.18 2.62 6.29 2.73 6.39 2.8 6.49 2.9 6.57 2.98 6.65 3.07 6.71 3.16 6.78 3.24 6.82 3.33 6.86 3.42 6.88 3.51 6.91 3.6 6.91 3.69 6.91 3.78 6.9 3.86 6.89 3.95 6.84 4.05 6.8 4.13 6.77 4.22 6.7 4.31 6.63 4.41 6.56 4.49 6.47 -47.68 14.12 -4.53 -6.53 -4.45 -6.62 -4.35 -6.69 -4.26 -6.76 -4.17 -6.81 -4.07 -6.86 -3.99 -6.9 -3.88 -6.93 -3.8 -6.94 -3.71 -6.95 -3.62 -6.95 -3.53 -6.95 -3.44 -6.92 -3.35 -6.88 -3.26 -6.86 -3.18 -6.8 -3.07 -6.75 -3 -6.67 -2.9 -6.61 -2.82 -6.51 -2.73 -6.41 -2.64 -6.31 -2.55 -6.2 -2.48 -6.07 -2.37 -5.93 -2.29 -5.79 -2.22 -5.64 -2.11 -5.46 -2.04 -5.3 -1.94 -5.11 -1.86 -4.93 -1.79 -4.71 0 0zm-27.75 -73.5l48.08 -13.46 0 0.01 0.51 1.08 0.5 1.1 0.51 1.11 0.5 1.16 0.51 1.19 0.5 1.24 0.52 1.26 0.53 1.33 0.54 1.39 0.56 1.45 0.58 1.52 0.61 1.61 0.63 1.7 0.66 1.78 0.69 1.88 0.73 1.99 0.76 2.09 0.81 2.21 0.85 2.34 0.9 2.46 0.95 2.6 1 2.74 1.05 2.9 1.12 3.03 1.18 3.22 1.24 3.37 1.31 3.55 1.38 3.72 1.45 3.92 1.53 4.09 1.61 4.31 1.69 4.51 -48.24 13.1 -1.69 -4.51 -1.61 -4.31 -1.53 -4.11 -1.45 -3.92 -1.38 -3.72 -1.31 -3.55 -1.24 -3.39 -1.18 -3.2 -1.12 -3.05 -1.05 -2.9 -1 -2.74 -0.95 -2.6 -0.9 -2.46 -0.85 -2.34 -0.81 -2.21 -0.76 -2.09 -0.73 -1.97 -0.69 -1.88 -0.66 -1.78 -0.63 -1.68 -0.59 -1.59 -0.58 -1.5 -0.56 -1.45 -0.52 -1.37 -0.53 -1.29 -0.5 -1.26 -0.5 -1.2 -0.49 -1.15 -0.48 -1.1 -0.49 -1.09 -0.48 -1.06 -0.49 -1.04 0 0.01zm-18.73 -29.52l47.64 -14.18 0.63 0.86 0.64 0.88 0.64 0.89 0.62 0.86 0.65 0.89 0.63 0.88 0.64 0.89 0.62 0.89 0.64 0.89 0.62 0.9 0.62 0.89 0.63 0.9 0.63 0.92 0.61 0.91 0.62 0.92 0.62 0.93 0.61 0.95 0.59 0.93 0.61 0.94 0.59 0.96 0.6 0.97 0.58 0.97 0.59 0.97 0.57 1 0.57 0.99 0.57 1.01 0.55 1.02 0.55 1.02 0.55 1.04 0.53 1.04 0.53 1.06 0.52 1.07 -48.08 13.46 -0.5 -1.03 -0.51 -1.02 -0.51 -1 -0.53 -1 -0.53 -1 -0.53 -0.98 -0.55 -0.97 -0.55 -0.97 -0.55 -0.94 -0.57 -0.95 -0.56 -0.95 -0.58 -0.93 -0.57 -0.92 -0.59 -0.92 -0.59 -0.93 -0.59 -0.89 -0.6 -0.91 -0.6 -0.9 -0.61 -0.89 -0.61 -0.9 -0.61 -0.88 -0.62 -0.89 -0.62 -0.88 -0.62 -0.89 -0.62 -0.87 -0.62 -0.87 -0.63 -0.88 -0.63 -0.87 -0.64 -0.88 -0.62 -0.87 -0.64 -0.86 -0.63 -0.88zm0 0c-2.51,-3.45 6.12,-9.44 19.27,-13.35 13.15,-3.91 25.86,-4.28 28.37,-0.83l-47.64 14.18z"/>
  </g>
  <g>
   <path class="fil1" d="M4982.7 1738.92c-0.01,4.13 -10.88,10.08 -24.27,13.27 -13.39,3.19 -24.24,2.44 -24.23,-1.69l48.5 -11.58zm-46.95 -598.26l48.5 -11.58 0 0 -0.03 12.67 -0.03 13.27 -0.04 13.87 -0.04 14.43 -0.03 14.98 -0.04 15.52 -0.04 16.02 -0.04 16.51 -0.05 16.99 -0.04 17.44 -0.05 17.87 -0.04 18.28 -0.05 18.67 -0.05 19.05 -0.05 19.4 -0.05 19.74 -0.05 20.05 -0.05 20.34 -0.05 20.62 -0.05 20.87 -0.06 21.11 -0.05 21.33 -0.06 21.52 -0.05 21.7 -0.06 21.85 -0.06 22 -0.05 22.11 -0.06 22.21 -0.06 22.28 -0.05 22.35 -0.06 22.39 -0.06 22.4 -48.5 11.58 0.06 -22.4 0.06 -22.39 0.05 -22.35 0.06 -22.28 0.06 -22.21 0.05 -22.11 0.06 -22 0.06 -21.85 0.05 -21.7 0.06 -21.52 0.05 -21.33 0.06 -21.11 0.05 -20.87 0.05 -20.62 0.05 -20.34 0.05 -20.05 0.05 -19.74 0.05 -19.4 0.05 -19.05 0.05 -18.67 0.04 -18.28 0.05 -17.87 0.04 -17.44 0.05 -16.99 0.04 -16.51 0.04 -16.02 0.04 -15.52 0.03 -14.98 0.04 -14.43 0.04 -13.87 0.03 -13.27 0.03 -12.67 0 0zm0.55 -200.43l48.5 -11.58 0 0 -0.01 4.08 -0.01 3.99 -0.01 3.92 -0.01 3.87 -0.01 3.86 -0.01 3.85 -0.01 3.88 -0.01 3.93 -0.01 4 -0.01 4.1 -0.02 4.22 -0.01 4.34 -0.01 4.52 -0.01 4.7 -0.02 4.92 -0.01 5.14 -0.02 5.41 -0.01 5.69 -0.02 5.98 -0.02 6.32 -0.02 6.67 -0.02 7.03 -0.02 7.44 -0.02 7.85 -0.02 8.3 -0.02 8.76 -0.03 9.25 -0.03 9.77 -0.03 10.3 -0.03 10.86 -0.03 11.43 -0.03 12.05 -48.5 11.58 0.03 -12.05 0.03 -11.43 0.03 -10.86 0.03 -10.3 0.03 -9.77 0.03 -9.25 0.02 -8.76 0.02 -8.3 0.02 -7.85 0.02 -7.44 0.02 -7.03 0.02 -6.67 0.02 -6.32 0.02 -5.98 0.01 -5.69 0.02 -5.41 0.01 -5.14 0.02 -4.92 0.01 -4.7 0.01 -4.52 0.01 -4.36 0.02 -4.22 0.01 -4.08 0.01 -4 0.01 -3.93 0.01 -3.88 0.01 -3.85 0.01 -3.86 0.01 -3.87 0.01 -3.92 0.01 -3.99 0.01 -4.08 0 0zm0.43 -171.31l48.5 -11.58 -0.01 5.96 -0.02 5.96 -0.01 5.95 -0.02 5.95 -0.01 5.92 -0.02 5.91 -0.01 5.89 -0.02 5.86 -0.01 5.84 -0.02 5.8 -0.01 5.76 -0.02 5.73 -0.01 5.69 -0.02 5.63 -0.01 5.59 -0.01 5.53 -0.02 5.48 -0.01 5.42 -0.01 5.35 -0.02 5.28 -0.01 5.22 -0.01 5.13 -0.02 5.06 -0.01 4.98 -0.01 4.89 -0.01 4.8 -0.01 4.71 -0.02 4.61 -0.01 4.51 -0.01 4.41 -0.01 4.3 -0.01 4.19 -48.5 11.58 0.01 -4.19 0.01 -4.3 0.01 -4.41 0.01 -4.51 0.02 -4.61 0.01 -4.71 0.01 -4.8 0.01 -4.89 0.01 -4.98 0.02 -5.06 0.01 -5.13 0.01 -5.22 0.02 -5.28 0.01 -5.35 0.01 -5.42 0.02 -5.48 0.01 -5.53 0.01 -5.59 0.02 -5.63 0.01 -5.69 0.02 -5.73 0.01 -5.76 0.02 -5.8 0.01 -5.84 0.02 -5.86 0.01 -5.89 0.02 -5.91 0.01 -5.92 0.02 -5.95 0.01 -5.95 0.02 -5.96 0.01 -5.96zm0 0c0.01,-4.13 10.88,-10.08 24.27,-13.27 13.39,-3.19 24.24,-2.44 24.23,1.69l-48.5 11.58z"/>
  </g>
  <g>
   <path class="fil1" d="M4511.37 768.19c-6.7,-1.97 -2.73,-7.5 8.86,-12.33 11.59,-4.83 26.44,-7.16 33.14,-5.19l-42 17.52zm154.27 32.56l-45.8 15.86 0 0 -4.39 -2.8 -4.29 -2.68 -4.21 -2.56 -4.11 -2.44 -4.03 -2.33 -3.94 -2.23 -3.86 -2.12 -3.78 -2.02 -3.7 -1.92 -3.64 -1.83 -3.57 -1.75 -3.48 -1.66 -3.43 -1.58 -3.38 -1.5 -3.33 -1.44 -3.26 -1.38 -3.2 -1.3 -3.18 -1.24 -3.13 -1.2 -3.09 -1.14 -3.05 -1.11 -3.02 -1.04 -3 -1.02 -2.97 -0.99 -2.95 -0.95 -2.94 -0.93 -2.92 -0.9 -2.93 -0.89 -2.92 -0.88 -2.92 -0.87 -2.92 -0.87 -2.93 -0.85 42 -17.52 2.93 0.87 2.96 0.87 2.98 0.89 2.98 0.9 2.99 0.91 3.04 0.94 3.06 0.97 3.09 0.99 3.11 1.03 3.14 1.06 3.18 1.12 3.21 1.15 3.25 1.2 3.29 1.26 3.32 1.3 3.4 1.38 3.42 1.44 3.47 1.5 3.52 1.58 3.59 1.64 3.64 1.74 3.69 1.81 3.76 1.89 3.84 2 3.9 2.08 3.98 2.18 4.04 2.29 4.13 2.39 4.21 2.5 4.29 2.62 4.39 2.72 4.47 2.86 0 0zm161.71 152.95l-47.68 14.12 0 0 -4.58 -6.36 -4.67 -6.28 -4.75 -6.18 -4.81 -6.08 -4.9 -5.98 -4.94 -5.88 -5.01 -5.77 -5.06 -5.68 -5.09 -5.58 -5.15 -5.46 -5.17 -5.36 -5.19 -5.26 -5.23 -5.15 -5.23 -5.04 -5.25 -4.93 -5.24 -4.83 -5.25 -4.71 -5.23 -4.6 -5.23 -4.48 -5.2 -4.38 -5.18 -4.25 -5.14 -4.15 -5.09 -4.02 -5.07 -3.91 -5.01 -3.79 -4.95 -3.67 -4.89 -3.54 -4.83 -3.43 -4.74 -3.3 -4.68 -3.18 -4.58 -3.05 -4.49 -2.93 45.8 -15.86 4.57 2.97 4.66 3.11 4.74 3.24 4.82 3.34 4.89 3.47 4.97 3.6 5.01 3.73 5.07 3.83 5.13 3.95 5.17 4.08 5.2 4.19 5.24 4.31 5.26 4.42 5.27 4.54 5.29 4.64 5.31 4.77 5.3 4.87 5.31 4.99 5.29 5.1 5.27 5.19 5.25 5.32 5.23 5.42 5.19 5.52 5.15 5.64 5.12 5.72 5.05 5.85 5 5.94 4.94 6.04 4.87 6.14 4.79 6.24 4.73 6.34 4.62 6.44 0 0zm100.39 203.75l-48.24 13.1 0 0 -1.77 -4.71 -1.86 -4.91 -1.94 -5.11 -2.03 -5.28 -2.12 -5.46 -2.19 -5.62 -2.29 -5.77 -2.38 -5.91 -2.45 -6.05 -2.55 -6.18 -2.63 -6.29 -2.72 -6.39 -2.8 -6.49 -2.9 -6.57 -2.98 -6.65 -3.07 -6.71 -3.16 -6.78 -3.24 -6.82 -3.33 -6.86 -3.42 -6.88 -3.51 -6.91 -3.6 -6.91 -3.69 -6.91 -3.78 -6.9 -3.86 -6.89 -3.95 -6.84 -4.05 -6.8 -4.13 -6.77 -4.22 -6.7 -4.31 -6.63 -4.41 -6.56 -4.49 -6.47 47.68 -14.12 4.53 6.53 4.45 6.62 4.35 6.69 4.26 6.76 4.17 6.81 4.07 6.86 3.99 6.9 3.88 6.93 3.8 6.94 3.71 6.95 3.62 6.95 3.53 6.95 3.44 6.92 3.35 6.88 3.26 6.86 3.18 6.8 3.07 6.75 3 6.67 2.9 6.61 2.82 6.51 2.72 6.41 2.65 6.31 2.55 6.2 2.47 6.07 2.38 5.93 2.29 5.79 2.21 5.64 2.12 5.46 2.03 5.3 1.94 5.11 1.86 4.93 1.79 4.71 0 0zm27.76 73.5l-48.08 13.46 0 -0.01 -0.51 -1.08 -0.5 -1.1 -0.51 -1.11 -0.5 -1.16 -0.51 -1.19 -0.5 -1.24 -0.52 -1.26 -0.53 -1.33 -0.54 -1.39 -0.56 -1.45 -0.58 -1.52 -0.61 -1.61 -0.63 -1.7 -0.66 -1.78 -0.69 -1.88 -0.73 -1.98 -0.77 -2.1 -0.8 -2.21 -0.85 -2.34 -0.9 -2.46 -0.95 -2.6 -1 -2.74 -1.06 -2.9 -1.11 -3.04 -1.18 -3.21 -1.24 -3.37 -1.31 -3.55 -1.39 -3.72 -1.45 -3.92 -1.53 -4.09 -1.61 -4.31 -1.69 -4.51 48.24 -13.1 1.69 4.51 1.61 4.31 1.53 4.11 1.45 3.92 1.39 3.72 1.31 3.55 1.24 3.39 1.18 3.21 1.11 3.04 1.06 2.9 1 2.74 0.95 2.6 0.9 2.46 0.85 2.34 0.8 2.21 0.77 2.08 0.73 1.98 0.69 1.88 0.66 1.78 0.63 1.68 0.59 1.59 0.58 1.5 0.56 1.45 0.52 1.37 0.53 1.29 0.5 1.26 0.5 1.2 0.49 1.15 0.48 1.1 0.49 1.09 0.48 1.06 0.49 1.04 0 -0.01zm18.73 29.52l-47.64 14.18 -0.63 -0.86 -0.64 -0.88 -0.63 -0.88 -0.64 -0.87 -0.64 -0.89 -0.63 -0.88 -0.63 -0.88 -0.64 -0.9 -0.63 -0.89 -0.63 -0.89 -0.62 -0.9 -0.63 -0.91 -0.62 -0.92 -0.61 -0.9 -0.62 -0.92 -0.62 -0.93 -0.61 -0.94 -0.6 -0.94 -0.6 -0.94 -0.6 -0.96 -0.59 -0.97 -0.59 -0.97 -0.58 -0.98 -0.57 -0.99 -0.57 -0.99 -0.57 -1.01 -0.55 -1.02 -0.55 -1.02 -0.55 -1.04 -0.53 -1.04 -0.53 -1.06 -0.52 -1.07 48.08 -13.46 0.5 1.03 0.51 1.02 0.51 1 0.53 1 0.53 1 0.53 0.98 0.55 0.97 0.55 0.97 0.55 0.95 0.56 0.94 0.57 0.95 0.57 0.93 0.58 0.92 0.58 0.92 0.6 0.92 0.59 0.9 0.6 0.91 0.6 0.9 0.61 0.9 0.6 0.9 0.61 0.87 0.62 0.88 0.63 0.89 0.61 0.89 0.62 0.86 0.63 0.88 0.63 0.88 0.62 0.87 0.64 0.87 0.63 0.88 0.64 0.86 0.63 0.88zm0 0c2.51,3.45 -6.12,9.43 -19.27,13.34 -13.15,3.91 -25.86,4.29 -28.37,0.84l47.64 -14.18z"/>
  </g>
  <g>
   <path class="fil1" d="M4515 1754.34c-13.18,3.87 -25.79,4.18 -28.14,0.68 -2.35,-3.5 6.42,-9.49 19.6,-13.36l8.54 12.68zm86.78 -55.49l38.62 -0.18 0.01 -0.01 -4.69 3 -4.62 2.88 -4.55 2.76 -4.48 2.67 -4.45 2.57 -4.38 2.47 -4.27 2.35 -4.32 2.31 -4.26 2.21 -4.16 2.1 -4.22 2.07 -4.11 1.95 -4.07 1.88 -4.13 1.84 -4.05 1.76 -4.01 1.67 -3.97 1.62 -3.98 1.57 -3.85 1.46 -3.85 1.43 -3.89 1.39 -3.73 1.3 -3.61 1.23 -3.65 1.21 -3.57 1.15 -3.45 1.09 -3.31 1.02 -3.35 1.03 -3.29 0.98 -3.03 0.91 -3.12 0.92 -2.99 0.88 -8.54 -12.68 2.87 -0.84 2.76 -0.82 2.87 -0.85 2.61 -0.78 2.57 -0.79 2.65 -0.82 2.55 -0.81 2.47 -0.79 2.43 -0.81 2.53 -0.85 2.47 -0.86 2.37 -0.85 2.49 -0.93 2.57 -0.98 2.52 -0.99 2.63 -1.06 2.67 -1.13 2.75 -1.18 2.77 -1.24 2.93 -1.36 3.03 -1.43 3.04 -1.49 3.24 -1.64 3.28 -1.69 3.36 -1.81 3.55 -1.95 3.62 -2.03 3.69 -2.15 3.84 -2.27 3.95 -2.42 4.06 -2.52 4.17 -2.66 0.01 -0.01zm156.62 -148.47l46.92 -7.42 0 0 -4.67 6.49 -4.76 6.4 -4.84 6.3 -4.92 6.21 -4.99 6.1 -5.05 6 -5.12 5.91 -5.17 5.81 -5.22 5.7 -5.26 5.59 -5.29 5.49 -5.32 5.39 -5.36 5.28 -5.37 5.18 -5.4 5.07 -5.38 4.94 -5.4 4.85 -5.38 4.74 -5.38 4.62 -5.37 4.52 -5.35 4.39 -5.31 4.28 -5.3 4.18 -5.26 4.06 -5.2 3.93 -5.14 3.81 -5.12 3.72 -5.07 3.59 -4.97 3.46 -4.92 3.35 -4.85 3.24 -4.78 3.11 -38.62 0.18 4.28 -2.79 4.39 -2.92 4.5 -3.07 4.59 -3.18 4.65 -3.31 4.74 -3.44 4.82 -3.57 4.88 -3.69 4.94 -3.8 4.96 -3.92 5.03 -4.06 5.07 -4.17 5.09 -4.28 5.12 -4.4 5.14 -4.52 5.16 -4.63 5.16 -4.74 5.16 -4.85 5.15 -4.96 5.14 -5.08 5.12 -5.17 5.11 -5.31 5.08 -5.39 5.02 -5.5 5.01 -5.61 4.94 -5.71 4.89 -5.82 4.85 -5.92 4.76 -6.01 4.7 -6.12 4.64 -6.22 4.53 -6.31 0 0zm99.51 -202.15l48.12 -9.6 0 0 -1.78 4.71 -1.87 4.93 -1.94 5.11 -2.03 5.31 -2.13 5.47 -2.2 5.64 -2.3 5.8 -2.39 5.93 -2.46 6.08 -2.56 6.21 -2.65 6.32 -2.73 6.42 -2.82 6.52 -2.91 6.62 -3 6.68 -3.08 6.76 -3.19 6.82 -3.26 6.87 -3.36 6.91 -3.45 6.93 -3.53 6.97 -3.64 6.97 -3.72 6.98 -3.81 6.96 -3.9 6.96 -4.01 6.93 -4.09 6.88 -4.19 6.86 -4.28 6.79 -4.38 6.74 -4.48 6.67 -4.57 6.58 -46.92 7.42 4.45 -6.42 4.38 -6.51 4.28 -6.58 4.2 -6.67 4.11 -6.72 4.03 -6.78 3.93 -6.81 3.84 -6.86 3.77 -6.88 3.68 -6.88 3.58 -6.89 3.51 -6.89 3.41 -6.87 3.32 -6.83 3.24 -6.81 3.15 -6.76 3.06 -6.7 2.98 -6.64 2.89 -6.56 2.8 -6.48 2.71 -6.38 2.63 -6.28 2.54 -6.17 2.46 -6.04 2.37 -5.91 2.28 -5.76 2.2 -5.62 2.11 -5.45 2.03 -5.27 1.94 -5.11 1.85 -4.91 1.78 -4.71 0 0zm27.98 -74l47.84 -8.96 0 -0.01 -0.47 1.01 -0.48 1.06 -0.48 1.06 -0.48 1.1 -0.49 1.14 -0.48 1.18 -0.5 1.24 -0.52 1.29 -0.52 1.36 -0.56 1.43 -0.57 1.5 -0.6 1.59 -0.63 1.68 -0.66 1.78 -0.68 1.87 -0.73 1.97 -0.77 2.09 -0.8 2.21 -0.85 2.33 -0.9 2.47 -0.95 2.61 -1 2.74 -1.06 2.89 -1.11 3.05 -1.18 3.21 -1.24 3.38 -1.32 3.55 -1.39 3.73 -1.45 3.91 -1.53 4.12 -1.61 4.3 -1.69 4.52 -48.12 9.6 1.69 -4.5 1.61 -4.3 1.53 -4.1 1.45 -3.91 1.39 -3.73 1.3 -3.55 1.24 -3.36 1.18 -3.21 1.11 -3.05 1.06 -2.89 1 -2.74 0.95 -2.59 0.9 -2.47 0.85 -2.33 0.8 -2.21 0.77 -2.11 0.73 -1.99 0.7 -1.87 0.66 -1.78 0.63 -1.7 0.6 -1.61 0.59 -1.54 0.56 -1.45 0.54 -1.4 0.54 -1.35 0.52 -1.28 0.52 -1.24 0.51 -1.2 0.5 -1.18 0.52 -1.14 0.5 -1.1 0.53 -1.11 0 -0.01zm19.46 -30.71l46.82 -7.28 -0.64 0.89 -0.63 0.85 -0.61 0.86 -0.65 0.89 -0.63 0.86 -0.61 0.86 -0.62 0.86 -0.61 0.87 -0.63 0.89 -0.59 0.84 -0.61 0.89 -0.62 0.88 -0.59 0.87 -0.6 0.88 -0.58 0.87 -0.59 0.9 -0.59 0.89 -0.57 0.9 -0.58 0.9 -0.55 0.9 -0.58 0.92 -0.54 0.91 -0.56 0.93 -0.53 0.93 -0.55 0.96 -0.54 0.94 -0.51 0.94 -0.52 0.99 -0.52 0.98 -0.5 0.97 -0.5 1 -0.49 1.01 -47.84 8.96 0.53 -1.09 0.54 -1.08 0.54 -1.07 0.56 -1.06 0.56 -1.03 0.57 -1.04 0.58 -1.04 0.57 -1 0.59 -1.01 0.6 -1.01 0.6 -0.99 0.6 -0.98 0.61 -0.98 0.62 -0.96 0.61 -0.96 0.63 -0.95 0.61 -0.94 0.64 -0.95 0.62 -0.92 0.65 -0.95 0.62 -0.9 0.63 -0.91 0.65 -0.92 0.63 -0.89 0.63 -0.89 0.64 -0.9 0.65 -0.9 0.65 -0.9 0.61 -0.85 0.65 -0.9 0.65 -0.89 0.62 -0.85zm0 0c3.5,-4.82 16.83,-10.36 29.75,-12.37 12.92,-2.01 20.57,0.27 17.07,5.09l-46.82 7.28z"/>
  </g>
  <g>
   <path class="fil1" d="M5598.37 1742.84c0.01,4.12 -10.84,10.07 -24.23,13.27 -13.39,3.2 -24.26,2.45 -24.27,-1.67l48.5 -11.6zm-50.06 -602.38l48.5 -11.6 0 0 0.03 12.75 0.03 13.37 0.04 13.95 0.04 14.54 0.03 15.08 0.04 15.62 0.04 16.13 0.04 16.63 0.05 17.1 0.04 17.55 0.05 18 0.04 18.4 0.05 18.8 0.05 19.18 0.05 19.53 0.05 19.87 0.05 20.19 0.05 20.48 0.05 20.76 0.06 21.01 0.05 21.26 0.06 21.47 0.05 21.66 0.06 21.85 0.05 22 0.06 22.15 0.06 22.26 0.06 22.36 0.05 22.44 0.06 22.49 0.06 22.54 0.06 22.56 -48.5 11.6 -0.06 -22.56 -0.06 -22.54 -0.06 -22.49 -0.05 -22.44 -0.06 -22.36 -0.06 -22.26 -0.06 -22.15 -0.05 -22 -0.06 -21.85 -0.05 -21.66 -0.06 -21.47 -0.05 -21.26 -0.06 -21.01 -0.05 -20.76 -0.05 -20.48 -0.05 -20.19 -0.05 -19.87 -0.05 -19.53 -0.05 -19.18 -0.05 -18.8 -0.04 -18.4 -0.05 -18 -0.04 -17.55 -0.05 -17.1 -0.04 -16.63 -0.04 -16.13 -0.04 -15.62 -0.03 -15.08 -0.04 -14.54 -0.04 -13.95 -0.03 -13.37 -0.03 -12.75 0 0zm-0.55 -201.79l48.5 -11.6 0 0 0.01 4.11 0.01 4.01 0.01 3.95 0.01 3.9 0.01 3.88 0.01 3.88 0.01 3.91 0.01 3.95 0.01 4.03 0.02 4.12 0.01 4.24 0.01 4.38 0.01 4.55 0.02 4.74 0.01 4.95 0.02 5.18 0.01 5.44 0.02 5.73 0.01 6.02 0.02 6.36 0.02 6.71 0.02 7.09 0.02 7.49 0.02 7.9 0.02 8.36 0.03 8.82 0.02 9.31 0.03 9.83 0.03 10.37 0.03 10.93 0.03 11.52 0.03 12.13 -48.5 11.6 -0.03 -12.13 -0.03 -11.52 -0.03 -10.93 -0.03 -10.37 -0.03 -9.83 -0.02 -9.31 -0.03 -8.82 -0.02 -8.36 -0.02 -7.9 -0.02 -7.49 -0.02 -7.09 -0.02 -6.71 -0.02 -6.36 -0.01 -6.02 -0.02 -5.73 -0.01 -5.44 -0.02 -5.18 -0.01 -4.95 -0.02 -4.74 -0.01 -4.55 -0.01 -4.38 -0.01 -4.24 -0.02 -4.12 -0.01 -4.03 -0.01 -3.95 -0.01 -3.91 -0.01 -3.88 -0.01 -3.88 -0.01 -3.9 -0.01 -3.95 -0.01 -4.01 -0.01 -4.11 0 0zm-0.43 -172.48l48.5 -11.6 0.01 6 0.02 6 0.01 6 0.02 5.98 0.01 5.97 0.02 5.95 0.01 5.93 0.02 5.9 0.01 5.87 0.02 5.84 0.01 5.81 0.02 5.77 0.01 5.72 0.02 5.68 0.01 5.62 0.01 5.57 0.02 5.52 0.01 5.45 0.01 5.39 0.02 5.32 0.01 5.24 0.01 5.18 0.02 5.09 0.01 5.01 0.01 4.92 0.01 4.84 0.01 4.74 0.02 4.64 0.01 4.54 0.01 4.44 0.01 4.33 0.01 4.22 -48.5 11.6 -0.01 -4.22 -0.01 -4.33 -0.01 -4.44 -0.01 -4.54 -0.02 -4.64 -0.01 -4.74 -0.01 -4.84 -0.01 -4.92 -0.01 -5.01 -0.02 -5.09 -0.01 -5.18 -0.01 -5.24 -0.02 -5.32 -0.01 -5.39 -0.01 -5.45 -0.02 -5.52 -0.01 -5.57 -0.01 -5.62 -0.02 -5.68 -0.01 -5.72 -0.02 -5.77 -0.01 -5.81 -0.02 -5.84 -0.01 -5.87 -0.02 -5.9 -0.01 -5.93 -0.02 -5.95 -0.01 -5.97 -0.02 -5.98 -0.01 -6 -0.02 -6 -0.01 -6zm0 0c-0.01,-4.12 10.84,-10.07 24.23,-13.27 13.39,-3.2 24.26,-2.45 24.27,1.67l-48.5 11.6z"/>
  </g>
  <g>
   <path class="fil1" d="M5570.91 773.02c-10.58,0 -12.51,-4.24 -4.31,-9.46 8.2,-5.22 23.45,-9.46 34.03,-9.46l-29.72 18.92zm560.06 476.33l-48.5 11.58 0 0 -0.68 -25.18 -2 -24.84 -3.29 -24.49 -4.56 -24.1 -5.8 -23.67 -6.99 -23.22 -8.15 -22.74 -9.29 -22.22 -10.38 -21.68 -11.45 -21.09 -12.48 -20.48 -13.48 -19.85 -14.46 -19.17 -15.37 -18.47 -16.28 -17.74 -17.14 -16.96 -17.98 -16.17 -18.76 -15.34 -19.53 -14.48 -20.24 -13.59 -20.93 -12.65 -21.59 -11.71 -22.18 -10.72 -22.75 -9.71 -23.27 -8.66 -23.75 -7.58 -24.16 -6.47 -24.51 -5.34 -24.81 -4.19 -25.01 -3 -25.13 -1.8 -25.16 -0.6 29.72 -18.92 28.46 0.68 27.77 2 27.13 3.24 26.51 4.47 25.89 5.64 25.28 6.77 24.67 7.88 24.05 8.94 23.39 9.99 22.74 10.98 22.05 11.97 21.35 12.91 20.6 13.83 19.83 14.7 19.04 15.56 18.22 16.39 17.36 17.18 16.46 17.94 15.55 18.67 14.6 19.37 13.62 20.05 12.6 20.68 11.57 21.31 10.48 21.88 9.37 22.42 8.23 22.94 7.05 23.44 5.84 23.89 4.6 24.32 3.33 24.71 2.02 25.08 0.68 25.42 0 0zm-550.31 506.75l28.38 -18.9 24.27 -0.97 23.39 -2.04 22.5 -3.05 21.64 -3.97 20.95 -4.87 20.51 -5.8 20.27 -6.76 20.18 -7.8 20.13 -8.88 20.03 -9.97 19.82 -11.04 19.49 -12.09 19.08 -13.09 18.53 -14.03 17.94 -14.94 17.26 -15.81 16.53 -16.64 15.74 -17.42 14.89 -18.17 14.03 -18.89 13.1 -19.55 12.14 -20.22 11.15 -20.8 10.12 -21.4 9.04 -21.93 7.95 -22.45 6.81 -22.93 5.66 -23.38 4.45 -23.79 3.21 -24.18 1.96 -24.54 0.66 -24.87 48.5 -11.58 -0.66 25.11 -1.98 24.8 -3.25 24.46 -4.51 24.07 -5.72 23.68 -6.91 23.25 -8.07 22.79 -9.2 22.29 -10.3 21.78 -11.37 21.24 -12.42 20.66 -13.44 20.07 -14.43 19.43 -15.41 18.79 -16.36 18.12 -17.31 17.42 -18.22 16.69 -19.16 15.96 -20.09 15.21 -21.04 14.43 -22.03 13.65 -23.06 12.84 -24.13 12.01 -25.25 11.14 -26.38 10.18 -27.37 9.14 -28.19 7.96 -28.71 6.69 -28.94 5.31 -28.92 3.91 -28.81 2.52 -28.67 1.15zm0 0c-10.85,0.17 -13.3,-3.92 -5.47,-9.13 7.83,-5.21 23,-9.6 33.85,-9.77l-28.38 18.9z"/>
  </g>
  <g>
   <path class="fil1" d="M1906.07 1045.45c-1.75,4.51 -13.94,10.31 -27.21,12.94 -13.27,2.63 -22.62,1.11 -20.87,-3.4l48.08 -9.54zm61.81 -162.76l44.2 -4.4 0 0 -5.82 5.45 -5.59 5.44 -5.35 5.41 -5.13 5.38 -4.92 5.37 -4.71 5.34 -4.51 5.33 -4.32 5.31 -4.13 5.28 -3.95 5.27 -3.79 5.25 -3.62 5.26 -3.47 5.22 -3.32 5.22 -3.18 5.19 -3.05 5.19 -2.92 5.19 -2.81 5.17 -2.7 5.16 -2.59 5.15 -2.51 5.15 -2.41 5.14 -2.34 5.14 -2.28 5.13 -2.21 5.13 -2.15 5.13 -2.11 5.12 -2.07 5.13 -2.03 5.12 -2.02 5.13 -2 5.13 -2 5.13 -48.08 9.54 2 -5.15 2 -5.13 2.02 -5.15 2.05 -5.16 2.09 -5.17 2.13 -5.18 2.17 -5.19 2.25 -5.19 2.3 -5.21 2.38 -5.22 2.47 -5.24 2.55 -5.25 2.65 -5.29 2.78 -5.28 2.87 -5.31 3.02 -5.33 3.13 -5.35 3.3 -5.37 3.42 -5.4 3.61 -5.42 3.76 -5.44 3.93 -5.47 4.13 -5.51 4.33 -5.52 4.52 -5.55 4.73 -5.59 4.95 -5.62 5.18 -5.65 5.41 -5.7 5.67 -5.71 5.91 -5.76 6.18 -5.79 0 0zm232.71 -162.04l37.74 0.38 0.01 -0.01 -5.34 3.31 -5.6 3.46 -5.87 3.63 -6.15 3.79 -6.37 3.94 -6.59 4.08 -6.79 4.22 -6.98 4.35 -7.13 4.46 -7.29 4.6 -7.42 4.71 -7.53 4.8 -7.62 4.91 -7.73 5.01 -7.78 5.08 -7.81 5.17 -7.84 5.23 -7.84 5.31 -7.85 5.36 -7.8 5.41 -7.77 5.46 -7.69 5.49 -7.61 5.53 -7.51 5.54 -7.4 5.58 -7.26 5.57 -7.1 5.58 -6.93 5.57 -6.74 5.57 -6.54 5.54 -6.31 5.52 -6.07 5.49 -44.2 4.4 6.43 -5.81 6.67 -5.84 6.9 -5.86 7.1 -5.85 7.27 -5.85 7.44 -5.84 7.58 -5.83 7.72 -5.8 7.81 -5.78 7.91 -5.73 7.99 -5.71 8.03 -5.64 8.08 -5.61 8.09 -5.52 8.08 -5.47 8.08 -5.39 8.03 -5.31 7.98 -5.22 7.89 -5.13 7.82 -5.03 7.71 -4.92 7.56 -4.79 7.43 -4.68 7.27 -4.56 7.08 -4.41 6.87 -4.26 6.65 -4.12 6.41 -3.96 6.13 -3.79 5.87 -3.63 5.58 -3.44 5.24 -3.25 0.01 -0.01zm98.68 24.23l-48.5 11.64 0 0 -0.08 -6.01 -0.08 -5.6 -0.1 -5.22 -0.12 -4.82 -0.16 -4.44 -0.21 -4.06 -0.25 -3.68 -0.33 -3.32 -0.4 -2.95 -0.46 -2.58 -0.56 -2.21 -0.62 -1.84 -0.68 -1.45 -0.71 -1.05 -0.62 -0.65 -0.31 -0.2 0.56 0.17 2.51 0.3 5.42 -0.24 7.04 -1.24 5.25 -1.47 2.26 -0.83 0.27 -0.11 -1.13 0.57 -1.99 1.06 -2.58 1.45 -3.04 1.78 -3.51 2.12 -3.92 2.4 -4.25 2.63 -4.64 2.89 -5 3.11 -37.74 -0.38 4.94 -3.07 4.68 -2.91 4.47 -2.77 4.22 -2.58 4.07 -2.46 4 -2.34 3.96 -2.23 4.03 -2.14 4.41 -2.17 5.35 -2.35 6.92 -2.57 9.47 -2.69 10.88 -1.92 8.88 -0.38 5.61 0.72 3.32 1.17 2.15 1.38 1.54 1.55 1.17 1.73 0.94 1.99 0.76 2.22 0.62 2.51 0.52 2.82 0.42 3.11 0.33 3.46 0.27 3.78 0.21 4.14 0.16 4.5 0.12 4.86 0.1 5.24 0.08 5.62 0.08 6.01 0 0zm-11.12 286.59l-48.44 10.8 0 0 1.22 -8.08 1.15 -8.36 1.05 -8.61 0.98 -8.83 0.91 -9.05 0.83 -9.23 0.75 -9.4 0.68 -9.53 0.62 -9.65 0.56 -9.75 0.5 -9.83 0.44 -9.88 0.38 -9.92 0.34 -9.92 0.29 -9.92 0.24 -9.88 0.2 -9.83 0.16 -9.74 0.12 -9.65 0.09 -9.54 0.06 -9.39 0.03 -9.22 0.01 -9.05 -0.02 -8.83 -0.03 -8.61 -0.05 -8.36 -0.06 -8.09 -0.07 -7.78 -0.08 -7.48 -0.08 -7.15 -0.08 -6.78 -0.08 -6.41 48.5 -11.64 0.08 6.41 0.08 6.78 0.08 7.15 0.08 7.48 0.07 7.8 0.06 8.09 0.05 8.38 0.03 8.61 0.02 8.85 -0.01 9.05 -0.03 9.24 -0.06 9.41 -0.09 9.54 -0.12 9.67 -0.16 9.76 -0.2 9.85 -0.24 9.9 -0.29 9.94 -0.34 9.94 -0.38 9.94 -0.44 9.92 -0.5 9.85 -0.56 9.79 -0.62 9.69 -0.7 9.57 -0.75 9.44 -0.83 9.27 -0.91 9.11 -0.98 8.89 -1.07 8.67 -1.15 8.44 -1.24 8.16 0 0zm-76.99 146.36l-40.06 1.14 -0.01 0.01 2.38 -1.68 2.41 -1.8 2.45 -1.91 2.44 -2 2.45 -2.13 2.48 -2.28 2.47 -2.4 2.48 -2.54 2.48 -2.71 2.47 -2.86 2.46 -3.02 2.44 -3.19 2.41 -3.35 2.4 -3.55 2.36 -3.74 2.33 -3.92 2.3 -4.12 2.24 -4.32 2.2 -4.53 2.16 -4.76 2.1 -4.96 2.05 -5.2 1.98 -5.43 1.92 -5.66 1.85 -5.91 1.79 -6.17 1.71 -6.41 1.65 -6.69 1.56 -6.94 1.49 -7.23 1.4 -7.5 1.31 -7.8 48.44 -10.8 -1.33 7.88 -1.42 7.6 -1.51 7.33 -1.58 7.06 -1.67 6.79 -1.75 6.55 -1.83 6.29 -1.89 6.05 -1.98 5.82 -2.04 5.59 -2.11 5.36 -2.18 5.16 -2.24 4.94 -2.3 4.75 -2.38 4.56 -2.42 4.36 -2.49 4.18 -2.54 4.02 -2.6 3.85 -2.65 3.69 -2.72 3.55 -2.76 3.4 -2.83 3.26 -2.88 3.13 -2.92 3.02 -2.99 2.9 -3.04 2.78 -3.09 2.69 -3.16 2.6 -3.17 2.47 -3.23 2.4 -3.28 2.32 -0.01 0.01zm-116.49 42.29l5.88 -16.24 2.87 -0.58 2.97 -0.6 2.81 -0.57 2.69 -0.56 2.57 -0.53 2.56 -0.56 2.54 -0.56 2.42 -0.54 2.29 -0.54 2.25 -0.55 2.29 -0.57 2.02 -0.53 2.13 -0.58 2 -0.57 1.88 -0.56 1.91 -0.59 1.85 -0.61 1.75 -0.6 1.8 -0.65 1.96 -0.74 1.82 -0.72 1.86 -0.77 1.87 -0.82 1.88 -0.86 2.03 -0.99 2.1 -1.06 2.1 -1.11 2.15 -1.2 2.2 -1.29 2.29 -1.41 2.32 -1.49 2.37 -1.6 40.06 -1.14 -3.31 2.24 -3.38 2.17 -3.43 2.11 -3.54 2.07 -3.59 2 -3.66 1.95 -3.68 1.86 -3.75 1.81 -3.9 1.8 -3.95 1.72 -3.96 1.65 -4 1.58 -3.88 1.46 -4.04 1.47 -4.11 1.4 -4.01 1.31 -3.95 1.23 -4 1.2 -3.88 1.09 -3.77 1.04 -3.88 1.01 -3.61 0.91 -3.65 0.89 -3.63 0.84 -3.48 0.8 -3.38 0.74 -3.36 0.72 -3.35 0.71 -3.23 0.66 -3.11 0.63 -2.97 0.6 -3.05 0.62zm0 0c-13.29,2.67 -22.75,1.21 -21.13,-3.27 1.62,-4.48 13.72,-10.3 27.01,-12.97l-5.88 16.24z"/>
  </g>
  <g>
   <path class="fil1" d="M1866.61 1407.43c-1.45,-3.75 8.16,-9.75 21.47,-13.37 13.31,-3.62 25.3,-3.52 26.75,0.23l-48.22 13.14zm155.51 155.63l-46.88 15.04 0 0 -6.04 -5.66 -5.79 -5.64 -5.56 -5.61 -5.32 -5.58 -5.08 -5.55 -4.87 -5.52 -4.66 -5.49 -4.45 -5.49 -4.26 -5.44 -4.07 -5.43 -3.89 -5.4 -3.72 -5.38 -3.56 -5.37 -3.4 -5.33 -3.26 -5.33 -3.11 -5.3 -2.99 -5.29 -2.86 -5.27 -2.75 -5.26 -2.64 -5.24 -2.54 -5.23 -2.45 -5.21 -2.37 -5.2 -2.3 -5.2 -2.23 -5.17 -2.18 -5.18 -2.12 -5.16 -2.09 -5.17 -2.04 -5.15 -2.03 -5.14 -2 -5.14 -2 -5.14 48.22 -13.14 2 5.14 2 5.12 2.01 5.14 2.04 5.13 2.07 5.13 2.12 5.14 2.16 5.14 2.21 5.15 2.28 5.14 2.35 5.16 2.43 5.17 2.52 5.17 2.6 5.18 2.73 5.2 2.82 5.21 2.95 5.21 3.07 5.24 3.22 5.25 3.36 5.27 3.5 5.29 3.66 5.3 3.83 5.32 4.01 5.35 4.2 5.36 4.39 5.39 4.58 5.41 4.79 5.44 5.02 5.47 5.24 5.5 5.46 5.51 5.71 5.56 5.96 5.58 0 0zm228.86 159.2l-45.66 15.96 0 -0.01 -5.28 -3.27 -5.59 -3.45 -5.87 -3.63 -6.14 -3.79 -6.39 -3.95 -6.63 -4.1 -6.83 -4.25 -7.03 -4.38 -7.21 -4.52 -7.37 -4.65 -7.51 -4.75 -7.63 -4.87 -7.74 -4.98 -7.82 -5.08 -7.89 -5.16 -7.94 -5.25 -7.98 -5.33 -7.99 -5.4 -7.98 -5.47 -7.97 -5.51 -7.92 -5.57 -7.87 -5.62 -7.79 -5.65 -7.69 -5.69 -7.58 -5.7 -7.46 -5.73 -7.3 -5.73 -7.14 -5.75 -6.95 -5.74 -6.76 -5.73 -6.54 -5.71 -6.29 -5.7 46.88 -15.04 6.21 5.62 6.44 5.65 6.68 5.65 6.89 5.68 7.06 5.69 7.24 5.69 7.38 5.67 7.52 5.66 7.65 5.65 7.73 5.61 7.81 5.58 7.88 5.53 7.91 5.49 7.94 5.43 7.95 5.38 7.94 5.29 7.9 5.23 7.87 5.14 7.78 5.06 7.72 4.96 7.59 4.85 7.49 4.75 7.35 4.63 7.19 4.5 7.01 4.38 6.83 4.23 6.61 4.1 6.39 3.95 6.14 3.79 5.87 3.63 5.59 3.45 5.3 3.29 0 -0.01zm8.48 -16.12l48.5 -11.52 0 0 -0.08 6.01 -0.08 5.62 -0.1 5.24 -0.12 4.86 -0.16 4.5 -0.21 4.14 -0.27 3.78 -0.33 3.47 -0.42 3.14 -0.52 2.85 -0.64 2.57 -0.8 2.36 -1.08 2.24 -1.53 2.26 -2.81 2.8 -7.19 4.48 -16.59 5.85 -14.84 2.22 -6.94 -0.21 -4.03 -0.69 -3.12 -0.9 -2.88 -1.07 -2.87 -1.26 -2.99 -1.48 -3.15 -1.67 -3.36 -1.9 -3.59 -2.1 -3.83 -2.31 -4.09 -2.5 -4.39 -2.71 -4.66 -2.91 -4.97 -3.08 45.66 -15.96 4.97 3.1 4.66 2.89 4.35 2.69 4.05 2.48 3.75 2.27 3.45 2.02 3.16 1.78 2.87 1.53 2.57 1.26 2.21 0.98 1.78 0.67 1.1 0.32 -0.19 -0.01 -3.48 -0.07 -11.74 1.8 -13.83 4.85 -4.73 2.9 -0.67 0.6 0.35 -0.52 0.56 -1.2 0.58 -1.7 0.54 -2.15 0.46 -2.55 0.38 -2.92 0.33 -3.31 0.25 -3.68 0.21 -4.06 0.16 -4.44 0.12 -4.82 0.1 -5.22 0.08 -5.6 0.08 -6.01 0 0zm-11.2 -286.01l48.44 -12.28 0 0 1.26 8.17 1.16 8.44 1.08 8.69 0.99 8.9 0.92 9.11 0.84 9.3 0.77 9.45 0.7 9.57 0.62 9.71 0.57 9.79 0.5 9.87 0.45 9.91 0.39 9.95 0.34 9.96 0.29 9.94 0.25 9.91 0.2 9.85 0.16 9.76 0.13 9.68 0.09 9.55 0.06 9.41 0.03 9.23 0.01 9.06 -0.01 8.85 -0.04 8.62 -0.04 8.36 -0.06 8.11 -0.08 7.79 -0.07 7.48 -0.09 7.16 -0.08 6.78 -0.08 6.41 -48.5 11.52 0.08 -6.41 0.08 -6.78 0.09 -7.14 0.07 -7.48 0.08 -7.79 0.06 -8.09 0.04 -8.36 0.04 -8.6 0.01 -8.85 -0.01 -9.04 -0.03 -9.23 -0.06 -9.39 -0.09 -9.53 -0.13 -9.66 -0.16 -9.76 -0.2 -9.83 -0.25 -9.89 -0.29 -9.92 -0.34 -9.92 -0.39 -9.93 -0.45 -9.89 -0.5 -9.83 -0.57 -9.77 -0.62 -9.67 -0.7 -9.55 -0.75 -9.41 -0.84 -9.24 -0.92 -9.07 -0.99 -8.86 -1.06 -8.63 -1.16 -8.38 -1.24 -8.11 0 0zm-64.49 -142.34l47.1 -14.82 0 0 2.11 2.16 2.15 2.24 2.2 2.36 2.22 2.45 2.25 2.55 2.27 2.67 2.29 2.79 2.31 2.92 2.3 3.05 2.32 3.18 2.31 3.34 2.31 3.49 2.3 3.65 2.28 3.8 2.28 3.99 2.25 4.16 2.22 4.35 2.19 4.53 2.16 4.74 2.12 4.93 2.08 5.14 2.03 5.38 1.98 5.58 1.93 5.82 1.86 6.05 1.81 6.3 1.75 6.54 1.66 6.81 1.6 7.07 1.51 7.33 1.44 7.61 1.34 7.9 -48.44 12.28 -1.34 -7.82 -1.42 -7.53 -1.49 -7.27 -1.58 -6.99 -1.66 -6.73 -1.71 -6.46 -1.79 -6.22 -1.84 -5.97 -1.91 -5.74 -1.94 -5.5 -2.01 -5.28 -2.04 -5.06 -2.08 -4.85 -2.12 -4.64 -2.15 -4.45 -2.18 -4.25 -2.19 -4.08 -2.22 -3.89 -2.24 -3.72 -2.24 -3.55 -2.25 -3.41 -2.25 -3.24 -2.26 -3.1 -2.24 -2.97 -2.23 -2.84 -2.23 -2.71 -2.21 -2.59 -2.19 -2.49 -2.16 -2.39 -2.14 -2.28 -2.11 -2.2 -2.07 -2.12 0 0zm-55.24 -36.91l42.82 -17.26 -0.02 0 1.98 0.68 1.96 0.7 1.95 0.72 1.89 0.74 1.88 0.75 1.9 0.79 1.84 0.82 1.83 0.83 1.82 0.87 1.81 0.9 1.78 0.93 1.79 0.96 1.78 1.01 1.77 1.04 1.77 1.09 1.76 1.12 1.76 1.17 1.77 1.21 1.77 1.27 1.78 1.31 1.8 1.36 1.81 1.43 1.82 1.47 1.84 1.54 1.87 1.6 1.88 1.65 1.91 1.72 1.94 1.8 1.96 1.85 2.01 1.94 2.03 2 2.08 2.08 -47.1 14.82 -2.04 -2.04 -1.99 -1.96 -1.95 -1.88 -1.92 -1.81 -1.88 -1.74 -1.85 -1.66 -1.82 -1.61 -1.79 -1.54 -1.76 -1.46 -1.74 -1.41 -1.71 -1.35 -1.7 -1.28 -1.68 -1.25 -1.65 -1.17 -1.65 -1.13 -1.64 -1.09 -1.62 -1.04 -1.61 -0.99 -1.61 -0.94 -1.6 -0.91 -1.61 -0.86 -1.62 -0.85 -1.61 -0.8 -1.6 -0.77 -1.65 -0.75 -1.64 -0.72 -1.64 -0.69 -1.68 -0.67 -1.71 -0.66 -1.71 -0.64 -1.76 -0.62 -1.78 -0.62 -0.02 0zm-69.58 -16.08l39.38 -18.14 2.4 0.46 2.39 0.46 2.39 0.45 2.4 0.46 2.38 0.45 2.42 0.47 2.41 0.46 2.38 0.47 2.37 0.47 2.39 0.48 2.39 0.47 2.38 0.5 2.35 0.48 2.36 0.5 2.31 0.5 2.36 0.51 2.34 0.52 2.26 0.52 2.31 0.53 2.29 0.55 2.22 0.53 2.26 0.55 2.25 0.58 2.2 0.58 2.18 0.58 2.17 0.61 2.11 0.59 2.14 0.62 2.09 0.64 2.05 0.64 2.07 0.66 2 0.67 -42.82 17.26 -1.82 -0.61 -1.83 -0.6 -1.89 -0.58 -1.91 -0.58 -1.92 -0.56 -1.99 -0.57 -1.99 -0.55 -2.02 -0.54 -2.06 -0.54 -2.05 -0.52 -2.08 -0.51 -2.16 -0.53 -2.13 -0.51 -2.15 -0.49 -2.22 -0.5 -2.18 -0.5 -2.2 -0.47 -2.27 -0.48 -2.26 -0.48 -2.27 -0.48 -2.28 -0.46 -2.29 -0.47 -2.31 -0.46 -2.35 -0.45 -2.36 -0.47 -2.33 -0.46 -2.34 -0.45 -2.38 -0.45 -2.38 -0.46 -2.39 -0.45 -2.39 -0.46 -2.38 -0.44zm0 0c-7.82,-1.48 -5.34,-6.76 5.53,-11.76 10.87,-5 26.03,-7.86 33.85,-6.38l-39.38 18.14z"/>
  </g>
  <g>
   <path class="fil1" d="M7291.69 1153c13.16,-2.37 21.81,-0.53 19.32,4.12 -2.49,4.65 -15.18,10.35 -28.34,12.72l9.02 -16.84zm-110.48 44.5l-22.04 -8.04 -0.01 0 5.22 -2.04 5.06 -1.94 5.1 -1.92 5.01 -1.81 4.84 -1.73 4.87 -1.69 4.83 -1.63 4.64 -1.52 4.64 -1.48 4.63 -1.43 4.5 -1.36 4.4 -1.28 4.4 -1.25 4.33 -1.19 4.25 -1.13 4.26 -1.09 4.11 -1.03 4 -0.96 3.85 -0.91 3.96 -0.9 3.97 -0.88 3.7 -0.78 3.58 -0.75 3.71 -0.76 3.53 -0.7 3.44 -0.67 3.45 -0.65 3.43 -0.65 3.33 -0.61 3.1 -0.56 3.22 -0.59 3.17 -0.57 -9.02 16.84 -3.05 0.55 -3.02 0.55 -3.14 0.58 -2.93 0.53 -2.85 0.53 -2.87 0.55 -2.9 0.57 -2.87 0.56 -2.75 0.56 -2.92 0.61 -2.88 0.62 -2.67 0.58 -2.76 0.64 -2.95 0.69 -2.9 0.7 -2.87 0.71 -2.84 0.73 -2.93 0.79 -2.99 0.81 -3.04 0.87 -3.16 0.92 -3.2 0.96 -3.21 0.99 -3.34 1.08 -3.5 1.14 -3.47 1.17 -3.61 1.25 -3.8 1.35 -3.81 1.39 -3.9 1.46 -4.14 1.58 -4.18 1.64 -0.01 0zm-159.66 93.09l-43.58 3.84 0 0 5.08 -4.34 5.2 -4.29 5.29 -4.23 5.37 -4.16 5.45 -4.09 5.52 -4.03 5.59 -3.96 5.64 -3.9 5.75 -3.86 5.76 -3.75 5.77 -3.68 5.84 -3.63 5.89 -3.57 5.9 -3.49 5.92 -3.42 5.91 -3.33 5.92 -3.27 5.94 -3.21 5.92 -3.12 5.9 -3.05 5.91 -2.98 5.85 -2.89 5.81 -2.82 5.81 -2.76 5.72 -2.65 5.72 -2.61 5.64 -2.51 5.58 -2.44 5.52 -2.35 5.39 -2.25 5.39 -2.22 5.3 -2.11 22.04 8.04 -4.3 1.73 -4.41 1.8 -4.59 1.93 -4.62 1.97 -4.72 2.06 -4.8 2.13 -4.86 2.21 -4.96 2.31 -4.99 2.36 -5.07 2.46 -5.13 2.53 -5.13 2.6 -5.18 2.67 -5.22 2.76 -5.22 2.81 -5.26 2.91 -5.27 2.97 -5.26 3.04 -5.26 3.11 -5.23 3.17 -5.24 3.27 -5.25 3.34 -5.2 3.39 -5.13 3.44 -5.12 3.54 -5.09 3.6 -5.02 3.67 -4.97 3.73 -4.91 3.8 -4.83 3.85 -4.74 3.93 -4.68 4 0 0zm-104.23 130.22l-47.36 8.1 0 0 1.88 -3.08 1.98 -3.22 2.08 -3.34 2.16 -3.46 2.26 -3.58 2.35 -3.7 2.45 -3.79 2.54 -3.88 2.63 -3.99 2.72 -4.05 2.82 -4.14 2.92 -4.21 3.01 -4.28 3.1 -4.34 3.21 -4.39 3.3 -4.43 3.39 -4.48 3.5 -4.51 3.59 -4.55 3.7 -4.56 3.79 -4.58 3.9 -4.59 3.99 -4.6 4.09 -4.61 4.2 -4.59 4.31 -4.58 4.41 -4.57 4.53 -4.54 4.63 -4.51 4.74 -4.48 4.85 -4.45 4.98 -4.4 43.58 -3.84 -4.6 4.06 -4.51 4.13 -4.44 4.2 -4.37 4.25 -4.27 4.3 -4.19 4.33 -4.11 4.38 -4.02 4.39 -3.93 4.41 -3.85 4.44 -3.76 4.43 -3.67 4.44 -3.58 4.42 -3.49 4.41 -3.4 4.39 -3.31 4.36 -3.22 4.33 -3.13 4.29 -3.04 4.24 -2.95 4.2 -2.86 4.13 -2.76 4.06 -2.68 3.99 -2.59 3.91 -2.5 3.84 -2.41 3.73 -2.33 3.64 -2.22 3.54 -2.14 3.42 -2.06 3.32 -1.96 3.18 -1.88 3.06 0 0zm-29.93 48.58l-46.52 6.88 -0.01 0.01 0.47 -0.61 0.48 -0.64 0.47 -0.65 0.46 -0.64 0.49 -0.73 0.51 -0.74 0.5 -0.76 0.54 -0.83 0.54 -0.84 0.56 -0.91 0.61 -0.98 0.64 -1.04 0.65 -1.06 0.69 -1.14 0.71 -1.2 0.77 -1.29 0.82 -1.37 0.85 -1.44 0.9 -1.51 0.95 -1.6 1.01 -1.71 1.07 -1.78 1.11 -1.88 1.19 -1.99 1.25 -2.11 1.32 -2.18 1.39 -2.32 1.47 -2.44 1.55 -2.55 1.62 -2.68 1.71 -2.81 1.8 -2.94 47.36 -8.1 -1.78 2.94 -1.71 2.79 -1.62 2.66 -1.53 2.55 -1.47 2.42 -1.37 2.3 -1.32 2.2 -1.25 2.07 -1.17 1.99 -1.13 1.88 -1.05 1.78 -1.01 1.69 -0.95 1.6 -0.9 1.53 -0.87 1.44 -0.8 1.35 -0.77 1.31 -0.75 1.24 -0.71 1.18 -0.69 1.12 -0.64 1.04 -0.61 1 -0.62 0.99 -0.6 0.94 -0.58 0.89 -0.58 0.88 -0.57 0.84 -0.55 0.79 -0.58 0.84 -0.59 0.79 -0.56 0.76 -0.59 0.77 -0.01 0.01zm-21.73 21.12l-43.24 3.56 0.63 -0.54 0.72 -0.61 0.68 -0.57 0.62 -0.53 0.67 -0.57 0.62 -0.53 0.61 -0.52 0.67 -0.58 0.62 -0.54 0.61 -0.53 0.61 -0.54 0.62 -0.55 0.61 -0.55 0.56 -0.51 0.61 -0.56 0.6 -0.55 0.52 -0.49 0.56 -0.54 0.59 -0.58 0.55 -0.54 0.56 -0.55 0.54 -0.56 0.55 -0.56 0.51 -0.54 0.53 -0.58 0.54 -0.58 0.48 -0.53 0.49 -0.57 0.51 -0.61 0.5 -0.59 0.49 -0.6 0.47 -0.6 46.52 -6.88 -0.61 0.76 -0.61 0.76 -0.62 0.75 -0.61 0.71 -0.65 0.75 -0.68 0.77 -0.64 0.7 -0.65 0.7 -0.69 0.72 -0.67 0.7 -0.68 0.68 -0.68 0.69 -0.69 0.68 -0.67 0.64 -0.7 0.68 -0.76 0.71 -0.68 0.63 -0.69 0.64 -0.74 0.67 -0.69 0.61 -0.7 0.63 -0.71 0.62 -0.71 0.63 -0.7 0.6 -0.67 0.58 -0.71 0.62 -0.72 0.61 -0.67 0.57 -0.72 0.61 -0.68 0.57 -0.62 0.53 -0.71 0.6zm0 0c-6.06,5.13 -20.67,10.09 -32.61,11.07 -11.94,0.98 -16.69,-2.38 -10.63,-7.51l43.24 -3.56z"/>
  </g>
  <g>
   <path class="fil1" d="M6665.87 949.34c2.2,3.54 -6.72,9.53 -19.93,13.36 -13.21,3.83 -25.71,4.06 -27.91,0.52l47.84 -13.88zm-125.62 -92.61l47.14 -14.78 0 0 3.01 3.13 2.96 3.16 2.9 3.19 2.86 3.19 2.81 3.22 2.76 3.24 2.72 3.25 2.68 3.27 2.63 3.29 2.6 3.3 2.55 3.32 2.53 3.33 2.49 3.34 2.45 3.36 2.42 3.38 2.4 3.37 2.36 3.4 2.35 3.4 2.32 3.41 2.29 3.41 2.28 3.43 2.25 3.43 2.24 3.44 2.22 3.45 2.21 3.44 2.19 3.46 2.18 3.47 2.18 3.45 2.17 3.46 2.16 3.46 2.16 3.48 2.15 3.46 -47.84 13.88 -2.15 -3.46 -2.16 -3.46 -2.16 -3.46 -2.17 -3.46 -2.16 -3.45 -2.18 -3.45 -2.19 -3.44 -2.19 -3.44 -2.22 -3.43 -2.22 -3.42 -2.25 -3.41 -2.26 -3.41 -2.27 -3.39 -2.3 -3.39 -2.33 -3.38 -2.34 -3.36 -2.38 -3.35 -2.4 -3.34 -2.43 -3.32 -2.47 -3.32 -2.49 -3.29 -2.53 -3.28 -2.56 -3.26 -2.61 -3.25 -2.64 -3.23 -2.68 -3.21 -2.72 -3.18 -2.77 -3.18 -2.82 -3.15 -2.86 -3.13 -2.9 -3.1 -2.97 -3.09 0 0zm-116.64 -82.15l44.44 -16.6 0 0 4.24 2 4.22 2.05 4.18 2.11 4.17 2.15 4.14 2.19 4.11 2.24 4.07 2.28 4.07 2.32 4.02 2.37 4 2.41 3.95 2.44 3.94 2.49 3.89 2.53 3.86 2.57 3.83 2.61 3.79 2.63 3.76 2.68 3.71 2.71 3.68 2.75 3.63 2.78 3.59 2.81 3.56 2.85 3.5 2.86 3.46 2.91 3.43 2.94 3.36 2.96 3.32 2.99 3.27 3.02 3.22 3.03 3.18 3.08 3.12 3.09 3.07 3.12 -47.14 14.78 -3.01 -3.06 -3.06 -3.03 -3.12 -3.02 -3.16 -2.99 -3.21 -2.96 -3.28 -2.93 -3.3 -2.92 -3.35 -2.88 -3.4 -2.85 -3.44 -2.82 -3.48 -2.79 -3.53 -2.75 -3.57 -2.74 -3.6 -2.69 -3.63 -2.65 -3.68 -2.62 -3.71 -2.59 -3.75 -2.55 -3.78 -2.51 -3.81 -2.47 -3.84 -2.43 -3.87 -2.4 -3.9 -2.35 -3.92 -2.31 -3.95 -2.26 -3.99 -2.22 -3.99 -2.18 -4.02 -2.13 -4.05 -2.09 -4.06 -2.03 -4.08 -1.99 -4.1 -1.94 0 0zm-115.22 -40.15l42.3 -17.42 0 0 2.26 0.69 2.41 0.73 2.54 0.77 2.69 0.79 2.81 0.84 2.93 0.85 3.06 0.91 3.16 0.93 3.28 0.98 3.35 1 3.45 1.04 3.58 1.08 3.64 1.12 3.71 1.16 3.78 1.19 3.87 1.24 3.92 1.27 3.98 1.32 4.02 1.35 4.09 1.4 4.13 1.45 4.15 1.48 4.2 1.53 4.21 1.57 4.25 1.62 4.26 1.67 4.27 1.71 4.28 1.76 4.28 1.8 4.29 1.86 4.26 1.91 4.25 1.95 -44.44 16.6 -4.13 -1.89 -4.12 -1.85 -4.13 -1.78 -4.16 -1.76 -4.14 -1.7 -4.15 -1.67 -4.12 -1.61 -4.11 -1.56 -4.11 -1.53 -4.08 -1.49 -4.05 -1.44 -4.01 -1.41 -3.97 -1.36 -3.94 -1.33 -3.88 -1.28 -3.82 -1.25 -3.77 -1.2 -3.72 -1.17 -3.65 -1.14 -3.56 -1.1 -3.48 -1.06 -3.43 -1.02 -3.33 -1 -3.24 -0.96 -3.14 -0.93 -3.04 -0.89 -2.93 -0.87 -2.85 -0.84 -2.71 -0.81 -2.6 -0.77 -2.49 -0.75 -2.36 -0.73 0 0zm22.84 147.49l-48.5 11.62 0 0 -0.12 -15.61 -0.11 -14.62 -0.1 -13.66 -0.07 -12.74 -0.05 -11.83 -0.02 -10.98 0.01 -10.13 0.05 -9.35 0.09 -8.56 0.14 -7.83 0.18 -7.12 0.24 -6.45 0.3 -5.81 0.36 -5.2 0.43 -4.62 0.5 -4.1 0.58 -3.6 0.69 -3.15 0.8 -2.76 0.95 -2.45 1.22 -2.28 1.82 -2.38 3.48 -3.04 9.04 -4.92 17.06 -5.17 11.84 -1.43 5.83 0.18 3.51 0.51 2.6 0.59 2.27 0.62 2.23 0.67 2.21 0.69 -42.3 17.42 -2.13 -0.67 -1.85 -0.55 -1.53 -0.42 -0.96 -0.23 0.21 0.01 2.75 0.06 9.02 -1.13 14.44 -4.39 6.64 -3.56 1.28 -1.08 -0.18 0.26 -0.58 1.1 -0.67 1.73 -0.66 2.3 -0.61 2.81 -0.54 3.36 -0.48 3.92 -0.43 4.5 -0.34 5.1 -0.3 5.73 -0.24 6.39 -0.18 7.08 -0.14 7.79 -0.09 8.54 -0.05 9.31 -0.01 10.13 0.02 10.96 0.05 11.83 0.07 12.72 0.1 13.66 0.11 14.62 0.12 15.61 0 0zm6.87 864.5l-48.5 11.62 -0.26 -32.46 -0.25 -32.43 -0.26 -32.36 -0.25 -32.27 -0.26 -32.14 -0.25 -31.98 -0.25 -31.79 -0.25 -31.56 -0.25 -31.31 -0.25 -31.03 -0.24 -30.7 -0.24 -30.35 -0.24 -29.97 -0.23 -29.55 -0.23 -29.11 -0.23 -28.63 -0.22 -28.12 -0.22 -27.57 -0.22 -27 -0.21 -26.39 -0.2 -25.76 -0.2 -25.08 -0.2 -24.38 -0.19 -23.65 -0.18 -22.88 -0.18 -22.08 -0.17 -21.26 -0.16 -20.39 -0.16 -19.49 -0.15 -18.57 -0.14 -17.62 -0.13 -16.62 48.5 -11.62 0.13 16.62 0.14 17.62 0.15 18.57 0.16 19.49 0.16 20.39 0.17 21.26 0.18 22.08 0.18 22.88 0.19 23.65 0.2 24.38 0.2 25.08 0.2 25.76 0.21 26.39 0.22 27 0.22 27.57 0.22 28.12 0.23 28.63 0.23 29.11 0.23 29.55 0.24 29.97 0.24 30.35 0.24 30.7 0.25 31.03 0.25 31.31 0.25 31.56 0.25 31.79 0.25 31.98 0.26 32.14 0.25 32.27 0.26 32.36 0.25 32.43 0.26 32.46zm0 0c0.03,4.12 -10.8,10.07 -24.19,13.27 -13.39,3.2 -24.28,2.47 -24.31,-1.65l48.5 -11.62z"/>
  </g>
  <g>
   <path class="fil1" d="M6618.29 1523.12c2.93,-4.72 15.92,-10.36 28.98,-12.57 13.06,-2.21 21.27,-0.17 18.34,4.55l-47.32 8.02zm-31.88 100.26l-45.18 5.36 -0.01 0 2.9 -3.01 2.84 -3.03 2.81 -3.08 2.77 -3.09 2.71 -3.12 2.68 -3.14 2.65 -3.16 2.6 -3.19 2.57 -3.2 2.54 -3.22 2.49 -3.25 2.48 -3.28 2.44 -3.26 2.4 -3.3 2.39 -3.32 2.36 -3.33 2.33 -3.33 2.32 -3.36 2.28 -3.36 2.26 -3.39 2.26 -3.39 2.23 -3.4 2.22 -3.41 2.21 -3.42 2.18 -3.42 2.19 -3.44 2.17 -3.44 2.16 -3.45 2.17 -3.45 2.15 -3.46 2.16 -3.46 2.15 -3.46 47.32 -8.02 -2.15 3.46 -2.16 3.48 -2.17 3.46 -2.17 3.47 -2.18 3.47 -2.19 3.46 -2.19 3.46 -2.22 3.46 -2.23 3.46 -2.24 3.45 -2.27 3.46 -2.28 3.43 -2.3 3.43 -2.34 3.44 -2.36 3.42 -2.37 3.41 -2.42 3.41 -2.43 3.38 -2.48 3.4 -2.52 3.38 -2.54 3.36 -2.59 3.35 -2.62 3.34 -2.67 3.34 -2.72 3.31 -2.75 3.3 -2.8 3.28 -2.87 3.28 -2.91 3.25 -2.95 3.24 -3.02 3.23 -3.08 3.21 -0.01 0zm-126.19 88.32l-28.78 -5.16 -0.02 0.01 3.61 -1.7 3.59 -1.76 3.7 -1.86 3.67 -1.88 3.59 -1.91 3.65 -1.98 3.66 -2.05 3.63 -2.08 3.64 -2.15 3.64 -2.19 3.61 -2.24 3.61 -2.28 3.58 -2.32 3.57 -2.37 3.56 -2.43 3.53 -2.46 3.5 -2.49 3.47 -2.53 3.45 -2.58 3.42 -2.61 3.39 -2.66 3.36 -2.68 3.3 -2.72 3.3 -2.77 3.24 -2.77 3.2 -2.82 3.18 -2.86 3.11 -2.86 3.08 -2.92 3.05 -2.94 2.98 -2.95 2.94 -2.99 45.18 -5.36 -3.14 3.19 -3.2 3.17 -3.25 3.14 -3.3 3.12 -3.37 3.12 -3.42 3.06 -3.46 3.06 -3.54 3.03 -3.56 2.99 -3.64 2.98 -3.68 2.94 -3.73 2.92 -3.78 2.89 -3.83 2.86 -3.87 2.83 -3.94 2.81 -3.97 2.76 -4.02 2.73 -4.07 2.71 -4.12 2.68 -4.17 2.64 -4.21 2.6 -4.26 2.57 -4.3 2.53 -4.39 2.52 -4.4 2.45 -4.45 2.44 -4.57 2.41 -4.55 2.34 -4.54 2.28 -4.71 2.3 -4.73 2.24 -0.02 0.01zm-125.26 43.97l-10.84 -11.98 -0.12 0.04 2.79 -0.86 2.58 -0.78 2.79 -0.85 3.08 -0.91 2.8 -0.82 2.87 -0.85 3.11 -0.92 3.17 -0.94 3.11 -0.91 3.04 -0.91 3.31 -1 3.31 -1 3.35 -1.04 3.45 -1.07 3.31 -1.04 3.53 -1.14 3.56 -1.14 3.45 -1.15 3.5 -1.18 3.63 -1.25 3.7 -1.29 3.59 -1.28 3.62 -1.32 3.62 -1.34 3.63 -1.39 3.73 -1.46 3.67 -1.47 3.61 -1.48 3.63 -1.53 3.63 -1.58 3.66 -1.64 3.61 -1.65 28.78 5.16 -4.77 2.19 -4.72 2.1 -4.79 2.08 -4.81 2.03 -4.81 1.98 -4.75 1.89 -4.65 1.82 -4.73 1.81 -4.7 1.76 -4.66 1.7 -4.61 1.64 -4.44 1.55 -4.43 1.53 -4.46 1.5 -4.41 1.45 -4.18 1.36 -4.11 1.32 -4.19 1.32 -3.91 1.21 -3.85 1.18 -3.75 1.14 -3.57 1.08 -3.64 1.09 -3.41 1.01 -3.13 0.92 -2.99 0.88 -2.99 0.89 -2.86 0.84 -2.32 0.69 -2.35 0.71 -2.32 0.7 -1.83 0.56 -0.12 0.04zm-52.23 -162.23l48.5 -11.54 0 0 -0.12 15.6 -0.11 14.62 -0.1 13.66 -0.07 12.73 -0.05 11.82 -0.02 10.96 0.01 10.12 0.05 9.32 0.09 8.54 0.14 7.79 0.18 7.08 0.24 6.39 0.3 5.73 0.34 5.11 0.43 4.5 0.48 3.94 0.55 3.38 0.62 2.87 0.68 2.36 0.73 1.89 0.75 1.41 0.72 0.96 0.56 0.51 0.11 0.07 -0.81 -0.23 -2.62 -0.26 -4.37 0.18 -4.46 0.64 -2.93 0.64 -1.14 0.3 0.77 -0.24 1.94 -0.6 10.84 11.98 -2.4 0.74 -3.31 1 -4.94 1.34 -6.49 1.44 -7.76 1.14 -7.45 0.32 -5.44 -0.56 -3.43 -1.03 -2.29 -1.27 -1.64 -1.47 -1.28 -1.68 -1.05 -1.97 -0.89 -2.29 -0.78 -2.68 -0.68 -3.11 -0.57 -3.58 -0.5 -4.08 -0.43 -4.62 -0.36 -5.19 -0.3 -5.81 -0.24 -6.45 -0.18 -7.12 -0.14 -7.83 -0.09 -8.56 -0.05 -9.34 -0.01 -10.14 0.02 -10.96 0.05 -11.84 0.07 -12.73 0.1 -13.66 0.11 -14.62 0.12 -15.62 0 0zm6.87 -864.51l48.5 -11.54 -0.26 32.46 -0.25 32.43 -0.26 32.36 -0.25 32.27 -0.26 32.14 -0.25 31.98 -0.25 31.79 -0.25 31.57 -0.25 31.31 -0.25 31.02 -0.24 30.71 -0.24 30.35 -0.24 29.97 -0.23 29.55 -0.23 29.11 -0.23 28.63 -0.22 28.11 -0.22 27.58 -0.22 27 -0.21 26.39 -0.2 25.76 -0.2 25.08 -0.2 24.38 -0.19 23.65 -0.18 22.88 -0.18 22.08 -0.17 21.26 -0.16 20.39 -0.16 19.49 -0.15 18.57 -0.14 17.62 -0.13 16.62 -48.5 11.54 0.13 -16.62 0.14 -17.62 0.15 -18.57 0.16 -19.49 0.16 -20.39 0.17 -21.26 0.18 -22.08 0.18 -22.88 0.19 -23.65 0.2 -24.38 0.2 -25.08 0.2 -25.76 0.21 -26.39 0.22 -27 0.22 -27.58 0.22 -28.11 0.23 -28.63 0.23 -29.11 0.23 -29.55 0.24 -29.97 0.24 -30.35 0.24 -30.71 0.25 -31.02 0.25 -31.31 0.25 -31.57 0.25 -31.79 0.25 -31.98 0.26 -32.14 0.25 -32.27 0.26 -32.36 0.25 -32.43 0.26 -32.46zm0 0c0.03,-4.13 10.92,-10.08 24.31,-13.26 13.39,-3.18 24.22,-2.41 24.19,1.72l-48.5 11.54z"/>
  </g>
  <g>
   <path class="fil1" d="M6261.63 1247.16c-10.58,0 -12.51,-4.24 -4.31,-9.46 8.2,-5.22 23.45,-9.46 34.03,-9.46l-29.72 18.92zm290.06 -18.92l-29.72 18.92 -8.13 0 -8.14 0 -8.13 0 -8.14 0 -8.13 0 -8.14 0 -8.14 0 -8.13 0 -8.14 0 -8.13 0 -8.14 0 -8.13 0 -8.14 0 -8.13 0 -8.14 0 -8.14 0 -8.13 0 -8.14 0 -8.13 0 -8.14 0 -8.14 0 -8.13 0 -8.14 0 -8.13 0 -8.14 0 -8.14 0 -8.13 0 -8.14 0 -8.13 0 -8.14 0 -8.13 0 -8.14 0 29.72 -18.92 8.14 0 8.13 0 8.14 0 8.13 0 8.14 0 8.13 0 8.14 0 8.14 0 8.13 0 8.14 0 8.13 0 8.14 0 8.14 0 8.13 0 8.14 0 8.13 0 8.14 0 8.14 0 8.13 0 8.14 0 8.13 0 8.14 0 8.13 0 8.14 0 8.13 0 8.14 0 8.14 0 8.13 0 8.14 0 8.13 0 8.14 0 8.13 0zm0 0c10.58,0 12.51,4.24 4.31,9.46 -8.2,5.22 -23.45,9.46 -34.03,9.46l29.72 -18.92z"/>
  </g>
  <g>
   <path class="fil1" d="M3151.08 1752.34c0.01,4.12 -10.84,10.07 -24.23,13.27 -13.39,3.2 -24.26,2.45 -24.27,-1.67l48.5 -11.6zm-50.14 -634.47l48.5 -11.6 0 0 0.03 13.42 0.04 14.06 0.04 14.69 0.03 15.29 0.04 15.87 0.04 16.44 0.05 16.97 0.04 17.5 0.05 18 0.04 18.47 0.05 18.93 0.05 19.37 0.05 19.78 0.05 20.18 0.05 20.55 0.05 20.91 0.06 21.24 0.05 21.55 0.06 21.85 0.05 22.11 0.06 22.36 0.06 22.6 0.06 22.8 0.05 22.98 0.06 23.16 0.06 23.3 0.06 23.42 0.06 23.53 0.07 23.61 0.06 23.68 0.06 23.71 0.06 23.74 -48.5 11.6 -0.06 -23.74 -0.06 -23.71 -0.06 -23.68 -0.07 -23.61 -0.06 -23.53 -0.06 -23.42 -0.06 -23.3 -0.06 -23.16 -0.05 -22.98 -0.06 -22.8 -0.06 -22.6 -0.06 -22.36 -0.05 -22.11 -0.06 -21.85 -0.05 -21.55 -0.06 -21.24 -0.05 -20.91 -0.05 -20.55 -0.05 -20.18 -0.05 -19.78 -0.05 -19.37 -0.05 -18.93 -0.04 -18.47 -0.05 -18 -0.04 -17.5 -0.05 -16.97 -0.04 -16.44 -0.04 -15.87 -0.03 -15.29 -0.04 -14.69 -0.04 -14.06 -0.03 -13.42 0 0zm-0.57 -212.34l48.5 -11.6 0 0 0.01 4.32 0.01 4.23 0.01 4.15 0.01 4.11 0.01 4.08 0.01 4.08 0.01 4.11 0.01 4.17 0.01 4.23 0.02 4.34 0.01 4.46 0.01 4.61 0.01 4.79 0.02 4.98 0.01 5.21 0.02 5.45 0.01 5.73 0.02 6.03 0.02 6.34 0.02 6.69 0.02 7.06 0.02 7.46 0.02 7.88 0.02 8.32 0.02 8.79 0.03 9.28 0.03 9.8 0.02 10.35 0.03 10.91 0.03 11.5 0.04 12.12 0.03 12.76 -48.5 11.6 -0.03 -12.76 -0.04 -12.12 -0.03 -11.5 -0.03 -10.91 -0.02 -10.35 -0.03 -9.8 -0.03 -9.28 -0.02 -8.79 -0.02 -8.32 -0.02 -7.88 -0.02 -7.46 -0.02 -7.06 -0.02 -6.69 -0.02 -6.34 -0.02 -6.03 -0.01 -5.73 -0.02 -5.45 -0.01 -5.21 -0.02 -4.98 -0.01 -4.79 -0.01 -4.61 -0.01 -4.46 -0.02 -4.34 -0.01 -4.23 -0.01 -4.17 -0.01 -4.11 -0.01 -4.08 -0.01 -4.08 -0.01 -4.11 -0.01 -4.15 -0.01 -4.23 -0.01 -4.32 0 0zm-0.46 -181.49l48.5 -11.6 0.02 6.32 0.01 6.31 0.02 6.31 0.01 6.29 0.02 6.28 0.02 6.26 0.01 6.24 0.02 6.21 0.01 6.18 0.02 6.15 0.01 6.11 0.02 6.07 0.01 6.02 0.02 5.97 0.01 5.92 0.02 5.86 0.01 5.81 0.02 5.73 0.01 5.67 0.02 5.6 0.01 5.52 0.01 5.45 0.02 5.36 0.01 5.27 0.01 5.18 0.02 5.08 0.01 4.99 0.01 4.89 0.01 4.78 0.02 4.67 0.01 4.55 0.01 4.44 -48.5 11.6 -0.01 -4.44 -0.01 -4.55 -0.02 -4.67 -0.01 -4.78 -0.01 -4.89 -0.01 -4.99 -0.02 -5.08 -0.01 -5.18 -0.01 -5.27 -0.02 -5.36 -0.01 -5.45 -0.01 -5.52 -0.02 -5.6 -0.01 -5.67 -0.02 -5.73 -0.01 -5.81 -0.02 -5.86 -0.01 -5.92 -0.02 -5.97 -0.01 -6.02 -0.02 -6.07 -0.01 -6.11 -0.02 -6.15 -0.01 -6.18 -0.02 -6.21 -0.01 -6.24 -0.02 -6.26 -0.02 -6.28 -0.01 -6.29 -0.02 -6.31 -0.01 -6.31 -0.02 -6.32zm0 0c-0.01,-4.12 10.84,-10.07 24.23,-13.27 13.39,-3.2 24.26,-2.45 24.27,1.67l-48.5 11.6z"/>
  </g>
  <g>
   <path class="fil1" d="M3357.89 1264.04c-10.58,0 -12.51,-4.24 -4.31,-9.46 8.2,-5.22 23.45,-9.46 34.03,-9.46l-29.72 18.92zm176.51 -257.49l48.5 -11.58 0 0 -0.24 13.14 -0.72 12.98 -1.19 12.8 -1.66 12.59 -2.08 12.38 -2.53 12.16 -2.95 11.9 -3.37 11.64 -3.76 11.37 -4.16 11.08 -4.53 10.77 -4.91 10.46 -5.27 10.12 -5.63 9.78 -5.98 9.42 -6.33 9.06 -6.66 8.68 -7.02 8.3 -7.37 7.9 -7.74 7.52 -8.15 7.13 -8.61 6.77 -9.16 6.4 -9.84 6.06 -10.69 5.76 -11.81 5.44 -13.04 5.05 -14.12 4.45 -14.69 3.58 -14.46 2.51 -13.62 1.42 -12.72 0.45 29.72 -18.92 6.42 -0.21 5.26 -0.54 4.14 -0.71 3.63 -0.9 3.86 -1.21 4.6 -1.79 5.47 -2.54 6.19 -3.34 6.64 -4.1 6.86 -4.8 6.97 -5.47 6.93 -6.07 6.84 -6.64 6.67 -7.16 6.48 -7.66 6.24 -8.12 5.99 -8.58 5.7 -9 5.41 -9.4 5.09 -9.78 4.77 -10.14 4.41 -10.47 4.06 -10.82 3.68 -11.11 3.29 -11.42 2.89 -11.68 2.49 -11.94 2.06 -12.18 1.62 -12.41 1.17 -12.6 0.72 -12.8 0.24 -12.98 0 0zm-174.14 -250.11l31.46 -18.9 11.46 0.67 10.77 1.36 10.25 2 9.81 2.6 9.45 3.18 9.15 3.74 8.86 4.28 8.59 4.8 8.33 5.32 8.07 5.81 7.81 6.29 7.54 6.76 7.27 7.21 6.99 7.66 6.7 8.07 6.4 8.49 6.1 8.88 5.78 9.27 5.45 9.62 5.13 9.97 4.76 10.31 4.43 10.63 4.03 10.94 3.68 11.22 3.27 11.49 2.88 11.76 2.47 12 2.04 12.22 1.61 12.44 1.16 12.63 0.7 12.82 0.24 12.99 -48.5 11.58 -0.24 -12.81 -0.7 -12.66 -1.14 -12.47 -1.59 -12.28 -2.02 -12.08 -2.43 -11.84 -2.84 -11.6 -3.23 -11.35 -3.62 -11.06 -3.99 -10.78 -4.35 -10.47 -4.7 -10.15 -5.03 -9.81 -5.37 -9.46 -5.66 -9.09 -5.98 -8.7 -6.26 -8.29 -6.54 -7.89 -6.79 -7.44 -7.05 -6.99 -7.28 -6.52 -7.49 -6.05 -7.69 -5.53 -7.87 -5.02 -8.01 -4.48 -8.14 -3.94 -8.23 -3.36 -8.27 -2.78 -8.23 -2.2 -8.11 -1.58 -7.87 -1 -7.42 -0.43zm0 0c-10.19,-0.24 -11.41,-4.68 -2.73,-9.89 8.68,-5.21 24,-9.25 34.19,-9.01l-31.46 18.9z"/>
  </g>
  <g>
   <path class="fil1" d="M3379.33 1300c10.58,0 12.51,4.24 4.31,9.46 -8.2,5.22 -23.45,9.46 -34.03,9.46l29.72 -18.92zm-267.2 -266.01l48.5 -11.58 0 0 0.3 14.37 0.87 14.2 1.45 13.99 1.98 13.76 2.54 13.52 3.05 13.27 3.56 12.98 4.06 12.69 4.54 12.37 5 12.05 5.45 11.69 5.89 11.33 6.31 10.93 6.71 10.54 7.1 10.1 7.49 9.68 7.83 9.22 8.17 8.73 8.51 8.23 8.81 7.74 9.1 7.18 9.37 6.64 9.61 6.08 9.83 5.48 10.04 4.87 10.18 4.26 10.3 3.61 10.36 2.95 10.35 2.28 10.26 1.61 10.03 0.94 9.65 0.3 -29.72 18.92 -13.83 -0.44 -13.13 -1.22 -12.58 -1.97 -12.11 -2.66 -11.7 -3.33 -11.36 -3.97 -11 -4.6 -10.68 -5.19 -10.39 -5.78 -10.05 -6.36 -9.73 -6.9 -9.42 -7.44 -9.07 -7.96 -8.73 -8.45 -8.37 -8.95 -8.01 -9.42 -7.63 -9.86 -7.24 -10.3 -6.83 -10.72 -6.41 -11.11 -5.97 -11.49 -5.53 -11.87 -5.08 -12.21 -4.6 -12.55 -4.1 -12.85 -3.62 -13.16 -3.09 -13.43 -2.56 -13.7 -2.02 -13.94 -1.45 -14.15 -0.89 -14.38 -0.3 -14.57 0 0zm262.35 -296.45l-27.96 18.9 -8.56 0.44 -7.55 0.86 -6.59 1.16 -6.1 1.47 -6.13 1.86 -6.59 2.44 -7.26 3.17 -7.79 3.94 -8.17 4.71 -8.39 5.46 -8.43 6.14 -8.38 6.78 -8.24 7.38 -8.03 7.96 -7.8 8.49 -7.51 9 -7.21 9.47 -6.86 9.92 -6.5 10.36 -6.12 10.77 -5.72 11.17 -5.3 11.53 -4.87 11.88 -4.42 12.21 -3.95 12.52 -3.48 12.81 -2.97 13.1 -2.47 13.35 -1.95 13.59 -1.41 13.81 -0.85 14.01 -0.29 14.21 -48.5 11.58 0.29 -14.39 0.87 -14.21 1.43 -14.01 1.97 -13.81 2.51 -13.57 3.03 -13.32 3.54 -13.07 4.03 -12.78 4.52 -12.49 4.99 -12.18 5.46 -11.85 5.9 -11.51 6.34 -11.15 6.76 -10.8 7.2 -10.4 7.61 -10.01 8.03 -9.6 8.44 -9.19 8.87 -8.78 9.32 -8.36 9.8 -7.94 10.35 -7.52 10.95 -7.12 11.71 -6.75 12.59 -6.34 13.6 -5.93 14.73 -5.44 15.61 -4.74 16.04 -3.85 15.93 -2.82 15.31 -1.74 14.62 -0.78zm0 0c10.94,-0.23 13.56,3.81 5.84,9.02 -7.72,5.21 -22.86,9.65 -33.8,9.88l27.96 -18.9z"/>
  </g>
  <g>
   <path class="fil1" d="M6891.62 1744.93c0.01,4.12 -10.84,10.07 -24.23,13.27 -13.39,3.2 -24.26,2.45 -24.27,-1.67l48.5 -11.6zm-50.15 -637.29l48.5 -11.6 0 0 0.03 13.48 0.04 14.12 0.03 14.75 0.04 15.36 0.04 15.94 0.04 16.51 0.04 17.05 0.05 17.57 0.04 18.08 0.05 18.55 0.05 19.02 0.04 19.45 0.05 19.87 0.06 20.27 0.05 20.64 0.05 21 0.06 21.33 0.05 21.65 0.06 21.94 0.05 22.21 0.06 22.46 0.06 22.69 0.06 22.9 0.06 23.09 0.06 23.25 0.06 23.4 0.06 23.53 0.06 23.63 0.06 23.71 0.06 23.78 0.07 23.82 0.06 23.84 -48.5 11.6 -0.06 -23.84 -0.07 -23.82 -0.06 -23.78 -0.06 -23.71 -0.06 -23.63 -0.06 -23.53 -0.06 -23.4 -0.06 -23.25 -0.06 -23.09 -0.06 -22.9 -0.06 -22.69 -0.06 -22.46 -0.05 -22.21 -0.06 -21.94 -0.05 -21.65 -0.06 -21.33 -0.05 -21 -0.05 -20.64 -0.06 -20.27 -0.05 -19.87 -0.04 -19.45 -0.05 -19.02 -0.05 -18.55 -0.04 -18.08 -0.05 -17.57 -0.04 -17.05 -0.04 -16.51 -0.04 -15.94 -0.04 -15.36 -0.03 -14.75 -0.04 -14.12 -0.03 -13.48 0 0zm-0.58 -213.26l48.5 -11.6 0 0 0.01 4.34 0.01 4.25 0.01 4.17 0.01 4.12 0.01 4.1 0.02 4.1 0.01 4.13 0.01 4.18 0.01 4.26 0.01 4.36 0.01 4.48 0.02 4.63 0.01 4.81 0.01 5 0.02 5.23 0.01 5.48 0.02 5.75 0.02 6.05 0.01 6.37 0.02 6.72 0.02 7.09 0.02 7.49 0.02 7.91 0.03 8.36 0.02 8.83 0.03 9.32 0.02 9.84 0.03 10.39 0.03 10.96 0.03 11.55 0.04 12.17 0.03 12.82 -48.5 11.6 -0.03 -12.82 -0.04 -12.17 -0.03 -11.55 -0.03 -10.96 -0.03 -10.39 -0.02 -9.84 -0.03 -9.32 -0.02 -8.83 -0.03 -8.36 -0.02 -7.91 -0.02 -7.49 -0.02 -7.09 -0.02 -6.72 -0.01 -6.37 -0.02 -6.05 -0.02 -5.75 -0.01 -5.48 -0.02 -5.23 -0.01 -5 -0.01 -4.81 -0.02 -4.63 -0.01 -4.48 -0.01 -4.36 -0.01 -4.26 -0.01 -4.18 -0.01 -4.13 -0.02 -4.1 -0.01 -4.1 -0.01 -4.12 -0.01 -4.17 -0.01 -4.25 -0.01 -4.34 0 0zm-0.46 -182.27l48.5 -11.6 0.02 6.34 0.01 6.35 0.02 6.33 0.01 6.32 0.02 6.31 0.02 6.28 0.01 6.27 0.02 6.24 0.01 6.2 0.02 6.18 0.01 6.13 0.02 6.1 0.01 6.05 0.02 5.99 0.01 5.95 0.02 5.89 0.01 5.82 0.02 5.77 0.01 5.69 0.02 5.62 0.01 5.55 0.01 5.47 0.02 5.38 0.01 5.29 0.01 5.21 0.02 5.1 0.01 5.01 0.01 4.91 0.01 4.8 0.02 4.69 0.01 4.57 0.01 4.46 -48.5 11.6 -0.01 -4.46 -0.01 -4.57 -0.02 -4.69 -0.01 -4.8 -0.01 -4.91 -0.01 -5.01 -0.02 -5.1 -0.01 -5.21 -0.01 -5.29 -0.02 -5.38 -0.01 -5.47 -0.01 -5.55 -0.02 -5.62 -0.01 -5.69 -0.02 -5.77 -0.01 -5.82 -0.02 -5.89 -0.01 -5.95 -0.02 -5.99 -0.01 -6.05 -0.02 -6.1 -0.01 -6.13 -0.02 -6.18 -0.01 -6.2 -0.02 -6.24 -0.01 -6.27 -0.02 -6.28 -0.02 -6.31 -0.01 -6.32 -0.02 -6.33 -0.01 -6.35 -0.02 -6.34zm0 0c-0.01,-4.12 10.84,-10.07 24.23,-13.27 13.39,-3.2 24.26,-2.45 24.27,1.67l-48.5 11.6z"/>
  </g>
  <g>
   <path class="fil1" d="M7307.52 1746.12c0.01,4.12 -10.84,10.07 -24.23,13.27 -13.39,3.2 -24.26,2.45 -24.27,-1.67l48.5 -11.6zm-50.15 -637.29l48.5 -11.6 0 0 0.03 13.48 0.04 14.12 0.04 14.75 0.03 15.36 0.04 15.94 0.04 16.51 0.05 17.05 0.04 17.57 0.05 18.08 0.04 18.55 0.05 19.02 0.05 19.45 0.05 19.87 0.05 20.27 0.05 20.64 0.06 21 0.05 21.33 0.05 21.65 0.06 21.94 0.06 22.21 0.05 22.46 0.06 22.69 0.06 22.9 0.06 23.09 0.06 23.25 0.06 23.4 0.06 23.53 0.06 23.63 0.06 23.71 0.06 23.78 0.07 23.82 0.06 23.84 -48.5 11.6 -0.06 -23.84 -0.07 -23.82 -0.06 -23.78 -0.06 -23.71 -0.06 -23.63 -0.06 -23.53 -0.06 -23.4 -0.06 -23.25 -0.06 -23.09 -0.06 -22.9 -0.06 -22.69 -0.05 -22.46 -0.06 -22.21 -0.06 -21.94 -0.05 -21.65 -0.05 -21.33 -0.06 -21 -0.05 -20.64 -0.05 -20.27 -0.05 -19.87 -0.05 -19.45 -0.05 -19.02 -0.04 -18.55 -0.05 -18.08 -0.04 -17.57 -0.05 -17.05 -0.04 -16.51 -0.04 -15.94 -0.03 -15.36 -0.04 -14.75 -0.04 -14.12 -0.03 -13.48 0 0zm-0.58 -213.26l48.5 -11.6 0 0 0.01 4.34 0.01 4.24 0.01 4.18 0.01 4.12 0.02 4.1 0.01 4.1 0.01 4.13 0.01 4.18 0.01 4.26 0.01 4.35 0.02 4.49 0.01 4.63 0.01 4.8 0.02 5.01 0.01 5.23 0.02 5.47 0.01 5.76 0.02 6.05 0.02 6.37 0.02 6.72 0.02 7.09 0.02 7.49 0.02 7.91 0.02 8.36 0.02 8.82 0.03 9.33 0.03 9.84 0.02 10.39 0.03 10.96 0.03 11.55 0.04 12.17 0.03 12.82 -48.5 11.6 -0.03 -12.82 -0.04 -12.17 -0.03 -11.55 -0.03 -10.96 -0.02 -10.39 -0.03 -9.84 -0.03 -9.33 -0.02 -8.82 -0.02 -8.36 -0.02 -7.91 -0.02 -7.49 -0.02 -7.09 -0.02 -6.72 -0.02 -6.37 -0.02 -6.05 -0.01 -5.76 -0.02 -5.47 -0.01 -5.23 -0.02 -5.01 -0.01 -4.8 -0.01 -4.63 -0.02 -4.49 -0.01 -4.35 -0.01 -4.26 -0.01 -4.18 -0.01 -4.13 -0.01 -4.1 -0.02 -4.1 -0.01 -4.12 -0.01 -4.18 -0.01 -4.24 -0.01 -4.34 0 0zm-0.46 -182.28l48.5 -11.6 0.02 6.35 0.01 6.34 0.02 6.33 0.01 6.32 0.02 6.31 0.02 6.29 0.01 6.26 0.02 6.24 0.01 6.21 0.02 6.17 0.02 6.14 0.01 6.09 0.02 6.05 0.01 6 0.02 5.94 0.01 5.89 0.02 5.83 0.01 5.76 0.02 5.7 0.01 5.62 0.01 5.54 0.02 5.47 0.01 5.38 0.02 5.3 0.01 5.2 0.01 5.11 0.01 5.01 0.02 4.91 0.01 4.8 0.01 4.69 0.01 4.57 0.01 4.46 -48.5 11.6 -0.01 -4.46 -0.01 -4.57 -0.01 -4.69 -0.01 -4.8 -0.02 -4.91 -0.01 -5.01 -0.01 -5.11 -0.01 -5.2 -0.02 -5.3 -0.01 -5.38 -0.02 -5.47 -0.01 -5.54 -0.01 -5.62 -0.02 -5.7 -0.01 -5.76 -0.02 -5.83 -0.01 -5.89 -0.02 -5.94 -0.01 -6 -0.02 -6.05 -0.01 -6.09 -0.02 -6.14 -0.02 -6.17 -0.01 -6.21 -0.02 -6.24 -0.01 -6.26 -0.02 -6.29 -0.02 -6.31 -0.01 -6.32 -0.02 -6.33 -0.01 -6.34 -0.02 -6.35zm0 0c-0.01,-4.12 10.84,-10.07 24.23,-13.27 13.39,-3.2 24.26,-2.45 24.27,1.67l-48.5 11.6z"/>
  </g>
  <g>
   <path class="fil1" d="M7476.97 1743.75c-12.65,4.37 -26.47,5.6 -30.85,2.76 -4.38,-2.84 2.32,-8.71 14.97,-13.08l15.88 10.32zm88.2 -65.37l41.7 -2.32 0.01 -0.01 -4.88 3.65 -4.79 3.53 -4.73 3.38 -4.65 3.25 -4.58 3.12 -4.52 2.99 -4.44 2.87 -4.39 2.76 -4.37 2.67 -4.31 2.55 -4.26 2.46 -4.22 2.35 -4.2 2.28 -4.17 2.19 -4.17 2.13 -4.12 2.02 -4 1.91 -4.1 1.9 -4.06 1.82 -3.88 1.69 -4 1.69 -3.94 1.61 -3.73 1.49 -3.85 1.5 -3.73 1.41 -3.6 1.34 -3.55 1.29 -3.53 1.28 -3.48 1.22 -3.29 1.15 -3.19 1.1 -3.18 1.1 -15.88 -10.32 3.04 -1.06 3.05 -1.06 2.95 -1.03 2.78 -0.98 2.75 -0.98 2.77 -1.01 2.74 -1.02 2.67 -1.01 2.61 -1.02 2.77 -1.11 2.64 -1.07 2.64 -1.13 2.84 -1.23 2.74 -1.22 2.8 -1.3 2.98 -1.43 2.98 -1.46 3.01 -1.53 3.15 -1.65 3.24 -1.76 3.34 -1.87 3.44 -1.98 3.53 -2.09 3.61 -2.21 3.75 -2.36 3.86 -2.49 3.96 -2.63 4.06 -2.76 4.17 -2.91 4.27 -3.06 4.41 -3.23 4.52 -3.39 0.01 -0.01zm167.58 -186.61l47.4 -8.16 0 0 -4.92 8.05 -5.02 7.93 -5.11 7.82 -5.19 7.69 -5.26 7.57 -5.32 7.43 -5.39 7.32 -5.45 7.19 -5.5 7.06 -5.53 6.93 -5.59 6.8 -5.6 6.66 -5.64 6.54 -5.65 6.4 -5.67 6.26 -5.66 6.12 -5.68 6 -5.66 5.84 -5.65 5.73 -5.65 5.58 -5.62 5.42 -5.57 5.28 -5.55 5.14 -5.51 5.01 -5.46 4.85 -5.4 4.7 -5.36 4.57 -5.29 4.4 -5.2 4.27 -5.15 4.11 -5.05 3.96 -4.98 3.82 -41.7 2.32 4.62 -3.54 4.75 -3.72 4.83 -3.87 4.94 -4.03 5.03 -4.2 5.08 -4.33 5.16 -4.5 5.24 -4.65 5.29 -4.79 5.33 -4.96 5.39 -5.1 5.42 -5.24 5.45 -5.38 5.47 -5.53 5.5 -5.68 5.5 -5.82 5.52 -5.96 5.51 -6.1 5.51 -6.22 5.48 -6.38 5.48 -6.5 5.45 -6.64 5.41 -6.77 5.38 -6.9 5.33 -7.03 5.27 -7.16 5.22 -7.29 5.16 -7.41 5.09 -7.55 5.01 -7.66 4.92 -7.79 4.84 -7.91 0 0zm105.71 -252.4l48.24 -9.94 -0.01 0 -1.88 5.89 -1.98 6.12 -2.06 6.38 -2.15 6.6 -2.26 6.82 -2.33 7.02 -2.43 7.22 -2.53 7.39 -2.61 7.57 -2.72 7.72 -2.79 7.87 -2.9 8 -2.99 8.11 -3.07 8.23 -3.18 8.33 -3.27 8.41 -3.36 8.48 -3.46 8.55 -3.55 8.59 -3.66 8.63 -3.74 8.67 -3.84 8.67 -3.94 8.67 -4.03 8.66 -4.13 8.65 -4.23 8.61 -4.32 8.56 -4.43 8.51 -4.53 8.45 -4.62 8.35 -4.72 8.28 -4.83 8.17 -47.4 8.16 4.75 -8.03 4.64 -8.14 4.56 -8.25 4.47 -8.33 4.37 -8.41 4.28 -8.48 4.19 -8.51 4.09 -8.57 3.99 -8.58 3.9 -8.61 3.82 -8.61 3.72 -8.59 3.62 -8.57 3.53 -8.55 3.44 -8.49 3.34 -8.44 3.25 -8.37 3.16 -8.27 3.07 -8.19 2.97 -8.09 2.88 -7.96 2.79 -7.83 2.7 -7.7 2.61 -7.53 2.51 -7.37 2.43 -7.2 2.33 -7 2.24 -6.8 2.15 -6.58 2.06 -6.36 1.98 -6.12 1.88 -5.87 -0.01 0zm29.6 -92.09l48.04 -9.4 0 -0.01 -0.51 1.28 -0.51 1.33 -0.52 1.34 -0.51 1.37 -0.51 1.44 -0.54 1.49 -0.52 1.54 -0.55 1.63 -0.58 1.71 -0.58 1.78 -0.61 1.88 -0.63 1.99 -0.67 2.09 -0.69 2.22 -0.74 2.33 -0.77 2.46 -0.81 2.6 -0.85 2.77 -0.91 2.91 -0.95 3.06 -1 3.24 -1.06 3.43 -1.12 3.6 -1.19 3.8 -1.24 4 -1.32 4.21 -1.39 4.42 -1.46 4.65 -1.54 4.88 -1.62 5.13 -1.71 5.36 -1.79 5.62 -48.24 9.94 1.79 -5.62 1.71 -5.36 1.62 -5.11 1.54 -4.88 1.46 -4.65 1.39 -4.42 1.32 -4.19 1.24 -4 1.19 -3.8 1.12 -3.6 1.06 -3.41 1 -3.24 0.95 -3.08 0.91 -2.91 0.85 -2.75 0.81 -2.62 0.77 -2.48 0.74 -2.33 0.69 -2.22 0.67 -2.11 0.65 -2.01 0.61 -1.9 0.6 -1.82 0.58 -1.73 0.55 -1.65 0.56 -1.6 0.54 -1.53 0.53 -1.48 0.53 -1.45 0.54 -1.4 0.53 -1.37 0.55 -1.36 0 -0.01zm20.44 -37.91l47.34 -8.04 -0.67 1.08 -0.68 1.1 -0.67 1.08 -0.66 1.07 -0.67 1.09 -0.65 1.07 -0.66 1.1 -0.67 1.1 -0.65 1.08 -0.65 1.1 -0.66 1.1 -0.64 1.09 -0.64 1.1 -0.64 1.11 -0.62 1.1 -0.63 1.13 -0.63 1.12 -0.61 1.13 -0.63 1.15 -0.6 1.13 -0.6 1.16 -0.61 1.17 -0.58 1.16 -0.59 1.19 -0.58 1.18 -0.56 1.2 -0.58 1.22 -0.56 1.22 -0.54 1.23 -0.55 1.26 -0.53 1.25 -0.53 1.28 -48.04 9.4 0.55 -1.34 0.57 -1.33 0.57 -1.3 0.58 -1.31 0.6 -1.3 0.58 -1.26 0.6 -1.26 0.62 -1.26 0.61 -1.23 0.62 -1.24 0.63 -1.21 0.62 -1.2 0.66 -1.23 0.63 -1.17 0.65 -1.19 0.65 -1.18 0.65 -1.15 0.66 -1.16 0.66 -1.15 0.66 -1.14 0.68 -1.15 0.66 -1.12 0.67 -1.12 0.67 -1.12 0.67 -1.1 0.66 -1.1 0.69 -1.13 0.67 -1.09 0.68 -1.11 0.69 -1.1 0.66 -1.06 0.67 -1.1zm0 0c2.92,-4.72 15.89,-10.36 28.96,-12.58 13.07,-2.22 21.3,-0.18 18.38,4.54l-47.34 8.04z"/>
  </g>
  <g>
   <path class="fil1" d="M7519.9 1726.53c0.01,4.12 -10.84,10.07 -24.23,13.27 -13.39,3.2 -24.26,2.45 -24.27,-1.67l48.5 -11.6zm-50.14 -637.28l48.5 -11.6 0 0 0.03 13.48 0.04 14.12 0.03 14.75 0.04 15.36 0.04 15.94 0.04 16.51 0.04 17.05 0.05 17.57 0.04 18.08 0.05 18.55 0.05 19.01 0.04 19.46 0.05 19.87 0.06 20.26 0.05 20.65 0.05 21 0.05 21.33 0.06 21.64 0.05 21.94 0.06 22.21 0.06 22.46 0.06 22.69 0.05 22.9 0.06 23.09 0.06 23.26 0.06 23.4 0.06 23.52 0.06 23.63 0.07 23.72 0.06 23.77 0.06 23.82 0.06 23.84 -48.5 11.6 -0.06 -23.84 -0.06 -23.82 -0.06 -23.77 -0.07 -23.72 -0.06 -23.63 -0.06 -23.52 -0.06 -23.4 -0.06 -23.26 -0.06 -23.09 -0.05 -22.9 -0.06 -22.69 -0.06 -22.46 -0.06 -22.21 -0.05 -21.94 -0.06 -21.64 -0.05 -21.33 -0.05 -21 -0.05 -20.65 -0.06 -20.26 -0.05 -19.87 -0.04 -19.46 -0.05 -19.01 -0.05 -18.55 -0.04 -18.08 -0.05 -17.57 -0.04 -17.05 -0.04 -16.51 -0.04 -15.94 -0.04 -15.36 -0.03 -14.75 -0.04 -14.12 -0.03 -13.48 0 0zm-0.58 -213.26l48.5 -11.6 0 0 0.01 4.34 0.01 4.24 0.01 4.18 0.01 4.12 0.01 4.1 0.02 4.1 0.01 4.13 0.01 4.18 0.01 4.26 0.01 4.35 0.01 4.49 0.02 4.63 0.01 4.8 0.01 5.01 0.02 5.23 0.01 5.47 0.02 5.76 0.02 6.05 0.01 6.37 0.02 6.72 0.02 7.09 0.02 7.49 0.02 7.91 0.03 8.36 0.02 8.82 0.03 9.33 0.02 9.84 0.03 10.39 0.03 10.96 0.03 11.55 0.04 12.17 0.03 12.82 -48.5 11.6 -0.03 -12.82 -0.04 -12.17 -0.03 -11.55 -0.03 -10.96 -0.03 -10.39 -0.02 -9.84 -0.03 -9.33 -0.02 -8.82 -0.03 -8.36 -0.02 -7.91 -0.02 -7.49 -0.02 -7.09 -0.02 -6.72 -0.01 -6.37 -0.02 -6.05 -0.02 -5.76 -0.01 -5.47 -0.02 -5.23 -0.01 -5.01 -0.01 -4.8 -0.02 -4.63 -0.01 -4.49 -0.01 -4.35 -0.01 -4.26 -0.01 -4.18 -0.01 -4.13 -0.02 -4.1 -0.01 -4.1 -0.01 -4.12 -0.01 -4.18 -0.01 -4.24 -0.01 -4.34 0 0zm-0.46 -182.28l48.5 -11.6 0.02 6.35 0.01 6.34 0.02 6.33 0.01 6.32 0.02 6.31 0.02 6.29 0.01 6.26 0.02 6.24 0.01 6.21 0.02 6.17 0.01 6.14 0.02 6.09 0.01 6.05 0.02 6 0.01 5.94 0.02 5.89 0.01 5.83 0.02 5.76 0.01 5.7 0.02 5.62 0.01 5.54 0.01 5.47 0.02 5.38 0.01 5.3 0.01 5.2 0.02 5.11 0.01 5.01 0.01 4.91 0.01 4.8 0.02 4.69 0.01 4.57 0.01 4.46 -48.5 11.6 -0.01 -4.46 -0.01 -4.57 -0.02 -4.69 -0.01 -4.8 -0.01 -4.91 -0.01 -5.01 -0.02 -5.11 -0.01 -5.2 -0.01 -5.3 -0.02 -5.38 -0.01 -5.47 -0.01 -5.54 -0.02 -5.62 -0.01 -5.7 -0.02 -5.76 -0.01 -5.83 -0.02 -5.89 -0.01 -5.94 -0.02 -6 -0.01 -6.05 -0.02 -6.09 -0.01 -6.14 -0.02 -6.17 -0.01 -6.21 -0.02 -6.24 -0.01 -6.26 -0.02 -6.29 -0.02 -6.31 -0.01 -6.32 -0.02 -6.33 -0.01 -6.34 -0.02 -6.35zm0 0c-0.01,-4.12 10.84,-10.07 24.23,-13.27 13.39,-3.2 24.26,-2.45 24.27,1.67l-48.5 11.6z"/>
  </g>
  <g>
   <path class="fil1" d="M7935.81 1727.72c0.01,4.12 -10.84,10.07 -24.23,13.27 -13.39,3.2 -24.26,2.45 -24.27,-1.67l48.5 -11.6zm-50.15 -637.28l48.5 -11.6 0 0 0.03 13.48 0.04 14.12 0.04 14.75 0.03 15.36 0.04 15.94 0.04 16.51 0.05 17.05 0.04 17.57 0.05 18.07 0.04 18.55 0.05 19.02 0.05 19.45 0.05 19.87 0.05 20.27 0.05 20.64 0.06 21 0.05 21.33 0.05 21.65 0.06 21.94 0.06 22.21 0.05 22.46 0.06 22.69 0.06 22.9 0.06 23.09 0.06 23.25 0.06 23.4 0.06 23.53 0.06 23.63 0.06 23.71 0.06 23.78 0.07 23.82 0.06 23.84 -48.5 11.6 -0.06 -23.84 -0.07 -23.82 -0.06 -23.78 -0.06 -23.71 -0.06 -23.63 -0.06 -23.53 -0.06 -23.4 -0.06 -23.25 -0.06 -23.09 -0.06 -22.9 -0.06 -22.69 -0.05 -22.46 -0.06 -22.21 -0.06 -21.94 -0.05 -21.65 -0.05 -21.33 -0.06 -21 -0.05 -20.64 -0.05 -20.27 -0.05 -19.87 -0.05 -19.45 -0.05 -19.02 -0.04 -18.55 -0.05 -18.07 -0.04 -17.57 -0.05 -17.05 -0.04 -16.51 -0.04 -15.94 -0.03 -15.36 -0.04 -14.75 -0.04 -14.12 -0.03 -13.48 0 0zm-0.58 -213.26l48.5 -11.6 0 0 0.01 4.34 0.01 4.24 0.01 4.17 0.01 4.13 0.01 4.1 0.02 4.1 0.01 4.13 0.01 4.18 0.01 4.25 0.01 4.36 0.01 4.48 0.02 4.63 0.01 4.81 0.01 5 0.02 5.23 0.01 5.48 0.02 5.75 0.02 6.05 0.01 6.37 0.02 6.72 0.02 7.1 0.02 7.49 0.02 7.91 0.03 8.35 0.02 8.83 0.03 9.33 0.02 9.84 0.03 10.39 0.03 10.96 0.03 11.55 0.04 12.17 0.03 12.82 -48.5 11.6 -0.03 -12.82 -0.04 -12.17 -0.03 -11.55 -0.03 -10.96 -0.03 -10.39 -0.02 -9.84 -0.03 -9.33 -0.02 -8.83 -0.03 -8.35 -0.02 -7.91 -0.02 -7.49 -0.02 -7.1 -0.02 -6.72 -0.01 -6.37 -0.02 -6.05 -0.02 -5.75 -0.01 -5.48 -0.02 -5.23 -0.01 -5 -0.01 -4.81 -0.02 -4.63 -0.01 -4.48 -0.01 -4.36 -0.01 -4.25 -0.01 -4.18 -0.01 -4.13 -0.02 -4.1 -0.01 -4.1 -0.01 -4.13 -0.01 -4.17 -0.01 -4.24 -0.01 -4.34 0 0zm-0.46 -182.28l48.5 -11.6 0.02 6.35 0.01 6.34 0.02 6.33 0.01 6.32 0.02 6.31 0.02 6.29 0.01 6.26 0.02 6.24 0.01 6.21 0.02 6.17 0.02 6.14 0.01 6.09 0.02 6.05 0.01 6 0.02 5.94 0.01 5.89 0.02 5.83 0.01 5.76 0.02 5.7 0.01 5.62 0.01 5.54 0.02 5.47 0.01 5.38 0.02 5.3 0.01 5.2 0.01 5.11 0.01 5.01 0.02 4.91 0.01 4.8 0.01 4.69 0.01 4.57 0.01 4.46 -48.5 11.6 -0.01 -4.46 -0.01 -4.57 -0.01 -4.69 -0.01 -4.8 -0.02 -4.91 -0.01 -5.01 -0.01 -5.11 -0.01 -5.2 -0.02 -5.3 -0.01 -5.38 -0.02 -5.47 -0.01 -5.54 -0.01 -5.62 -0.02 -5.7 -0.01 -5.76 -0.02 -5.83 -0.01 -5.89 -0.02 -5.94 -0.01 -6 -0.02 -6.05 -0.01 -6.09 -0.02 -6.14 -0.02 -6.17 -0.01 -6.21 -0.02 -6.24 -0.01 -6.26 -0.02 -6.29 -0.02 -6.31 -0.01 -6.32 -0.02 -6.33 -0.01 -6.34 -0.02 -6.35zm0 0c-0.01,-4.12 10.84,-10.07 24.23,-13.27 13.39,-3.2 24.26,-2.45 24.27,1.67l-48.5 11.6z"/>
  </g>
  <g>
   <path class="fil1" d="M8476.91 935.79c2.2,3.54 -6.72,9.53 -19.93,13.36 -13.21,3.83 -25.71,4.06 -27.91,0.52l47.84 -13.88zm-125.62 -92.61l47.14 -14.78 0 0 3.01 3.13 2.96 3.16 2.9 3.19 2.86 3.19 2.81 3.22 2.76 3.24 2.72 3.25 2.68 3.27 2.63 3.29 2.6 3.3 2.55 3.32 2.53 3.33 2.49 3.34 2.45 3.36 2.42 3.38 2.4 3.37 2.36 3.4 2.35 3.4 2.32 3.41 2.29 3.41 2.28 3.43 2.25 3.43 2.24 3.44 2.22 3.45 2.21 3.44 2.19 3.46 2.18 3.47 2.18 3.45 2.17 3.46 2.16 3.46 2.16 3.48 2.15 3.46 -47.84 13.88 -2.15 -3.46 -2.16 -3.46 -2.16 -3.46 -2.17 -3.46 -2.16 -3.45 -2.18 -3.45 -2.19 -3.44 -2.19 -3.44 -2.22 -3.43 -2.22 -3.42 -2.25 -3.41 -2.26 -3.41 -2.27 -3.39 -2.3 -3.39 -2.33 -3.38 -2.34 -3.36 -2.38 -3.35 -2.4 -3.34 -2.43 -3.32 -2.47 -3.32 -2.49 -3.29 -2.53 -3.28 -2.56 -3.26 -2.61 -3.25 -2.64 -3.23 -2.68 -3.21 -2.72 -3.18 -2.77 -3.18 -2.82 -3.15 -2.86 -3.13 -2.9 -3.1 -2.97 -3.09 0 0zm-116.64 -82.15l44.44 -16.6 0 0 4.24 2 4.22 2.05 4.18 2.11 4.17 2.15 4.14 2.19 4.11 2.24 4.07 2.28 4.07 2.32 4.02 2.37 4 2.41 3.95 2.44 3.94 2.49 3.89 2.53 3.86 2.57 3.83 2.61 3.79 2.63 3.76 2.68 3.71 2.71 3.68 2.75 3.63 2.78 3.59 2.81 3.56 2.85 3.5 2.86 3.46 2.91 3.43 2.94 3.36 2.96 3.32 2.99 3.27 3.02 3.22 3.03 3.18 3.08 3.12 3.09 3.07 3.12 -47.14 14.78 -3.01 -3.06 -3.06 -3.03 -3.12 -3.02 -3.16 -2.99 -3.21 -2.96 -3.28 -2.93 -3.3 -2.92 -3.35 -2.88 -3.4 -2.85 -3.44 -2.82 -3.48 -2.79 -3.53 -2.75 -3.57 -2.74 -3.6 -2.69 -3.63 -2.65 -3.68 -2.62 -3.71 -2.59 -3.75 -2.55 -3.78 -2.51 -3.81 -2.47 -3.84 -2.43 -3.87 -2.4 -3.9 -2.35 -3.92 -2.31 -3.95 -2.26 -3.99 -2.22 -3.99 -2.18 -4.02 -2.13 -4.05 -2.09 -4.06 -2.03 -4.08 -1.99 -4.1 -1.94 0 0zm-115.22 -40.15l42.3 -17.42 0 0 2.26 0.69 2.41 0.73 2.54 0.77 2.69 0.79 2.81 0.84 2.93 0.85 3.06 0.91 3.16 0.93 3.28 0.98 3.35 1 3.45 1.04 3.58 1.08 3.64 1.12 3.71 1.16 3.78 1.19 3.87 1.24 3.92 1.27 3.98 1.32 4.02 1.35 4.09 1.4 4.13 1.45 4.15 1.48 4.2 1.53 4.21 1.57 4.25 1.62 4.26 1.67 4.27 1.71 4.28 1.76 4.28 1.8 4.29 1.86 4.26 1.91 4.25 1.95 -44.44 16.6 -4.13 -1.89 -4.12 -1.85 -4.13 -1.78 -4.16 -1.76 -4.14 -1.7 -4.15 -1.67 -4.12 -1.61 -4.11 -1.56 -4.11 -1.53 -4.08 -1.49 -4.05 -1.44 -4.01 -1.41 -3.97 -1.36 -3.94 -1.33 -3.88 -1.28 -3.82 -1.25 -3.77 -1.2 -3.72 -1.17 -3.65 -1.14 -3.56 -1.1 -3.48 -1.06 -3.43 -1.02 -3.33 -1 -3.24 -0.96 -3.14 -0.93 -3.04 -0.89 -2.93 -0.87 -2.85 -0.84 -2.71 -0.81 -2.6 -0.77 -2.49 -0.75 -2.36 -0.73 0 0zm22.84 147.48l-48.5 11.62 0 0 -0.12 -15.61 -0.11 -14.62 -0.1 -13.66 -0.07 -12.74 -0.05 -11.83 -0.02 -10.97 0.01 -10.13 0.05 -9.35 0.09 -8.56 0.14 -7.83 0.18 -7.12 0.24 -6.45 0.3 -5.81 0.36 -5.2 0.43 -4.62 0.5 -4.1 0.58 -3.6 0.69 -3.16 0.8 -2.75 0.95 -2.45 1.22 -2.28 1.82 -2.38 3.48 -3.04 9.04 -4.92 17.06 -5.17 11.84 -1.43 5.83 0.18 3.51 0.51 2.6 0.59 2.27 0.62 2.23 0.67 2.21 0.69 -42.3 17.42 -2.13 -0.67 -1.85 -0.55 -1.53 -0.42 -0.96 -0.23 0.21 0.01 2.75 0.06 9.02 -1.13 14.44 -4.39 6.64 -3.56 1.28 -1.08 -0.18 0.26 -0.58 1.1 -0.67 1.73 -0.66 2.29 -0.61 2.82 -0.54 3.36 -0.48 3.92 -0.43 4.5 -0.34 5.1 -0.3 5.73 -0.24 6.39 -0.18 7.08 -0.14 7.79 -0.09 8.54 -0.05 9.31 -0.01 10.13 0.02 10.95 0.05 11.83 0.07 12.72 0.1 13.66 0.11 14.62 0.12 15.61 0 0zm6.87 864.51l-48.5 11.62 -0.26 -32.46 -0.25 -32.43 -0.26 -32.36 -0.25 -32.27 -0.26 -32.14 -0.25 -31.98 -0.25 -31.79 -0.25 -31.56 -0.25 -31.31 -0.25 -31.03 -0.24 -30.7 -0.24 -30.35 -0.24 -29.97 -0.23 -29.55 -0.23 -29.11 -0.23 -28.63 -0.22 -28.12 -0.22 -27.57 -0.22 -27 -0.21 -26.4 -0.2 -25.75 -0.2 -25.08 -0.2 -24.39 -0.19 -23.64 -0.18 -22.89 -0.18 -22.08 -0.17 -21.25 -0.16 -20.39 -0.16 -19.5 -0.15 -18.57 -0.14 -17.62 -0.13 -16.62 48.5 -11.62 0.13 16.62 0.14 17.62 0.15 18.57 0.16 19.5 0.16 20.39 0.17 21.25 0.18 22.08 0.18 22.89 0.19 23.64 0.2 24.39 0.2 25.08 0.2 25.75 0.21 26.4 0.22 27 0.22 27.57 0.22 28.12 0.23 28.63 0.23 29.11 0.23 29.55 0.24 29.97 0.24 30.35 0.24 30.7 0.25 31.03 0.25 31.31 0.25 31.56 0.25 31.79 0.25 31.98 0.26 32.14 0.25 32.27 0.26 32.36 0.25 32.43 0.26 32.46zm0 0c0.03,4.12 -10.8,10.07 -24.19,13.27 -13.39,3.2 -24.28,2.47 -24.31,-1.65l48.5 -11.62z"/>
  </g>
  <g>
   <path class="fil1" d="M8429.33 1509.57c2.93,-4.72 15.92,-10.36 28.98,-12.57 13.06,-2.21 21.27,-0.17 18.34,4.55l-47.32 8.02zm-31.88 100.26l-45.18 5.36 -0.01 0 2.9 -3.01 2.84 -3.03 2.81 -3.08 2.77 -3.09 2.71 -3.12 2.68 -3.14 2.65 -3.16 2.6 -3.19 2.57 -3.2 2.54 -3.22 2.49 -3.25 2.48 -3.28 2.44 -3.26 2.4 -3.3 2.39 -3.32 2.36 -3.33 2.33 -3.33 2.32 -3.36 2.28 -3.36 2.26 -3.39 2.26 -3.39 2.23 -3.4 2.22 -3.41 2.21 -3.42 2.18 -3.42 2.19 -3.44 2.17 -3.44 2.16 -3.45 2.17 -3.45 2.15 -3.46 2.16 -3.46 2.15 -3.46 47.32 -8.02 -2.15 3.46 -2.16 3.48 -2.17 3.46 -2.17 3.47 -2.18 3.47 -2.19 3.46 -2.19 3.46 -2.22 3.46 -2.23 3.46 -2.24 3.45 -2.27 3.46 -2.28 3.43 -2.3 3.43 -2.34 3.44 -2.36 3.42 -2.37 3.41 -2.42 3.41 -2.43 3.38 -2.48 3.4 -2.52 3.38 -2.54 3.36 -2.59 3.35 -2.62 3.34 -2.67 3.34 -2.72 3.31 -2.75 3.3 -2.8 3.28 -2.87 3.28 -2.91 3.25 -2.95 3.24 -3.02 3.23 -3.08 3.21 -0.01 0zm-126.2 88.32l-28.76 -5.16 -0.03 0.01 3.61 -1.7 3.59 -1.76 3.7 -1.86 3.67 -1.88 3.59 -1.91 3.65 -1.98 3.66 -2.05 3.63 -2.08 3.64 -2.15 3.64 -2.19 3.61 -2.24 3.61 -2.28 3.58 -2.32 3.57 -2.37 3.56 -2.43 3.53 -2.46 3.5 -2.49 3.47 -2.53 3.45 -2.58 3.42 -2.61 3.39 -2.66 3.36 -2.68 3.3 -2.72 3.3 -2.77 3.24 -2.77 3.2 -2.82 3.18 -2.86 3.11 -2.86 3.08 -2.92 3.05 -2.94 2.98 -2.95 2.94 -2.99 45.18 -5.36 -3.14 3.19 -3.2 3.17 -3.25 3.14 -3.3 3.12 -3.37 3.12 -3.42 3.06 -3.46 3.06 -3.54 3.03 -3.56 2.99 -3.64 2.98 -3.68 2.94 -3.73 2.92 -3.78 2.89 -3.83 2.86 -3.87 2.83 -3.94 2.81 -3.97 2.76 -4.02 2.73 -4.07 2.71 -4.12 2.68 -4.17 2.64 -4.21 2.6 -4.26 2.57 -4.3 2.53 -4.39 2.52 -4.4 2.45 -4.45 2.44 -4.57 2.41 -4.55 2.34 -4.54 2.28 -4.71 2.3 -4.73 2.24 -0.03 0.01zm-125.22 43.95l-10.9 -11.96 -0.06 0.02 2.76 -0.85 2.73 -0.83 2.79 -0.83 2.8 -0.83 2.93 -0.87 2.99 -0.88 2.99 -0.88 3.06 -0.9 3.1 -0.93 3.27 -0.98 3.3 -0.98 3.21 -0.97 3.25 -1.01 3.45 -1.08 3.51 -1.1 3.43 -1.1 3.47 -1.12 3.54 -1.18 3.59 -1.2 3.62 -1.24 3.54 -1.24 3.67 -1.32 3.62 -1.31 3.62 -1.35 3.7 -1.41 3.66 -1.43 3.67 -1.47 3.61 -1.48 3.63 -1.53 3.63 -1.58 3.66 -1.64 3.62 -1.65 28.76 5.16 -4.76 2.19 -4.72 2.1 -4.79 2.08 -4.81 2.03 -4.81 1.98 -4.75 1.89 -4.72 1.85 -4.66 1.77 -4.7 1.77 -4.66 1.69 -4.53 1.62 -4.6 1.6 -4.44 1.52 -4.37 1.48 -4.32 1.42 -4.27 1.4 -4.21 1.34 -3.99 1.26 -3.91 1.22 -3.95 1.21 -3.85 1.17 -3.58 1.08 -3.41 1.02 -3.42 1.01 -3.24 0.96 -3.11 0.92 -2.87 0.84 -2.73 0.81 -2.6 0.77 -2.35 0.71 -2.17 0.65 -1.86 0.57 -0.06 0.02zm-52.26 -162.21l48.5 -11.54 0 0 -0.12 15.6 -0.11 14.62 -0.1 13.66 -0.07 12.73 -0.05 11.82 -0.02 10.96 0.01 10.12 0.05 9.32 0.09 8.54 0.14 7.79 0.18 7.08 0.24 6.39 0.3 5.73 0.34 5.11 0.43 4.5 0.48 3.94 0.55 3.38 0.62 2.87 0.68 2.36 0.73 1.89 0.75 1.41 0.72 0.95 0.56 0.51 0.11 0.08 -0.86 -0.25 -2.46 -0.25 -4.29 0.17 -4.87 0.71 -2.92 0.63 -0.74 0.2 0.58 -0.18 1.91 -0.6 10.9 11.96 -2.43 0.76 -3.5 1.04 -4.54 1.24 -6.48 1.45 -8.17 1.21 -7.37 0.29 -5.28 -0.55 -3.48 -1.03 -2.29 -1.28 -1.64 -1.45 -1.28 -1.69 -1.05 -1.97 -0.89 -2.29 -0.78 -2.68 -0.68 -3.11 -0.57 -3.58 -0.5 -4.08 -0.43 -4.62 -0.36 -5.19 -0.3 -5.81 -0.24 -6.45 -0.18 -7.12 -0.14 -7.83 -0.09 -8.56 -0.05 -9.34 -0.01 -10.14 0.02 -10.96 0.05 -11.84 0.07 -12.73 0.1 -13.66 0.11 -14.62 0.12 -15.62 0 0zm6.87 -864.51l48.5 -11.54 -0.26 32.46 -0.25 32.43 -0.26 32.36 -0.25 32.27 -0.26 32.14 -0.25 31.98 -0.25 31.79 -0.25 31.56 -0.25 31.31 -0.25 31.03 -0.24 30.7 -0.24 30.35 -0.24 29.97 -0.23 29.56 -0.23 29.11 -0.23 28.62 -0.22 28.12 -0.22 27.58 -0.22 27 -0.21 26.39 -0.2 25.75 -0.2 25.09 -0.2 24.38 -0.19 23.65 -0.18 22.88 -0.18 22.08 -0.17 21.26 -0.16 20.39 -0.16 19.49 -0.15 18.57 -0.14 17.62 -0.13 16.62 -48.5 11.54 0.13 -16.62 0.14 -17.62 0.15 -18.57 0.16 -19.49 0.16 -20.39 0.17 -21.26 0.18 -22.08 0.18 -22.88 0.19 -23.65 0.2 -24.38 0.2 -25.09 0.2 -25.75 0.21 -26.39 0.22 -27 0.22 -27.58 0.22 -28.12 0.23 -28.62 0.23 -29.11 0.23 -29.56 0.24 -29.97 0.24 -30.35 0.24 -30.7 0.25 -31.03 0.25 -31.31 0.25 -31.56 0.25 -31.79 0.25 -31.98 0.26 -32.14 0.25 -32.27 0.26 -32.36 0.25 -32.43 0.26 -32.46zm0 0c0.03,-4.13 10.92,-10.08 24.31,-13.26 13.39,-3.18 24.22,-2.41 24.19,1.72l-48.5 11.54z"/>
  </g>
  <g>
   <path class="fil1" d="M8072.67 1233.61c-10.58,0 -12.51,-4.24 -4.31,-9.46 8.2,-5.22 23.45,-9.46 34.03,-9.46l-29.72 18.92zm290.06 -18.92l-29.72 18.92 -8.13 0 -8.14 0 -8.13 0 -8.14 0 -8.13 0 -8.14 0 -8.14 0 -8.13 0 -8.14 0 -8.13 0 -8.14 0 -8.13 0 -8.14 0 -8.13 0 -8.14 0 -8.14 0 -8.13 0 -8.14 0 -8.13 0 -8.14 0 -8.14 0 -8.13 0 -8.14 0 -8.13 0 -8.14 0 -8.14 0 -8.13 0 -8.14 0 -8.13 0 -8.14 0 -8.13 0 -8.14 0 29.72 -18.92 8.14 0 8.13 0 8.14 0 8.13 0 8.14 0 8.13 0 8.14 0 8.14 0 8.13 0 8.14 0 8.13 0 8.14 0 8.14 0 8.13 0 8.14 0 8.13 0 8.14 0 8.14 0 8.13 0 8.14 0 8.13 0 8.14 0 8.13 0 8.14 0 8.13 0 8.14 0 8.14 0 8.13 0 8.14 0 8.13 0 8.14 0 8.13 0zm0 0c10.58,0 12.51,4.24 4.31,9.46 -8.2,5.22 -23.45,9.46 -34.03,9.46l29.72 -18.92z"/>
  </g>
 </g>
</svg>
